<svg width="150" height="150" viewBox="0 0 39 52" xmlns="http://www.w3.org/2000/svg"><title>licensed</title><g transform="translate(1 1)" stroke="#5B32AD" stroke-width="1" fill="none" fill-rule="evenodd" stroke-opacity="1"><circle cx="18.116" cy="31.884" r="18.116"/><path d="M14.385 37.488l-2.54-4.225c-.327-.544-.334-1.22-.02-1.775l2.565-4.514c.314-.55.897-.887 1.53-.887h5.117c.632 0 1.215.338 1.53.887l2.565 4.514c.314.554.306 1.23-.02 1.775l-2.54 4.225c-.317.53-.89.853-1.506.853H15.89c-.615 0-1.188-.323-1.505-.852zM10.87 6.064v7.426c0 .465.317.802.934.84.365.023 4.633-.49 6.312-.49.305 0 .29.517.404.517.163 0-.16-.517 0-.518 2.838-.01 5.908.49 5.908.49.518 0 .934-.375.934-.84V6.063c0-1.986-.985-3.73-2.542-4.895-.344-.258-.685-.92-2.44-1.116-1.496-.168-4.433.12-4.8 0-2.754.894-4.71 3.212-4.71 6.01z" stroke-linecap="round"/></g></svg>