<svg xmlns="http://www.w3.org/2000/svg" width="425" height="240" viewBox="0 0 425 240" xmlns:xlink="http://www.w3.org/1999/xlink">
  <defs>
    <path id="a" d="M425,158 L425,232.995684 C425,236.864061 421.868281,240 417.999808,240 L7.00019167,240 C3.13409256,240 -1.1937118e-12,236.86668 -1.1937118e-12,232.995684 L-1.1937118e-12,157.496691 C0.166403868,157.498895 0.333072841,157.5 0.5,157.5 C20.9345357,157.5 37.5,140.934536 37.5,120.5 C37.5,100.065464 20.9345357,83.5 0.5,83.5 C0.333072841,83.5 0.166403868,83.5011054 -1.42644785e-11,83.5033093 L-1.1937118e-12,7.0043161 C-1.1937118e-12,3.13593913 3.13171921,0 7.00019167,0 L417.999808,0 C421.865907,0 425,3.13332009 425,7.0043161 L425,84 C404.565464,84 388,100.565464 388,121 C388,141.434536 404.565464,158 425,158 Z"/>
    <mask id="b" width="425" height="240" x="0" y="0" fill="white">
      <use xlink:href="#a"/>
    </mask>
  </defs>
  <g fill="none" fill-rule="evenodd">
    <use fill="#FFFFFF" stroke="#6639B6" stroke-width="2" mask="url(#b)" xlink:href="#a"/>
    <circle cx="13.5" cy="13.5" r="3.5" fill="#6639B6"/>
    <ellipse cx="411.5" cy="13.5" fill="#6639B6" rx="3.5" ry="3.5"/>
    <circle cx="13.5" cy="226.5" r="3.5" fill="#6639B6"/>
    <ellipse cx="411.5" cy="226.5" fill="#6639B6" rx="3.5" ry="3.5"/>
    <path fill="#747474" d="M119.232,79.8 L123.408,79.8 C124.144004,79.8 124.80533,79.9653317 125.392,80.296 C125.97867,80.6266683 126.437332,81.0853304 126.768,81.672 C127.098668,82.2586696 127.264,82.914663 127.264,83.64 C127.264,84.3760037 127.098668,85.0346638 126.768,85.616 C126.437332,86.1973362 125.97867,86.6533317 125.392,86.984 C124.80533,87.3146683 124.144004,87.48 123.408,87.48 L121.056,87.48 L121.056,91 L119.232,91 L119.232,79.8 Z M123.408,85.656 C123.99467,85.656 124.479998,85.4666686 124.864,85.088 C125.248002,84.7093314 125.44,84.2266696 125.44,83.64 C125.44,83.0533304 125.248002,82.5706686 124.864,82.192 C124.479998,81.8133314 123.99467,81.624 123.408,81.624 L121.056,81.624 L121.056,85.656 L123.408,85.656 Z M132.736,82.808 C133.002668,82.808 133.263999,82.8399997 133.52,82.904 L133.52,84.744 C133.199998,84.669333 132.906668,84.632 132.64,84.632 C131.871996,84.632 131.314668,84.861331 130.968,85.32 C130.621332,85.778669 130.448,86.4506622 130.448,87.336 L130.448,91 L128.72,91 L128.72,83 L130.384,83 L130.384,84.264 C130.896003,83.2933285 131.679995,82.808 132.736,82.808 L132.736,82.808 Z M134.776,84.84 C135.144002,84.1999968 135.650663,83.7013351 136.296,83.344 C136.941337,82.9866649 137.663996,82.808 138.464,82.808 C139.264004,82.808 139.986663,82.9866649 140.632,83.344 C141.277337,83.7013351 141.783998,84.1999968 142.152,84.84 C142.520002,85.4800032 142.704,86.199996 142.704,87 C142.704,87.800004 142.520002,88.5199968 142.152,89.16 C141.783998,89.8000032 141.277337,90.2986649 140.632,90.656 C139.986663,91.0133351 139.264004,91.192 138.464,91.192 C137.663996,91.192 136.941337,91.0133351 136.296,90.656 C135.650663,90.2986649 135.144002,89.8000032 134.776,89.16 C134.407998,88.5199968 134.224,87.800004 134.224,87 C134.224,86.199996 134.407998,85.4800032 134.776,84.84 L134.776,84.84 Z M140.24,85.184 C139.781331,84.7199977 139.189337,84.488 138.464,84.488 C137.738663,84.488 137.146669,84.7199977 136.688,85.184 C136.229331,85.6480023 136,86.2533296 136,87 C136,87.7466704 136.229331,88.3519977 136.688,88.816 C137.146669,89.2800023 137.738663,89.512 138.464,89.512 C139.189337,89.512 139.781331,89.2800023 140.24,88.816 C140.698669,88.3519977 140.928,87.7466704 140.928,87 C140.928,86.2533296 140.698669,85.6480023 140.24,85.184 L140.24,85.184 Z M153.792,82.808 C154.762672,82.808 155.514664,83.103997 156.048,83.696 C156.581336,84.288003 156.848,85.1439944 156.848,86.264 L156.848,91 L155.104,91 L155.104,86.392 C155.104,85.7519968 154.962668,85.2666683 154.68,84.936 C154.397332,84.6053317 153.984003,84.44 153.44,84.44 C152.063993,84.44 151.376,85.3679907 151.376,87.224 L151.376,91 L149.648,91 L149.648,86.392 C149.648,85.7519968 149.504001,85.2666683 149.216,84.936 C148.927999,84.6053317 148.512003,84.44 147.968,84.44 C146.60266,84.44 145.92,85.3679907 145.92,87.224 L145.92,91 L144.192,91 L144.192,83 L145.872,83 L145.872,84.136 C146.128001,83.7093312 146.466665,83.3813345 146.888,83.152 C147.309335,82.9226655 147.807997,82.808 148.384,82.808 C148.992003,82.808 149.511998,82.9359987 149.944,83.192 C150.376002,83.4480013 150.709332,83.8319974 150.944,84.344 C151.573336,83.3199949 152.52266,82.808 153.792,82.808 L153.792,82.808 Z M158.904,84.84 C159.272002,84.1999968 159.778663,83.7013351 160.424,83.344 C161.069337,82.9866649 161.791996,82.808 162.592,82.808 C163.392004,82.808 164.114663,82.9866649 164.76,83.344 C165.405337,83.7013351 165.911998,84.1999968 166.28,84.84 C166.648002,85.4800032 166.832,86.199996 166.832,87 C166.832,87.800004 166.648002,88.5199968 166.28,89.16 C165.911998,89.8000032 165.405337,90.2986649 164.76,90.656 C164.114663,91.0133351 163.392004,91.192 162.592,91.192 C161.791996,91.192 161.069337,91.0133351 160.424,90.656 C159.778663,90.2986649 159.272002,89.8000032 158.904,89.16 C158.535998,88.5199968 158.352,87.800004 158.352,87 C158.352,86.199996 158.535998,85.4800032 158.904,84.84 L158.904,84.84 Z M164.368,85.184 C163.909331,84.7199977 163.317337,84.488 162.592,84.488 C161.866663,84.488 161.274669,84.7199977 160.816,85.184 C160.357331,85.6480023 160.128,86.2533296 160.128,87 C160.128,87.7466704 160.357331,88.3519977 160.816,88.816 C161.274669,89.2800023 161.866663,89.512 162.592,89.512 C163.317337,89.512 163.909331,89.2800023 164.368,88.816 C164.826669,88.3519977 165.056,87.7466704 165.056,87 C165.056,86.2533296 164.826669,85.6480023 164.368,85.184 L164.368,85.184 Z M172.888,84.832 C173.245335,84.1973302 173.746663,83.7013351 174.392,83.344 C175.037337,82.9866649 175.770663,82.808 176.592,82.808 C177.786673,82.808 178.773329,83.1973294 179.552,83.976 L178.512,85.336 C177.89333,84.7706638 177.237337,84.488 176.544,84.488 C175.82933,84.488 175.248002,84.7199977 174.8,85.184 C174.351998,85.6480023 174.128,86.2533296 174.128,87 C174.128,87.7360037 174.351998,88.3386643 174.8,88.808 C175.248002,89.2773357 175.823996,89.512 176.528,89.512 C177.285337,89.512 177.97333,89.2186696 178.592,88.632 L179.584,90.008 C179.199998,90.3920019 178.746669,90.6853323 178.224,90.888 C177.701331,91.0906677 177.136003,91.192 176.528,91.192 C175.706663,91.192 174.981336,91.0160018 174.352,90.664 C173.722664,90.3119982 173.232002,89.8213365 172.88,89.192 C172.527998,88.5626635 172.352,87.8373374 172.352,87.016 C172.352,86.1946626 172.530665,85.4666698 172.888,84.832 L172.888,84.832 Z M180.904,84.84 C181.272002,84.1999968 181.778663,83.7013351 182.424,83.344 C183.069337,82.9866649 183.791996,82.808 184.592,82.808 C185.392004,82.808 186.114663,82.9866649 186.76,83.344 C187.405337,83.7013351 187.911998,84.1999968 188.28,84.84 C188.648002,85.4800032 188.832,86.199996 188.832,87 C188.832,87.800004 188.648002,88.5199968 188.28,89.16 C187.911998,89.8000032 187.405337,90.2986649 186.76,90.656 C186.114663,91.0133351 185.392004,91.192 184.592,91.192 C183.791996,91.192 183.069337,91.0133351 182.424,90.656 C181.778663,90.2986649 181.272002,89.8000032 180.904,89.16 C180.535998,88.5199968 180.352,87.800004 180.352,87 C180.352,86.199996 180.535998,85.4800032 180.904,84.84 L180.904,84.84 Z M186.368,85.184 C185.909331,84.7199977 185.317337,84.488 184.592,84.488 C183.866663,84.488 183.274669,84.7199977 182.816,85.184 C182.357331,85.6480023 182.128,86.2533296 182.128,87 C182.128,87.7466704 182.357331,88.3519977 182.816,88.816 C183.274669,89.2800023 183.866663,89.512 184.592,89.512 C185.317337,89.512 185.909331,89.2800023 186.368,88.816 C186.826669,88.3519977 187.056,87.7466704 187.056,87 C187.056,86.2533296 186.826669,85.6480023 186.368,85.184 L186.368,85.184 Z M197.984,91 L196.24,91 L196.24,89.864 C195.930665,90.2906688 195.541336,90.6186655 195.072,90.848 C194.602664,91.0773345 194.080003,91.192 193.504,91.192 C192.778663,91.192 192.13067,91.0160018 191.56,90.664 C190.98933,90.3119982 190.546668,89.8186698 190.232,89.184 C189.917332,88.5493302 189.76,87.8213374 189.76,87 C189.76,86.1786626 189.917332,85.4506698 190.232,84.816 C190.546668,84.1813302 190.986664,83.6880018 191.552,83.336 C192.117336,82.9839982 192.762663,82.808 193.488,82.808 C194.618672,82.808 195.535996,83.2559955 196.24,84.152 L196.24,79.8 L197.984,79.8 L197.984,91 Z M192.2,85.16 C191.757331,85.6293357 191.536,86.2426629 191.536,87 C191.536,87.7573371 191.757331,88.3706643 192.2,88.84 C192.642669,89.3093357 193.22133,89.544 193.936,89.544 C194.65067,89.544 195.226664,89.3120023 195.664,88.848 C196.101336,88.3839977 196.32,87.7680038 196.32,87 C196.32,86.2319962 196.101336,85.6160023 195.664,85.152 C195.226664,84.6879977 194.65067,84.456 193.936,84.456 C193.22133,84.456 192.642669,84.6906643 192.2,85.16 L192.2,85.16 Z M199.968,84.888 C200.298668,84.2479968 200.767997,83.7413352 201.376,83.368 C201.984003,82.9946648 202.687996,82.808 203.488,82.808 C204.298671,82.808 204.99733,82.9866649 205.584,83.344 C206.17067,83.7013351 206.615998,84.1999968 206.92,84.84 C207.224002,85.4800032 207.376,86.2106626 207.376,87.032 L207.376,87.528 L201.232,87.528 L201.232,87.544 C201.306667,88.1946699 201.573331,88.6959982 202.032,89.048 C202.490669,89.4000018 203.023997,89.576 203.632,89.576 C204.560005,89.576 205.359997,89.2293368 206.032,88.536 L206.848,89.928 C206.474665,90.3013352 206.021336,90.6053322 205.488,90.84 C204.954664,91.0746678 204.341337,91.192 203.648,91.192 C202.805329,91.192 202.069336,91.0186684 201.44,90.672 C200.810664,90.3253316 200.325335,89.8373365 199.984,89.208 C199.642665,88.5786635 199.472,87.8533374 199.472,87.032 C199.472,86.2426627 199.637332,85.5280032 199.968,84.888 L199.968,84.888 Z M204.888,84.848 C204.541332,84.5119983 204.064003,84.344 203.456,84.344 C202.83733,84.344 202.341335,84.506665 201.968,84.832 C201.594665,85.157335 201.354667,85.6186637 201.248,86.216 L205.488,86.216 C205.434666,85.6399971 205.234668,85.1840017 204.888,84.848 L204.888,84.848 Z M211.392,83.208 C211.658668,83.474668 211.792,83.8053314 211.792,84.2 C211.792,84.5946686 211.658668,84.9226654 211.392,85.184 C211.125332,85.4453346 210.794669,85.576 210.4,85.576 C210.005331,85.576 209.677335,85.4453346 209.416,85.184 C209.154665,84.9226654 209.024,84.5946686 209.024,84.2 C209.024,83.8053314 209.154665,83.474668 209.416,83.208 C209.677335,82.941332 210.005331,82.808 210.4,82.808 C210.794669,82.808 211.125332,82.941332 211.392,83.208 L211.392,83.208 Z M211.392,88.632 C211.658668,88.898668 211.792,89.2293314 211.792,89.624 C211.792,90.0186686 211.658668,90.3466654 211.392,90.608 C211.125332,90.8693346 210.794669,91 210.4,91 C210.005331,91 209.677335,90.8693346 209.416,90.608 C209.154665,90.3466654 209.024,90.0186686 209.024,89.624 C209.024,89.2293314 209.154665,88.898668 209.416,88.632 C209.677335,88.365332 210.005331,88.232 210.4,88.232 C210.794669,88.232 211.125332,88.365332 211.392,88.632 L211.392,88.632 Z"/>
    <path fill="#6639B6" d="M118.81,107 L135.47,107 C138.736683,107 141.629987,107.688326 144.15,109.065 C146.670013,110.441674 148.618326,112.366654 149.995,114.84 C151.371674,117.313346 152.06,120.113318 152.06,123.24 C152.06,126.366682 151.371674,129.154988 149.995,131.605 C148.618326,134.055012 146.670013,135.968326 144.15,137.345 C141.629987,138.721674 138.736683,139.41 135.47,139.41 L123.29,139.41 L123.29,156 L118.81,156 L118.81,107 Z M135.47,134.93 C139.063351,134.93 141.979989,133.833344 144.22,131.64 C146.460011,129.446656 147.58,126.646684 147.58,123.24 C147.58,119.786649 146.460011,116.963344 144.22,114.77 C141.979989,112.576656 139.063351,111.48 135.47,111.48 L123.29,111.48 L123.29,134.93 L135.47,134.93 Z M169.14,152.815 C165.406648,150.691656 162.478344,147.763352 160.355,144.03 C158.231656,140.296648 157.17,136.120023 157.17,131.5 C157.17,126.879977 158.231656,122.703352 160.355,118.97 C162.478344,115.236648 165.406648,112.308344 169.14,110.185 C172.873352,108.061656 177.049977,107 181.67,107 C186.290023,107 190.466648,108.061656 194.2,110.185 C197.933352,112.308344 200.861656,115.236648 202.985,118.97 C205.108344,122.703352 206.17,126.879977 206.17,131.5 C206.17,136.120023 205.108344,140.296648 202.985,144.03 C200.861656,147.763352 197.933352,150.691656 194.2,152.815 C190.466648,154.938344 186.290023,156 181.67,156 C177.049977,156 172.873352,154.938344 169.14,152.815 L169.14,152.815 Z M191.925,148.93 C194.981682,147.203325 197.373325,144.811682 199.1,141.755 C200.826675,138.698318 201.69,135.280019 201.69,131.5 C201.69,127.719981 200.826675,124.301682 199.1,121.245 C197.373325,118.188318 194.981682,115.796675 191.925,114.07 C188.868318,112.343325 185.450019,111.48 181.67,111.48 C177.889981,111.48 174.471682,112.343325 171.415,114.07 C168.358318,115.796675 165.966675,118.188318 164.24,121.245 C162.513325,124.301682 161.65,127.719981 161.65,131.5 C161.65,135.280019 162.513325,138.698318 164.24,141.755 C165.966675,144.811682 168.358318,147.203325 171.415,148.93 C174.471682,150.656675 177.889981,151.52 181.67,151.52 C185.450019,151.52 188.868318,150.656675 191.925,148.93 L191.925,148.93 Z M215.9,118.97 C218.046677,115.236648 220.986648,112.308344 224.72,110.185 C228.453352,108.061656 232.606644,107 237.18,107 C243.340031,107 248.893309,109.123312 253.84,113.37 L251.88,117.64 C249.733323,115.726657 247.481678,114.221672 245.125,113.125 C242.768322,112.028328 240.073349,111.48 237.04,111.48 C233.259981,111.48 229.853349,112.331658 226.82,114.035 C223.786652,115.738342 221.418342,118.106651 219.715,121.14 C218.011658,124.173349 217.16,127.626647 217.16,131.5 C217.16,135.373353 218.023325,138.826651 219.75,141.86 C221.476675,144.893349 223.833318,147.261658 226.82,148.965 C229.806682,150.668342 233.166648,151.52 236.9,151.52 C242.733363,151.52 247.913311,149.420021 252.44,145.22 L254.47,149.49 C249.523309,153.830022 243.666701,156 236.9,156 C232.419978,156 228.336685,154.926677 224.65,152.78 C220.963315,150.633323 218.046677,147.693352 215.9,143.96 C213.753323,140.226648 212.68,136.050023 212.68,131.43 C212.68,126.856644 213.753323,122.703352 215.9,118.97 L215.9,118.97 Z M271.27,152.815 C267.536648,150.691656 264.608344,147.763352 262.485,144.03 C260.361656,140.296648 259.3,136.120023 259.3,131.5 C259.3,126.879977 260.361656,122.703352 262.485,118.97 C264.608344,115.236648 267.536648,112.308344 271.27,110.185 C275.003352,108.061656 279.179977,107 283.8,107 C288.420023,107 292.596648,108.061656 296.33,110.185 C300.063352,112.308344 302.991656,115.236648 305.115,118.97 C307.238344,122.703352 308.3,126.879977 308.3,131.5 C308.3,136.120023 307.238344,140.296648 305.115,144.03 C302.991656,147.763352 300.063352,150.691656 296.33,152.815 C292.596648,154.938344 288.420023,156 283.8,156 C279.179977,156 275.003352,154.938344 271.27,152.815 L271.27,152.815 Z M294.055,148.93 C297.111682,147.203325 299.503325,144.811682 301.23,141.755 C302.956675,138.698318 303.82,135.280019 303.82,131.5 C303.82,127.719981 302.956675,124.301682 301.23,121.245 C299.503325,118.188318 297.111682,115.796675 294.055,114.07 C290.998318,112.343325 287.580019,111.48 283.8,111.48 C280.019981,111.48 276.601682,112.343325 273.545,114.07 C270.488318,115.796675 268.096675,118.188318 266.37,121.245 C264.643325,124.301682 263.78,127.719981 263.78,131.5 C263.78,135.280019 264.643325,138.698318 266.37,141.755 C268.096675,144.811682 270.488318,147.203325 273.545,148.93 C276.601682,150.656675 280.019981,151.52 283.8,151.52 C287.580019,151.52 290.998318,150.656675 294.055,148.93 L294.055,148.93 Z"/>
  </g>
</svg>
