<svg xmlns="http://www.w3.org/2000/svg" width="425" height="240" viewBox="0 0 425 240">
  <defs>
    <linearGradient id="a" x1="18.25%" y1="0%" y2="100%">
      <stop stop-color="#6639B6" offset="0%"/>
      <stop stop-color="#0B9AF5" offset="100%"/>
    </linearGradient>
  </defs>
  <g fill="none" fill-rule="evenodd">
    <path fill="url(#a)" d="M425,158 L425,232.995684 C425,236.864061 421.868281,240 417.999808,240 L7.00019167,240 C3.13409256,240 1.33582034e-11,236.86668 1.33582034e-11,232.995684 L1.33582034e-11,157.496691 C0.166403868,157.498895 0.333072841,157.5 0.5,157.5 C20.9345357,157.5 37.5,140.934536 37.5,120.5 C37.5,100.065464 20.9345357,83.5 0.5,83.5 C0.333072841,83.5 0.166403868,83.5011054 1.33580647e-11,83.5033093 L1.33582034e-11,7.0043161 C1.33582034e-11,3.13593913 3.13171921,0 7.00019167,0 L417.999808,0 C421.865907,0 425,3.13332009 425,7.0043161 L425,84 C404.565464,84 388,100.565464 388,121 C388,141.434536 404.565464,158 425,158 Z"/>
    <circle cx="13.5" cy="13.5" r="3.5" fill="#FFFFFF"/>
    <ellipse cx="411.5" cy="13.5" fill="#FFFFFF" rx="3.5" ry="3.5"/>
    <circle cx="13.5" cy="226.5" r="3.5" fill="#FFFFFF"/>
    <ellipse cx="411.5" cy="226.5" fill="#FFFFFF" rx="3.5" ry="3.5"/>
    <circle cx="149.5" cy="109.5" r="24.5" fill="#FFECB0"/>
    <path fill="#6639B6" d="M143.66,110 L138,103 L139.64,103 L144.48,108.98 L149.34,103 L150.98,103 L145.32,110 L150.98,117 L149.32,117 L144.48,111.02 L139.66,117 L138,117 L143.66,110 Z M154.53,116.53 C153.909997,116.216665 153.423335,115.773336 153.07,115.2 C152.716665,114.626664 152.54,113.960004 152.54,113.2 C152.54,112.479996 152.706665,111.846669 153.04,111.3 C153.373335,110.753331 153.886663,110.320002 154.58,110 C153.899997,109.693332 153.390002,109.266669 153.05,108.72 C152.709998,108.173331 152.54,107.52667 152.54,106.78 C152.54,106.019996 152.716665,105.356669 153.07,104.79 C153.423335,104.223331 153.909997,103.783335 154.53,103.47 C155.150003,103.156665 155.859996,103 156.66,103 C157.446671,103 158.149997,103.156665 158.77,103.47 C159.390003,103.783335 159.876665,104.223331 160.23,104.79 C160.583335,105.356669 160.76,106.01333 160.76,106.76 C160.76,108.253341 160.060007,109.33333 158.66,110 C160.060007,110.66667 160.76,111.746659 160.76,113.24 C160.76,113.98667 160.583335,114.64333 160.23,115.21 C159.876665,115.776669 159.390003,116.216665 158.77,116.53 C158.149997,116.843335 157.446671,117 156.66,117 C155.859996,117 155.150003,116.843335 154.53,116.53 L154.53,116.53 Z M158.65,108.67 C159.203336,108.209998 159.48,107.586671 159.48,106.8 C159.48,106.05333 159.216669,105.446669 158.69,104.98 C158.163331,104.513331 157.486671,104.28 156.66,104.28 C155.819996,104.28 155.136669,104.513331 154.61,104.98 C154.083331,105.446669 153.82,106.05333 153.82,106.8 C153.82,107.586671 154.099997,108.209998 154.66,108.67 C155.220003,109.130002 155.886663,109.36 156.66,109.36 C157.433337,109.36 158.096664,109.130002 158.65,108.67 L158.65,108.67 Z M158.7,115.02 C159.220003,114.553331 159.48,113.94667 159.48,113.2 C159.48,112.413329 159.203336,111.790002 158.65,111.33 C158.096664,110.869998 157.433337,110.64 156.66,110.64 C155.886663,110.64 155.220003,110.869998 154.66,111.33 C154.099997,111.790002 153.82,112.413329 153.82,113.2 C153.82,113.94667 154.083331,114.553331 154.61,115.02 C155.136669,115.486669 155.819996,115.72 156.66,115.72 C157.500004,115.72 158.179997,115.486669 158.7,115.02 L158.7,115.02 Z"/>
    <path stroke="#FFFFFF" stroke-width="2" d="M135.0049 124C135.0049 130.627 129.6319 136 123.0049 136 116.3779 136 111.0049 130.627 111.0049 124 111.0049 117.373 116.3779 112 123.0049 112 129.6319 112 135.0049 117.373 135.0049 124L135.0049 124zM101.0049 152C101.0049 148.686 103.6909 146 107.0049 146M139.0049 146C142.3189 146 145.0049 148.686 145.0049 152M107.0049 146L139.0049 146M145.0049 152L145.0049 156M101.0049 152L101.0049 156" stroke-linecap="round"/>
    <path fill="#FFFFFF" d="M219.69 141.67L229.63 141.67 229.63 146.15 219.69 146.15 219.69 157 215.21 157 215.21 146.15 187 146.15 187 142.02 215.84 108 219.69 108 219.69 141.67zM193.3 141.67L215.21 141.67 215.21 115.84 193.3 141.67zM237.365 119.06C238.975008 115.373315 241.144986 112.608343 243.875 110.765 246.605014 108.921657 249.696649 108 253.15 108 256.603351 108 259.694986 108.933324 262.425 110.8 265.155014 112.666676 267.324992 115.443315 268.935 119.13 270.545008 122.816685 271.35 127.273307 271.35 132.5 271.35 137.77336 270.545008 142.253315 268.935 145.94 267.324992 149.626685 265.155014 152.391657 262.425 154.235 259.694986 156.078343 256.603351 157 253.15 157 249.696649 157 246.605014 156.078343 243.875 154.235 241.144986 152.391657 238.975008 149.626685 237.365 145.94 235.754992 142.253315 234.95 137.77336 234.95 132.5 234.95 127.22664 235.754992 122.746685 237.365 119.06L237.365 119.06zM265.085 121.475C263.894994 118.464985 262.261677 116.213341 260.185 114.72 258.108323 113.226659 255.763346 112.48 253.15 112.48 250.536654 112.48 248.191677 113.226659 246.115 114.72 244.038323 116.213341 242.405006 118.464985 241.215 121.475 240.024994 124.485015 239.43 128.159978 239.43 132.5 239.43 136.886689 240.024994 140.584985 241.215 143.595 242.405006 146.605015 244.038323 148.844993 246.115 150.315 248.191677 151.785007 250.536654 152.52 253.15 152.52 255.763346 152.52 258.108323 151.785007 260.185 150.315 262.261677 148.844993 263.894994 146.605015 265.085 143.595 266.275006 140.584985 266.87 136.886689 266.87 132.5 266.87 128.159978 266.275006 124.485015 265.085 121.475L265.085 121.475zM321.54 151.61C317.199978 155.203351 312.136696 157 306.35 157 302.569981 157 299.140015 156.230008 296.06 154.69 292.979985 153.149992 290.42501 151.003347 288.395 148.25 286.36499 145.496653 284.97667 142.323351 284.23 138.73L278 138.73 279.68 135.23 283.74 135.23C283.646666 134.016661 283.6 133.10667 283.6 132.5 283.6 131.799996 283.646666 130.796673 283.74 129.49L278.56 129.49 280.24 125.99 284.3 125.99C285.093337 122.443316 286.493323 119.31668 288.5 116.61 290.506677 113.90332 293.038318 111.791674 296.095 110.275 299.151682 108.758326 302.569981 108 306.35 108 311.950028 108 316.873312 109.703316 321.12 113.11L319.3 117.45C317.479991 115.863325 315.531677 114.638338 313.455 113.775 311.378323 112.911662 308.98668 112.48 306.28 112.48 301.799978 112.48 298.043349 113.693321 295.01 116.12 291.976652 118.546679 289.923339 121.836646 288.85 125.99L316.57 125.99 314.96 129.49 288.22 129.49C288.126666 130.796673 288.08 131.799996 288.08 132.5 288.08 133.10667 288.126666 134.016661 288.22 135.23L312.3 135.23 310.69 138.73 288.78 138.73C289.806672 142.976688 291.848318 146.336654 294.905 148.81 297.961682 151.283346 301.753311 152.52 306.28 152.52 309.033347 152.52 311.483323 152.065005 313.63 151.155 315.776677 150.244995 317.783324 148.973342 319.65 147.34L321.54 151.61zM180.72 132L171 132 171 130 180.72 130 180.72 132zM180.72 136L171 136 171 134 180.72 134 180.72 136z"/>
  </g>
</svg>
