<svg width="52" height="52" viewBox="0 0 52 52" xmlns="http://www.w3.org/2000/svg"><title>award</title><g stroke="#D1C5E8" stroke-width="2" fill="none" fill-rule="evenodd" stroke-linecap="round" stroke-opacity=".8"><path d="M31.645 36.306c6.13-2.21 10.484-7.943 10.484-14.862V3.08C42.13 1.928 41.2 1 40.047 1H11.952c-1.154 0-2.08.927-2.08 2.08v18.364c0 4.91 2.193 9.224 5.66 12.105 1.415 1.177 3.044 2.115 4.823 2.756M9.87 20.315c-.265.024-.53.04-.805.04C4.613 20.355 1 16.742 1 12.29c0-4.45 3.613-8.064 8.065-8.064.274 0 .54.016.806.04"/><path d="M9.87 16.242c-.257.056-.53.08-.805.08-2.226 0-4.033-1.806-4.033-4.032 0-2.225 1.807-4.032 4.033-4.032.274 0 .548.024.806.08M42.13 20.315c.265.024.53.04.805.04 4.452 0 8.065-3.613 8.065-8.065 0-4.45-3.613-8.064-8.065-8.064-.274 0-.54.016-.806.04"/><path d="M42.13 16.242c.257.056.53.08.805.08 2.226 0 4.033-1.806 4.033-4.032 0-2.225-1.807-4.032-4.033-4.032-.274 0-.548.024-.806.08M20.355 46.16v-9.854c1.758.638 3.66.984 5.645.984 1.984 0 3.887-.346 5.645-.984v9.855"/><path d="M31.645 46.16h6.032c1.12 0 2.033.913 2.033 2.034v.774c0 1.12-.912 2.032-2.033 2.032H14.323c-1.12 0-2.033-.91-2.033-2.032v-.774c0-1.12.912-2.033 2.033-2.033h17.322z"/></g></svg>