<svg width="52" height="52" viewBox="0 0 52 52" xmlns="http://www.w3.org/2000/svg"><title>engineers</title><g stroke="#D1C5E8" stroke-width="2" fill="none" fill-rule="evenodd" stroke-opacity=".8"><path d="M49.894 46.16H2.106c-.61 0-1.106.496-1.106 1.108v2.626C1 50.504 1.495 51 2.106 51h47.788c.61 0 1.106-.495 1.106-1.106v-2.626c0-.612-.495-1.107-1.106-1.107zM25.315 1.266L3.377 22.62c-.686.627-.243 1.767.684 1.767H47.94c.927 0 1.37-1.14.685-1.766L26.686 1.267c-.388-.355-.983-.355-1.37 0z" stroke-linecap="round"/><path d="M9.82 42.13c-.86 0-1.562-.704-1.562-1.563V30.032c0-.86.703-1.562 1.563-1.562h1.714c.86 0 1.562.703 1.562 1.562v10.535c0 .86-.702 1.562-1.562 1.562H9.82zM22.018 42.13h-1.714c-.86 0-1.562-.704-1.562-1.563V30.032c0-.86.703-1.562 1.562-1.562h1.714c.86 0 1.562.703 1.562 1.562v10.535c0 .86-.702 1.562-1.562 1.562zM32.502 42.13h-1.714c-.86 0-1.562-.704-1.562-1.563V30.032c0-.86.703-1.562 1.562-1.562h1.714c.86 0 1.562.703 1.562 1.562v10.535c0 .86-.702 1.562-1.562 1.562zM42.986 42.13h-1.714c-.86 0-1.562-.704-1.562-1.563V30.032c0-.86.703-1.562 1.562-1.562h1.714c.86 0 1.562.703 1.562 1.562v10.535c0 .86-.702 1.562-1.562 1.562z"/></g></svg>