<?xml version="1.0" encoding="UTF-8" standalone="no"?>
<svg width="344px" height="352px" viewBox="0 0 344 352" version="1.1" xmlns="http://www.w3.org/2000/svg" xmlns:xlink="http://www.w3.org/1999/xlink">
    <!-- Generator: Sketch 39.1 (31720) - http://www.bohemiancoding.com/sketch -->
    <title>Group 14</title>
    <desc>Created with Sketch.</desc>
    <defs>
        <polygon id="path-1" points="171.914683 351.719943 343.829321 351.719943 343.829321 0 171.914683 4.98963389e-14 4.40460963e-05 0 4.40460963e-05 351.719943"></polygon>
    </defs>
    <g id="V1" stroke="none" stroke-width="1" fill="none" fill-rule="evenodd">
        <g id="index" transform="translate(-1051.000000, -1136.000000)">
            <g id="icon__basic_free" transform="translate(1051.000000, 1136.000000)">
                <g id="Group-14">
                    <g id="Page-1">
                        <mask id="mask-2" fill="white">
                            <use xlink:href="#path-1"></use>
                        </mask>
                        <g id="Clip-2"></g>
                        <path d="M301.727686,351.719943 C280.873622,351.719943 263.60491,336.42343 260.600085,316.473337 C260.618584,316.094353 260.389104,314.00237 260.389104,313.6179 C260.389104,311.976221 260.138262,312.469976 260.138262,310.535117 C259.910103,282.18637 241.262088,291.151634 229.585908,297.021387 C207.531588,308.184187 183.312843,314.288748 157.662159,314.288748 C70.5880953,314.288748 4.40460963e-05,243.93247 4.40460963e-05,157.144264 C4.40460963e-05,70.3562775 70.5880953,0 157.662159,0 C244.736223,0 315.324495,70.3562775 315.324495,157.144264 C315.324495,186.299257 307.357878,213.599928 293.47609,237.00323 C283.359803,256.298715 282.819358,268.810672 301.727686,268.810672 C324.698164,268.810672 343.829365,287.370353 343.829365,310.265197 C343.829365,333.160262 324.698164,351.719943 301.727686,351.719943" id="Fill-1" fill="#6639B6" mask="url(#mask-2)"></path>
                    </g>
                    <path d="M88.2468217,155.912351 C90.9664219,149.684861 94.6319149,145.014314 99.2434109,141.900568 C103.854907,138.786823 109.077249,137.229974 114.910594,137.229974 C120.74394,137.229974 125.966282,138.80653 130.577778,141.95969 C135.189274,145.11285 138.854767,149.803104 141.574367,156.030594 C144.293967,162.258085 145.653747,169.78614 145.653747,178.614987 C145.653747,187.522663 144.293967,195.090133 141.574367,201.317623 C138.854767,207.545113 135.189274,212.215661 130.577778,215.329406 C125.966282,218.443151 120.74394,220 114.910594,220 C109.077249,220 103.854907,218.443151 99.2434109,215.329406 C94.6319149,212.215661 90.9664219,207.545113 88.2468217,201.317623 C85.5272215,195.090133 84.1674419,187.522663 84.1674419,178.614987 C84.1674419,169.707311 85.5272215,162.139842 88.2468217,155.912351 L88.2468217,155.912351 Z M135.071008,159.991731 C133.060869,154.907261 130.301895,151.10382 126.794005,148.581292 C123.286115,146.058764 119.325018,144.797519 114.910594,144.797519 C110.496171,144.797519 106.535074,146.058764 103.027183,148.581292 C99.5192934,151.10382 96.7603201,154.907261 94.7501809,159.991731 C92.7400416,165.076201 91.7349871,171.283891 91.7349871,178.614987 C91.7349871,186.024912 92.7400416,192.272016 94.7501809,197.356486 C96.7603201,202.440956 99.5192934,206.22469 103.027183,208.707804 C106.535074,211.190917 110.496171,212.432455 114.910594,212.432455 C119.325018,212.432455 123.286115,211.190917 126.794005,208.707804 C130.301895,206.22469 133.060869,202.440956 135.071008,197.356486 C137.081147,192.272016 138.086202,186.024912 138.086202,178.614987 C138.086202,171.283891 137.081147,165.076201 135.071008,159.991731 L135.071008,159.991731 Z M230.433902,210.895297 C223.102806,216.965129 214.549989,220 204.775194,220 C198.390046,220 192.596202,218.699341 187.393488,216.097984 C182.190775,213.496628 177.874953,209.870549 174.445891,205.219638 C171.01683,200.568728 168.671703,195.208437 167.410439,189.138605 L156.886822,189.138605 L159.724651,183.22646 L166.582739,183.22646 C166.425081,181.176906 166.346253,179.639764 166.346253,178.614987 C166.346253,177.432552 166.425081,175.737754 166.582739,173.530543 L157.832765,173.530543 L160.670594,167.618398 L167.528682,167.618398 C168.868775,161.627395 171.233609,156.345932 174.623256,151.77385 C178.012902,147.201769 182.289311,143.63481 187.45261,141.072868 C192.615909,138.510926 198.390046,137.229974 204.775194,137.229974 C214.234673,137.229974 222.551006,140.107189 229.724444,145.861705 L226.650129,153.192765 C223.575799,150.512579 220.284738,148.443349 216.776848,146.985013 C213.268957,145.526677 209.229032,144.797519 204.656951,144.797519 C197.089368,144.797519 190.743729,146.847042 185.619845,150.94615 C180.495961,155.045257 177.027537,160.602618 175.21447,167.618398 L222.038656,167.618398 L219.31907,173.530543 L174.150284,173.530543 C173.992626,175.737754 173.913798,177.432552 173.913798,178.614987 C173.913798,179.639764 173.992626,181.176906 174.150284,183.22646 L214.82584,183.22646 L212.106253,189.138605 L175.096227,189.138605 C176.830465,196.312043 180.279182,201.987645 185.442481,206.165581 C190.605779,210.343518 197.010539,212.432455 204.656951,212.432455 C209.307861,212.432455 213.446321,211.663884 217.072455,210.126718 C220.698588,208.589553 224.088184,206.441495 227.241344,203.682481 L230.433902,210.895297 Z" id="0€" fill="#F4F4F4"></path>
                    <path d="M109.786667,81.9612403 L122.246512,81.9612403 C123.90192,81.9612403 125.387332,82.3011852 126.702791,82.9810853 C128.018249,83.6609853 129.052864,84.6364794 129.806667,85.9075969 C130.560469,87.1787144 130.937364,88.6567358 130.937364,90.3417054 C130.937364,91.9675533 130.516128,93.4160143 129.673643,94.6871318 C128.831159,95.9582492 127.685692,96.8894027 126.237209,97.4806202 C127.685692,98.0718376 128.831159,99.0029911 129.673643,100.274109 C130.516128,101.545226 130.937364,102.993687 130.937364,104.619535 C130.937364,106.304505 130.560469,107.782526 129.806667,109.053643 C129.052864,110.324761 128.018249,111.300255 126.702791,111.980155 C125.387332,112.660055 123.90192,113 122.246512,113 L109.786667,113 L109.786667,81.9612403 Z M122.60124,96.0617054 C124.167966,96.0617054 125.476015,95.5222276 126.525426,94.4432558 C127.574837,93.364284 128.099535,91.9971142 128.099535,90.3417054 C128.099535,88.6567358 127.574837,87.3117363 126.525426,86.3066667 C125.476015,85.301597 124.049725,84.7990698 122.246512,84.7990698 L112.624496,84.7990698 L112.624496,96.0617054 L122.60124,96.0617054 Z M122.246512,110.162171 C124.049725,110.162171 125.476015,109.659643 126.525426,108.654574 C127.574837,107.649504 128.099535,106.304505 128.099535,104.619535 C128.099535,102.964126 127.574837,101.596956 126.525426,100.517984 C125.476015,99.4390127 124.167966,98.8995349 122.60124,98.8995349 L112.624496,98.8995349 L112.624496,110.162171 L122.246512,110.162171 Z M138.652713,91.6497674 C140.130757,90.7481609 142.096525,90.2973643 144.550078,90.2973643 C150.344008,90.2973643 153.24093,93.0021435 153.24093,98.4117829 L153.24093,113 L150.536124,113 L150.536124,108.743256 C149.826663,110.221299 148.762488,111.374156 147.343566,112.20186 C145.924644,113.029565 144.26926,113.443411 142.377364,113.443411 C140.130738,113.443411 138.334942,112.837422 136.989922,111.625426 C135.644903,110.413431 134.972403,108.787607 134.972403,106.747907 C134.972403,104.856011 135.600562,103.318869 136.856899,102.136434 C138.113236,100.953999 139.849911,100.259329 142.066977,100.052403 L149.383256,99.3429457 C149.797108,99.3133849 150.092712,99.2247036 150.270078,99.0768992 C150.447443,98.9290949 150.536124,98.6926114 150.536124,98.3674419 L150.536124,97.6136434 C150.536124,95.9877955 150.040987,94.7684278 149.050698,93.9555039 C148.060408,93.1425799 146.604557,92.736124 144.683101,92.736124 C142.850327,92.736124 141.379695,93.0908492 140.271163,93.8003101 C139.16263,94.509771 138.46057,95.544386 138.164961,96.904186 L135.726202,95.6182946 C136.199175,93.8742032 137.17467,92.551374 138.652713,91.6497674 L138.652713,91.6497674 Z M142.421705,102.535504 C140.943662,102.683308 139.805585,103.134105 139.007442,103.887907 C138.209298,104.641709 137.810233,105.609813 137.810233,106.792248 C137.810233,108.063366 138.253639,109.06103 139.140465,109.785271 C140.027291,110.509513 141.254049,110.871628 142.820775,110.871628 C144.269258,110.871628 145.577307,110.553853 146.744961,109.918295 C147.912616,109.282736 148.836379,108.403313 149.516279,107.28 C150.196179,106.156687 150.536124,104.900369 150.536124,103.511008 L150.536124,101.648682 L142.421705,102.535504 Z M160.069457,92.0044961 C161.51794,90.8664026 163.528049,90.2973643 166.099845,90.2973643 C167.96218,90.2973643 169.617564,90.6668697 171.066047,91.4058915 C172.514529,92.1449133 173.652606,93.2829897 174.48031,94.820155 L172.218915,96.2834109 C171.686819,95.1600977 170.888687,94.3028453 169.824496,93.7116279 C168.760305,93.1204105 167.474426,92.8248062 165.966822,92.8248062 C164.281852,92.8248062 162.973803,93.1647511 162.042636,93.8446512 C161.111468,94.5245512 160.631111,95.411364 160.60155,96.5051163 C160.60155,97.3623815 160.852814,98.0348813 161.355349,98.5226357 C161.857884,99.01039 162.486043,99.3798954 163.239845,99.6311628 C163.993647,99.8824302 165.153894,100.185425 166.72062,100.540155 C168.582955,100.954007 170.031416,101.360463 171.066047,101.759535 C172.100677,102.158607 172.957929,102.771986 173.637829,103.59969 C174.317729,104.427394 174.657674,105.565471 174.657674,107.013953 C174.657674,109.053654 173.918664,110.649917 172.44062,111.802791 C170.962577,112.955665 168.893347,113.532093 166.232868,113.532093 C164.074925,113.532093 162.160887,113.110857 160.490698,112.268372 C158.820508,111.425887 157.615921,110.176959 156.876899,108.52155 L159.093953,107.058295 C159.685171,108.388534 160.623715,109.378808 161.909612,110.029147 C163.19551,110.679486 164.666142,111.004651 166.32155,111.004651 C168.065642,111.004651 169.432812,110.679486 170.423101,110.029147 C171.41339,109.378808 171.908527,108.432874 171.908527,107.191318 C171.908527,106.274931 171.672044,105.565481 171.19907,105.062946 C170.726096,104.560411 170.127497,104.190906 169.403256,103.954419 C168.679014,103.717932 167.607449,103.437108 166.188527,103.111938 C164.414875,102.727647 162.959024,102.328581 161.82093,101.914729 C160.682837,101.500876 159.744293,100.865327 159.005271,100.008062 C158.26625,99.1507967 157.896744,98.0127203 157.896744,96.5937984 C157.896744,94.6723418 158.620975,93.1425897 160.069457,92.0044961 L160.069457,92.0044961 Z M181.973953,113 L179.269147,113 L179.269147,90.8294574 L181.973953,90.8294574 L181.973953,113 Z M178.847907,85.8854264 C178.389713,85.4272329 178.16062,84.8286342 178.16062,84.0896124 C178.16062,83.3505906 178.389713,82.751992 178.847907,82.2937984 C179.3061,81.8356049 179.904699,81.6065116 180.643721,81.6065116 C181.382743,81.6065116 181.981341,81.8356049 182.439535,82.2937984 C182.897728,82.751992 183.126822,83.3505906 183.126822,84.0896124 C183.126822,84.8286342 182.897728,85.4272329 182.439535,85.8854264 C181.981341,86.3436199 181.382743,86.5727132 180.643721,86.5727132 C179.904699,86.5727132 179.3061,86.3436199 178.847907,85.8854264 L178.847907,85.8854264 Z M187.893488,95.8843411 C188.883778,94.1106888 190.258337,92.7361289 192.017209,91.7606202 C193.776081,90.7851114 195.7788,90.2973643 198.025426,90.2973643 C201.129318,90.2973643 203.715855,91.2728585 205.785116,93.223876 L204.011473,95.3522481 C202.267381,93.7264001 200.227712,92.9134884 197.892403,92.9134884 C196.177873,92.9134884 194.662901,93.2903838 193.347442,94.044186 C192.031983,94.7979883 191.012148,95.8547736 190.287907,97.2145736 C189.563666,98.5743737 189.20155,100.141076 189.20155,101.914729 C189.20155,103.65882 189.563666,105.218133 190.287907,106.592713 C191.012148,107.967294 192.031983,109.031469 193.347442,109.785271 C194.662901,110.539074 196.163092,110.915969 197.848062,110.915969 C199.000936,110.915969 200.124232,110.701656 201.217984,110.273023 C202.311737,109.844391 203.316791,109.216232 204.233178,108.388527 L205.873798,110.516899 C204.839168,111.492408 203.634581,112.238809 202.26,112.756124 C200.885419,113.273439 199.429568,113.532093 197.892403,113.532093 C195.616216,113.532093 193.613497,113.044346 191.884186,112.068837 C190.154875,111.093328 188.809876,109.733549 187.849147,107.989457 C186.888419,106.245366 186.408062,104.235257 186.408062,101.95907 C186.408062,99.6828827 186.903199,97.6579934 187.893488,95.8843411 L187.893488,95.8843411 Z" id="Basic" fill="#F4F4F4"></path>
                </g>
            </g>
        </g>
    </g>
</svg>