<svg width="415" height="350" viewBox="0 0 415 350" xmlns="http://www.w3.org/2000/svg" xmlns:xlink="http://www.w3.org/1999/xlink"><view id="icon__android" viewBox="382.7 36 32 36"/><svg id="aaLayer_1" width="32" height="36" viewBox="-4 -4 32 36" x="382.7" y="36"><style>.aast0{fill:#6639b6}</style><title>78EF61DC-083C-4843-B25B-0F3A09CFB126</title><g id="aaSymbols"><g id="aaapp-download-icons"><g id="aadownload-app"><g id="aaPage-1"><path id="aaFill-1" class="aast0" d="M14.6 5.9c-.4 0-.7-.3-.7-.7s.3-.7.7-.7.7.3.7.7-.3.7-.7.7m-5.2 0c-.4 0-.7-.3-.7-.7s.3-.8.7-.8.7.3.7.7-.3.8-.7.8m6.1-2.8L17.9.4c.1-.1.1-.3 0-.4s-.3 0-.3.1l-2.4 2.8c-.9-.4-1.9-.6-3-.6s-2.1.2-3 .6L6.9.1C6.8 0 6.6 0 6.5 0c-.1.1-.1.2 0 .3L8.7 3C6.6 4 5.1 5.8 4.9 8h14.5c-.2-2.1-1.7-3.9-3.9-4.9"/><path id="aaFill-3" class="aast0" d="M3.5 18.2c0 .9-.7 1.7-1.5 1.7S.5 19.1.5 18.2v-6.9c0-.9.7-1.7 1.5-1.7s1.5.8 1.5 1.7v6.9"/><path id="aaFill-5" class="aast0" d="M5 9.6v11.8c0 .7 0 1.5.7 1.5h1.5v3.7c0 .9 1 1.5 1.9 1.5s1.9-.6 1.9-1.5v-3.7h2.2v3.7c0 .9 1 1.5 1.9 1.5s1.9-.6 1.9-1.5v-3.7h1.5c.7 0 .7-.9.7-1.6V9.6H5z"/><path id="aaFill-7" class="aast0" d="M23.5 18.2c0 .9-.7 1.7-1.5 1.7s-1.5-.8-1.5-1.7v-6.9c0-.9.7-1.7 1.5-1.7s1.5.8 1.5 1.7v6.9z"/></g></g></g></g></svg><view id="icon__android-hover" viewBox="382.7 0 32 36"/><svg id="abLayer_1" width="32" height="36" viewBox="-4 -4 32 36" x="382.7"><style>.abst0{fill:#50c780}</style><title>78EF61DC-083C-4843-B25B-0F3A09CFB126</title><g id="abSymbols"><g id="abapp-download-icons"><g id="abdownload-app"><g id="abPage-1"><path id="abFill-1" class="abst0" d="M14.6 5.9c-.4 0-.7-.3-.7-.7s.3-.7.7-.7.7.3.7.7-.3.7-.7.7m-5.2 0c-.4 0-.7-.3-.7-.7s.3-.8.7-.8.7.3.7.7-.3.8-.7.8m6.1-2.8L17.9.4c.1-.1.1-.3 0-.4s-.3 0-.3.1l-2.4 2.8c-.9-.4-1.9-.6-3-.6s-2.1.2-3 .6L6.9.1C6.8 0 6.6 0 6.5 0c-.1.1-.1.2 0 .3L8.7 3C6.6 4 5.1 5.8 4.9 8h14.5c-.2-2.1-1.7-3.9-3.9-4.9"/><path id="abFill-3" class="abst0" d="M3.5 18.2c0 .9-.7 1.7-1.5 1.7S.5 19.1.5 18.2v-6.9c0-.9.7-1.7 1.5-1.7s1.5.8 1.5 1.7v6.9"/><path id="abFill-5" class="abst0" d="M5 9.6v11.8c0 .7 0 1.5.7 1.5h1.5v3.7c0 .9 1 1.5 1.9 1.5s1.9-.6 1.9-1.5v-3.7h2.2v3.7c0 .9 1 1.5 1.9 1.5s1.9-.6 1.9-1.5v-3.7h1.5c.7 0 .7-.9.7-1.6V9.6H5z"/><path id="abFill-7" class="abst0" d="M23.5 18.2c0 .9-.7 1.7-1.5 1.7s-1.5-.8-1.5-1.7v-6.9c0-.9.7-1.7 1.5-1.7s1.5.8 1.5 1.7v6.9z"/></g></g></g></g></svg><view id="icon__apple" viewBox="382.7 72 32 36"/><svg id="acLayer_1" width="32" height="36" viewBox="-4 -4 32 36" x="382.7" y="72"><style>.acst0{fill:#6639b6}</style><title>02C814A4-3083-45E3-BAF1-11C0E8050B25</title><g id="acSymbols"><g id="acapp-download-icons"><g id="acapple"><path id="acShape" class="acst0" d="M22.9 21.6c-.4 1-.9 1.8-1.5 2.6-.8 1.1-1.4 1.9-1.9 2.3-.7.7-1.5 1-2.4 1.1-.6 0-1.4-.2-2.2-.5-.9-.4-1.7-.5-2.4-.5-.8 0-1.6.2-2.5.5-.9.4-1.6.5-2.1.6-.8 0-1.6-.3-2.5-1.1-.5-.5-1.2-1.2-2-2.4C2.7 23 2 21.6 1.5 20c-.6-1.7-.9-3.4-.9-4.9 0-1.8.4-3.4 1.2-4.7.6-1.1 1.4-1.9 2.5-2.5S6.4 7 7.6 7c.7 0 1.5.2 2.6.6 1.1.4 1.7.6 2 .6.2 0 1-.2 2.3-.7 1.2-.4 2.2-.6 3.1-.6 2.3.2 4 1.1 5.1 2.7-2 1.2-3 3-3 5.2 0 1.7.6 3.2 1.9 4.3.6.5 1.2.9 1.9 1.2-.3.5-.4.9-.6 1.3zM17.7.9c0 1.4-.5 2.6-1.5 3.8C15 6.1 13.6 6.9 12 6.8v-.5c0-1.3.6-2.7 1.6-3.9.5-.6 1.1-1.1 1.9-1.4.8-.4 1.5-.6 2.2-.6v.5z"/></g></g></g></svg><view id="icon__apple-hover" viewBox="382.7 108 32 36"/><svg id="adLayer_1" width="32" height="36" viewBox="-4 -4 32 36" x="382.7" y="108"><style>.adst0{fill:#50c780}</style><title>02C814A4-3083-45E3-BAF1-11C0E8050B25</title><g id="adSymbols"><g id="adapp-download-icons"><g id="adapple"><path id="adShape" class="adst0" d="M22.9 21.6c-.4 1-.9 1.8-1.5 2.6-.8 1.1-1.4 1.9-1.9 2.3-.7.7-1.5 1-2.4 1.1-.6 0-1.4-.2-2.2-.5-.9-.4-1.7-.5-2.4-.5-.8 0-1.6.2-2.5.5-.9.4-1.6.5-2.1.6-.8 0-1.6-.3-2.5-1.1-.5-.5-1.2-1.2-2-2.4C2.7 23 2 21.6 1.5 20c-.6-1.7-.9-3.4-.9-4.9 0-1.8.4-3.4 1.2-4.7.6-1.1 1.4-1.9 2.5-2.5S6.4 7 7.6 7c.7 0 1.5.2 2.6.6 1.1.4 1.7.6 2 .6.2 0 1-.2 2.3-.7 1.2-.4 2.2-.6 3.1-.6 2.3.2 4 1.1 5.1 2.7-2 1.2-3 3-3 5.2 0 1.7.6 3.2 1.9 4.3.6.5 1.2.9 1.9 1.2-.3.5-.4.9-.6 1.3zM17.7.9c0 1.4-.5 2.6-1.5 3.8C15 6.1 13.6 6.9 12 6.8v-.5c0-1.3.6-2.7 1.6-3.9.5-.6 1.1-1.1 1.9-1.4.8-.4 1.5-.6 2.2-.6v.5z"/></g></g></g></svg><view id="icon__appstore" viewBox="0 187 133 41"/><svg width="133" height="41" viewBox="-4 -4 133 41" y="187"><title>1B694606-588F-426A-9CB6-9020FBE7BEB8</title><g fill="#FFF" fill-rule="evenodd"><path d="M20.144 15.257c-.032-3.626 2.99-5.39 3.13-5.472-1.713-2.478-4.367-2.817-5.3-2.844-2.23-.232-4.392 1.325-5.527 1.325-1.158 0-2.907-1.302-4.792-1.263-2.425.037-4.694 1.43-5.94 3.595-2.567 4.414-.65 10.9 1.81 14.467 1.23 1.747 2.67 3.698 4.55 3.63 1.842-.077 2.53-1.167 4.753-1.167 2.202 0 2.848 1.166 4.768 1.122 1.976-.033 3.22-1.756 4.408-3.52 1.423-2 1.994-3.973 2.016-4.075-.046-.015-3.838-1.452-3.876-5.798zM16.518 4.594c.99-1.23 1.668-2.902 1.48-4.6-1.434.063-3.227.984-4.26 2.187-.913 1.06-1.73 2.798-1.518 4.43 1.61.12 3.264-.805 4.298-2.016zM46.798 28.442h-2.574l-1.41-4.398h-4.9l-1.344 4.398h-2.505L38.92 13.47h3l4.878 14.972zm-4.41-6.243l-1.274-3.91c-.135-.4-.388-1.34-.76-2.82h-.046c-.148.636-.387 1.577-.716 2.82L38.34 22.2h4.05zm16.896.712c0 1.835-.5 3.287-1.5 4.352-.895.95-2.007 1.422-3.334 1.422-1.433 0-2.462-.51-3.088-1.532h-.046v5.687H48.9V21.2c0-1.155-.03-2.34-.09-3.554h2.125l.135 1.71h.046c.805-1.29 2.028-1.932 3.67-1.932 1.282 0 2.353.503 3.21 1.51.86 1.008 1.288 2.333 1.288 3.977zM56.822 23c0-1.05-.238-1.918-.716-2.6-.523-.71-1.224-1.066-2.104-1.066-.596 0-1.138.198-1.622.588a2.726 2.726 0 0 0-.95 1.545c-.075.297-.113.54-.113.73v1.8c0 .787.243 1.45.728 1.99s1.115.81 1.89.81c.91 0 1.62-.347 2.125-1.043.508-.696.762-1.614.762-2.755zm14.97-.088c0 1.835-.5 3.287-1.5 4.352-.895.95-2.006 1.422-3.333 1.422-1.434 0-2.463-.51-3.09-1.532h-.044v5.687H61.41V21.2c0-1.155-.03-2.34-.09-3.554h2.125l.135 1.71h.045c.805-1.29 2.028-1.932 3.67-1.932 1.282 0 2.353.503 3.212 1.51.856 1.008 1.285 2.333 1.285 3.977zm-2.46.087c0-1.05-.24-1.918-.72-2.6-.52-.71-1.22-1.066-2.1-1.066-.598 0-1.14.198-1.624.588a2.724 2.724 0 0 0-.95 1.545 3.18 3.18 0 0 0-.112.73v1.8c0 .787.243 1.45.725 1.99.486.54 1.117.81 1.894.81.91 0 1.618-.347 2.125-1.043.507-.696.76-1.614.76-2.755zm16.446 1.243c0 1.274-.446 2.31-1.34 3.11-.983.874-2.35 1.31-4.108 1.31-1.623 0-2.924-.31-3.91-.932l.56-2a6.66 6.66 0 0 0 3.494.958c.91 0 1.618-.205 2.127-.612.507-.407.76-.954.76-1.636 0-.607-.21-1.12-.627-1.534-.416-.415-1.11-.8-2.08-1.158-2.64-.977-3.96-2.41-3.96-4.293 0-1.23.462-2.24 1.388-3.025.924-.786 2.154-1.18 3.693-1.18 1.373 0 2.513.238 3.423.712l-.604 1.955c-.85-.46-1.81-.688-2.887-.688-.85 0-1.514.207-1.99.62-.402.37-.604.822-.604 1.357 0 .59.23 1.08.694 1.466.402.355 1.133.74 2.194 1.155 1.298.518 2.25 1.125 2.864 1.82.61.693.916 1.56.916 2.595zm7.988-4.796h-2.663v5.24c0 1.334.47 2 1.41 2 .432 0 .79-.037 1.073-.11l.067 1.82c-.476.177-1.103.265-1.88.265-.953 0-1.7-.29-2.237-.866-.536-.578-.806-1.548-.806-2.91v-5.442h-1.587v-1.8h1.587v-1.976l2.373-.71v2.686h2.663v1.803zm12.017 3.508c0 1.66-.478 3.022-1.432 4.088-1 1.096-2.33 1.643-3.984 1.643-1.596 0-2.866-.525-3.814-1.576-.947-1.05-1.42-2.377-1.42-3.976 0-1.673.486-3.043 1.464-4.108.976-1.067 2.293-1.6 3.95-1.6 1.595 0 2.88.525 3.848 1.577.927 1.02 1.39 2.338 1.39 3.952zm-2.507.078c0-.996-.214-1.85-.648-2.562-.507-.86-1.23-1.29-2.17-1.29-.97 0-1.708.43-2.215 1.29-.434.715-.648 1.582-.648 2.608 0 .996.214 1.85.648 2.56.523.862 1.252 1.292 2.194 1.292.923 0 1.647-.44 2.17-1.314.445-.726.67-1.588.67-2.583zm10.36-3.277a4.226 4.226 0 0 0-.76-.067c-.85 0-1.508.318-1.97.956-.403.562-.604 1.273-.604 2.132v5.664h-2.415l.022-7.396c0-1.244-.03-2.377-.09-3.398h2.103l.09 2.065h.065c.255-.71.658-1.28 1.21-1.71a2.936 2.936 0 0 1 1.745-.578c.223 0 .425.016.604.044v2.286zm10.807 2.778c0 .43-.028.79-.088 1.087h-7.25c.03 1.068.38 1.884 1.053 2.446.61.503 1.4.755 2.37.755 1.074 0 2.053-.17 2.934-.51l.38 1.665c-1.03.446-2.245.667-3.647.667-1.687 0-3.01-.492-3.974-1.477-.96-.984-1.442-2.306-1.442-3.964 0-1.627.448-2.983 1.345-4.064.938-1.154 2.206-1.73 3.802-1.73 1.567 0 2.754.576 3.56 1.73.638.917.958 2.05.958 3.397zm-2.303-.624c.016-.71-.14-1.325-.47-1.843-.417-.668-1.06-1-1.924-1-.79 0-1.433.325-1.924.977-.402.52-.64 1.14-.715 1.865h5.033zM41.59 4.26c0 1.324-.4 2.32-1.2 2.99-.74.618-1.79.927-3.153.927-.676 0-1.254-.03-1.738-.087V.855a12.914 12.914 0 0 1 2.045-.153c1.297 0 2.276.28 2.935.84.74.633 1.11 1.54 1.11 2.718zm-1.253.033c0-.86-.23-1.517-.686-1.976-.457-.457-1.127-.687-2.007-.687-.374 0-.692.025-.956.076v5.5c.146.023.414.033.802.033.91 0 1.61-.25 2.104-.753.494-.502.743-1.234.743-2.194zm7.893 1.124c0 .815-.235 1.484-.704 2.008-.492.54-1.143.808-1.957.808-.785 0-1.41-.258-1.876-.776-.464-.516-.697-1.167-.697-1.953 0-.82.24-1.495.72-2.018.48-.523 1.126-.785 1.94-.785.784 0 1.415.258 1.892.775.452.502.68 1.15.68 1.942zm-1.232.038c0-.49-.107-.91-.32-1.26-.248-.422-.603-.633-1.064-.633-.477 0-.84.21-1.09.634-.212.35-.317.776-.317 1.28 0 .49.106.91.318 1.26.257.422.615.634 1.078.634.453 0 .81-.215 1.065-.646.22-.357.33-.78.33-1.27zM57.133 2.81l-1.67 5.302h-1.09L53.68 5.81a17.13 17.13 0 0 1-.43-1.714h-.02a12.468 12.468 0 0 1-.43 1.713l-.736 2.302h-1.1l-1.57-5.302h1.22l.603 2.52c.147.597.267 1.165.363 1.703h.022c.088-.443.234-1.008.44-1.69l.76-2.532h.966l.727 2.478c.176.604.318 1.186.428 1.746h.033c.08-.545.202-1.127.363-1.746l.647-2.477h1.166zM63.29 8.11h-1.187V5.075c0-.936-.358-1.404-1.077-1.404-.352 0-.637.13-.858.386-.218.258-.33.562-.33.91V8.11H58.65V4.324c0-.465-.014-.97-.042-1.517h1.044l.055.83h.033c.138-.26.345-.47.615-.64a2.02 2.02 0 0 1 1.077-.3c.5 0 .914.16 1.243.48.41.393.616.98.616 1.758v3.177zm3.276 0H65.38V.375h1.186zm6.993-2.695c0 .815-.236 1.484-.705 2.008-.492.54-1.145.808-1.957.808-.786 0-1.41-.258-1.875-.776-.465-.516-.697-1.167-.697-1.953 0-.82.24-1.495.72-2.018.48-.523 1.126-.785 1.94-.785.784 0 1.413.258 1.892.775.453.502.68 1.15.68 1.942zm-1.234.038c0-.49-.107-.91-.32-1.26-.247-.422-.603-.633-1.063-.633-.478 0-.84.21-1.09.634-.212.35-.318.776-.318 1.28 0 .49.107.91.32 1.26.256.422.614.634 1.077.634.453 0 .808-.215 1.064-.646.22-.357.33-.78.33-1.27zm6.98 2.657h-1.065l-.088-.61h-.033c-.366.486-.886.73-1.56.73-.506 0-.914-.16-1.22-.48a1.5 1.5 0 0 1-.42-1.08c0-.648.273-1.142.82-1.484.547-.342 1.315-.51 2.304-.502v-.098c0-.7-.37-1.048-1.11-1.048-.526 0-.99.132-1.392.393l-.24-.774c.495-.306 1.11-.46 1.83-.46 1.398 0 2.098.732 2.098 2.195v1.953c0 .53.026.95.077 1.264zM78.075 6.29v-.818c-1.31-.023-1.965.334-1.965 1.068 0 .277.074.484.227.623a.834.834 0 0 0 .58.207c.26 0 .504-.083.726-.246a1.004 1.004 0 0 0 .43-.834zm7.982 1.822h-1.054l-.056-.85h-.032c-.337.646-.91.97-1.716.97-.644 0-1.18-.25-1.605-.752-.425-.502-.637-1.153-.637-1.953 0-.86.23-1.554.692-2.085.448-.495.997-.742 1.65-.742.717 0 1.22.24 1.505.72h.022V.376h1.19v6.307c0 .517.013.993.04 1.43zm-1.23-2.236V4.99a1.34 1.34 0 0 0-.462-1.086 1.173 1.173 0 0 0-.796-.288c-.443 0-.79.174-1.045.524-.252.35-.38.796-.38 1.342 0 .524.12.95.365 1.277.257.348.604.522 1.038.522.39 0 .7-.145.938-.437.23-.268.34-.592.34-.97zm11.388-.46c0 .816-.235 1.485-.704 2.01-.492.538-1.142.807-1.957.807-.783 0-1.408-.258-1.875-.776-.464-.516-.697-1.167-.697-1.953 0-.82.24-1.495.72-2.018.48-.523 1.128-.785 1.943-.785.783 0 1.414.258 1.89.775.453.502.68 1.15.68 1.942zm-1.23.04c0-.49-.107-.91-.32-1.26-.25-.423-.603-.634-1.066-.634-.476 0-.838.21-1.09.634-.212.35-.317.776-.317 1.28 0 .49.107.91.32 1.26.256.422.615.634 1.077.634.453 0 .81-.215 1.066-.646.22-.357.33-.78.33-1.27zM102.6 8.11h-1.186V5.075c0-.936-.358-1.404-1.078-1.404-.352 0-.637.13-.857.386-.22.258-.33.562-.33.91V8.11h-1.19V4.324c0-.465-.013-.97-.04-1.517h1.04l.057.83h.033c.14-.26.345-.47.615-.64a2.023 2.023 0 0 1 1.078-.3c.497 0 .912.16 1.242.48.41.393.615.98.615 1.758v3.177zm7.993-4.42h-1.307v2.576c0 .655.232.982.692.982.213 0 .39-.018.53-.055l.03.895c-.234.087-.543.13-.922.13-.47 0-.834-.14-1.098-.424-.266-.283-.397-.76-.397-1.43V3.692h-.78V2.81h.78v-.973l1.165-.35v1.32h1.308v.885zm6.29 4.42h-1.19V5.097c0-.95-.358-1.426-1.076-1.426-.55 0-.927.276-1.133.827a1.47 1.47 0 0 0-.056.425V8.11h-1.185V.375h1.186v3.197h.022c.374-.582.91-.872 1.605-.872.492 0 .898.16 1.22.48.404.4.606.993.606 1.78V8.11zm6.485-2.902c0 .21-.016.39-.045.534h-3.562c.017.524.187.924.517 1.2.3.248.69.372 1.166.372a3.96 3.96 0 0 0 1.44-.25l.187.818c-.507.218-1.103.327-1.793.327-.828 0-1.48-.24-1.95-.725-.475-.483-.71-1.132-.71-1.947 0-.8.22-1.466.66-1.997.46-.566 1.083-.85 1.868-.85.77 0 1.352.284 1.747.85.318.45.476 1.008.476 1.67zm-1.135-.305c.01-.35-.07-.652-.23-.906-.206-.328-.52-.492-.945-.492-.388 0-.704.16-.945.48-.197.255-.314.56-.353.917h2.473z"/></g></svg><view id="icon__appstore-hover" viewBox="133 187 133 41"/><svg width="133" height="41" viewBox="-4 -4 133 41" x="133" y="187"><title>56626EA2-2255-4897-A760-658D9594AEAB</title><g fill-rule="evenodd"><path d="M20.144 15.257c-.032-3.626 2.99-5.39 3.13-5.472-1.713-2.478-4.367-2.817-5.3-2.844-2.23-.232-4.392 1.325-5.527 1.325-1.158 0-2.907-1.302-4.792-1.263-2.425.037-4.694 1.43-5.94 3.595-2.567 4.414-.65 10.9 1.81 14.467 1.23 1.747 2.67 3.698 4.55 3.63 1.842-.077 2.53-1.167 4.753-1.167 2.202 0 2.848 1.166 4.768 1.122 1.976-.033 3.22-1.756 4.408-3.52 1.423-2 1.994-3.973 2.016-4.075-.046-.015-3.838-1.452-3.876-5.798zM16.518 4.594c.99-1.23 1.668-2.902 1.48-4.6-1.434.063-3.227.984-4.26 2.187-.913 1.06-1.73 2.798-1.518 4.43 1.61.12 3.264-.805 4.298-2.016zM46.798 28.442h-2.574l-1.41-4.398h-4.9l-1.344 4.398h-2.505L38.92 13.47h3l4.878 14.972zm-4.41-6.243l-1.274-3.91c-.135-.4-.388-1.34-.76-2.82h-.046c-.148.636-.387 1.577-.716 2.82L38.34 22.2h4.05zm16.896.712c0 1.835-.5 3.287-1.5 4.352-.895.95-2.007 1.422-3.334 1.422-1.433 0-2.462-.51-3.088-1.532h-.046v5.687H48.9V21.2c0-1.155-.03-2.34-.09-3.554h2.125l.135 1.71h.046c.805-1.29 2.028-1.932 3.67-1.932 1.282 0 2.353.503 3.21 1.51.86 1.008 1.288 2.333 1.288 3.977zM56.822 23c0-1.05-.238-1.918-.716-2.6-.523-.71-1.224-1.066-2.104-1.066-.596 0-1.138.198-1.622.588a2.726 2.726 0 0 0-.95 1.545c-.075.297-.113.54-.113.73v1.8c0 .787.243 1.45.728 1.99s1.115.81 1.89.81c.91 0 1.62-.347 2.125-1.043.508-.696.762-1.614.762-2.755zm14.97-.088c0 1.835-.5 3.287-1.5 4.352-.895.95-2.006 1.422-3.333 1.422-1.434 0-2.463-.51-3.09-1.532h-.044v5.687H61.41V21.2c0-1.155-.03-2.34-.09-3.554h2.125l.135 1.71h.045c.805-1.29 2.028-1.932 3.67-1.932 1.282 0 2.353.503 3.212 1.51.856 1.008 1.285 2.333 1.285 3.977zm-2.46.087c0-1.05-.24-1.918-.72-2.6-.52-.71-1.22-1.066-2.1-1.066-.598 0-1.14.198-1.624.588a2.724 2.724 0 0 0-.95 1.545 3.18 3.18 0 0 0-.112.73v1.8c0 .787.243 1.45.725 1.99.486.54 1.117.81 1.894.81.91 0 1.618-.347 2.125-1.043.507-.696.76-1.614.76-2.755zm16.446 1.243c0 1.274-.446 2.31-1.34 3.11-.983.874-2.35 1.31-4.108 1.31-1.623 0-2.924-.31-3.91-.932l.56-2a6.66 6.66 0 0 0 3.494.958c.91 0 1.618-.205 2.127-.612.507-.407.76-.954.76-1.636 0-.607-.21-1.12-.627-1.534-.416-.415-1.11-.8-2.08-1.158-2.64-.977-3.96-2.41-3.96-4.293 0-1.23.462-2.24 1.388-3.025.924-.786 2.154-1.18 3.693-1.18 1.373 0 2.513.238 3.423.712l-.604 1.955c-.85-.46-1.81-.688-2.887-.688-.85 0-1.514.207-1.99.62-.402.37-.604.822-.604 1.357 0 .59.23 1.08.694 1.466.402.355 1.133.74 2.194 1.155 1.298.518 2.25 1.125 2.864 1.82.61.693.916 1.56.916 2.595zm7.988-4.796h-2.663v5.24c0 1.334.47 2 1.41 2 .432 0 .79-.037 1.073-.11l.067 1.82c-.476.177-1.103.265-1.88.265-.953 0-1.7-.29-2.237-.866-.536-.578-.806-1.548-.806-2.91v-5.442h-1.587v-1.8h1.587v-1.976l2.373-.71v2.686h2.663v1.803zm12.017 3.508c0 1.66-.478 3.022-1.432 4.088-1 1.096-2.33 1.643-3.984 1.643-1.596 0-2.866-.525-3.814-1.576-.947-1.05-1.42-2.377-1.42-3.976 0-1.673.486-3.043 1.464-4.108.976-1.067 2.293-1.6 3.95-1.6 1.595 0 2.88.525 3.848 1.577.927 1.02 1.39 2.338 1.39 3.952zm-2.507.078c0-.996-.214-1.85-.648-2.562-.507-.86-1.23-1.29-2.17-1.29-.97 0-1.708.43-2.215 1.29-.434.715-.648 1.582-.648 2.608 0 .996.214 1.85.648 2.56.523.862 1.252 1.292 2.194 1.292.923 0 1.647-.44 2.17-1.314.445-.726.67-1.588.67-2.583zm10.36-3.277a4.226 4.226 0 0 0-.76-.067c-.85 0-1.508.318-1.97.956-.403.562-.604 1.273-.604 2.132v5.664h-2.415l.022-7.396c0-1.244-.03-2.377-.09-3.398h2.103l.09 2.065h.065c.255-.71.658-1.28 1.21-1.71a2.936 2.936 0 0 1 1.745-.578c.223 0 .425.016.604.044v2.286zm10.807 2.778c0 .43-.028.79-.088 1.087h-7.25c.03 1.068.38 1.884 1.053 2.446.61.503 1.4.755 2.37.755 1.074 0 2.053-.17 2.934-.51l.38 1.665c-1.03.446-2.245.667-3.647.667-1.687 0-3.01-.492-3.974-1.477-.96-.984-1.442-2.306-1.442-3.964 0-1.627.448-2.983 1.345-4.064.938-1.154 2.206-1.73 3.802-1.73 1.567 0 2.754.576 3.56 1.73.638.917.958 2.05.958 3.397zm-2.303-.624c.016-.71-.14-1.325-.47-1.843-.417-.668-1.06-1-1.924-1-.79 0-1.433.325-1.924.977-.402.52-.64 1.14-.715 1.865h5.033zM41.59 4.26c0 1.324-.4 2.32-1.2 2.99-.74.618-1.79.927-3.153.927-.676 0-1.254-.03-1.738-.087V.855a12.914 12.914 0 0 1 2.045-.153c1.297 0 2.276.28 2.935.84.74.633 1.11 1.54 1.11 2.718zm-1.253.033c0-.86-.23-1.517-.686-1.976-.457-.457-1.127-.687-2.007-.687-.374 0-.692.025-.956.076v5.5c.146.023.414.033.802.033.91 0 1.61-.25 2.104-.753.494-.502.743-1.234.743-2.194zm7.893 1.124c0 .815-.235 1.484-.704 2.008-.492.54-1.143.808-1.957.808-.785 0-1.41-.258-1.876-.776-.464-.516-.697-1.167-.697-1.953 0-.82.24-1.495.72-2.018.48-.523 1.126-.785 1.94-.785.784 0 1.415.258 1.892.775.452.502.68 1.15.68 1.942zm-1.232.038c0-.49-.107-.91-.32-1.26-.248-.422-.603-.633-1.064-.633-.477 0-.84.21-1.09.634-.212.35-.317.776-.317 1.28 0 .49.106.91.318 1.26.257.422.615.634 1.078.634.453 0 .81-.215 1.065-.646.22-.357.33-.78.33-1.27zM57.133 2.81l-1.67 5.302h-1.09L53.68 5.81a17.13 17.13 0 0 1-.43-1.714h-.02a12.468 12.468 0 0 1-.43 1.713l-.736 2.302h-1.1l-1.57-5.302h1.22l.603 2.52c.147.597.267 1.165.363 1.703h.022c.088-.443.234-1.008.44-1.69l.76-2.532h.966l.727 2.478c.176.604.318 1.186.428 1.746h.033c.08-.545.202-1.127.363-1.746l.647-2.477h1.166zM63.29 8.11h-1.187V5.075c0-.936-.358-1.404-1.077-1.404-.352 0-.637.13-.858.386-.218.258-.33.562-.33.91V8.11H58.65V4.324c0-.465-.014-.97-.042-1.517h1.044l.055.83h.033c.138-.26.345-.47.615-.64a2.02 2.02 0 0 1 1.077-.3c.5 0 .914.16 1.243.48.41.393.616.98.616 1.758v3.177zm3.276 0H65.38V.375h1.186zm6.993-2.695c0 .815-.236 1.484-.705 2.008-.492.54-1.145.808-1.957.808-.786 0-1.41-.258-1.875-.776-.465-.516-.697-1.167-.697-1.953 0-.82.24-1.495.72-2.018.48-.523 1.126-.785 1.94-.785.784 0 1.413.258 1.892.775.453.502.68 1.15.68 1.942zm-1.234.038c0-.49-.107-.91-.32-1.26-.247-.422-.603-.633-1.063-.633-.478 0-.84.21-1.09.634-.212.35-.318.776-.318 1.28 0 .49.107.91.32 1.26.256.422.614.634 1.077.634.453 0 .808-.215 1.064-.646.22-.357.33-.78.33-1.27zm6.98 2.657h-1.065l-.088-.61h-.033c-.366.486-.886.73-1.56.73-.506 0-.914-.16-1.22-.48a1.5 1.5 0 0 1-.42-1.08c0-.648.273-1.142.82-1.484.547-.342 1.315-.51 2.304-.502v-.098c0-.7-.37-1.048-1.11-1.048-.526 0-.99.132-1.392.393l-.24-.774c.495-.306 1.11-.46 1.83-.46 1.398 0 2.098.732 2.098 2.195v1.953c0 .53.026.95.077 1.264zM78.075 6.29v-.818c-1.31-.023-1.965.334-1.965 1.068 0 .277.074.484.227.623a.834.834 0 0 0 .58.207c.26 0 .504-.083.726-.246a1.004 1.004 0 0 0 .43-.834zm7.982 1.822h-1.054l-.056-.85h-.032c-.337.646-.91.97-1.716.97-.644 0-1.18-.25-1.605-.752-.425-.502-.637-1.153-.637-1.953 0-.86.23-1.554.692-2.085.448-.495.997-.742 1.65-.742.717 0 1.22.24 1.505.72h.022V.376h1.19v6.307c0 .517.013.993.04 1.43zm-1.23-2.236V4.99a1.34 1.34 0 0 0-.462-1.086 1.173 1.173 0 0 0-.796-.288c-.443 0-.79.174-1.045.524-.252.35-.38.796-.38 1.342 0 .524.12.95.365 1.277.257.348.604.522 1.038.522.39 0 .7-.145.938-.437.23-.268.34-.592.34-.97zm11.388-.46c0 .816-.235 1.485-.704 2.01-.492.538-1.142.807-1.957.807-.783 0-1.408-.258-1.875-.776-.464-.516-.697-1.167-.697-1.953 0-.82.24-1.495.72-2.018.48-.523 1.128-.785 1.943-.785.783 0 1.414.258 1.89.775.453.502.68 1.15.68 1.942zm-1.23.04c0-.49-.107-.91-.32-1.26-.25-.423-.603-.634-1.066-.634-.476 0-.838.21-1.09.634-.212.35-.317.776-.317 1.28 0 .49.107.91.32 1.26.256.422.615.634 1.077.634.453 0 .81-.215 1.066-.646.22-.357.33-.78.33-1.27zM102.6 8.11h-1.186V5.075c0-.936-.358-1.404-1.078-1.404-.352 0-.637.13-.857.386-.22.258-.33.562-.33.91V8.11h-1.19V4.324c0-.465-.013-.97-.04-1.517h1.04l.057.83h.033c.14-.26.345-.47.615-.64a2.023 2.023 0 0 1 1.078-.3c.497 0 .912.16 1.242.48.41.393.615.98.615 1.758v3.177zm7.993-4.42h-1.307v2.576c0 .655.232.982.692.982.213 0 .39-.018.53-.055l.03.895c-.234.087-.543.13-.922.13-.47 0-.834-.14-1.098-.424-.266-.283-.397-.76-.397-1.43V3.692h-.78V2.81h.78v-.973l1.165-.35v1.32h1.308v.885zm6.29 4.42h-1.19V5.097c0-.95-.358-1.426-1.076-1.426-.55 0-.927.276-1.133.827a1.47 1.47 0 0 0-.056.425V8.11h-1.185V.375h1.186v3.197h.022c.374-.582.91-.872 1.605-.872.492 0 .898.16 1.22.48.404.4.606.993.606 1.78V8.11zm6.485-2.902c0 .21-.016.39-.045.534h-3.562c.017.524.187.924.517 1.2.3.248.69.372 1.166.372a3.96 3.96 0 0 0 1.44-.25l.187.818c-.507.218-1.103.327-1.793.327-.828 0-1.48-.24-1.95-.725-.475-.483-.71-1.132-.71-1.947 0-.8.22-1.466.66-1.997.46-.566 1.083-.85 1.868-.85.77 0 1.352.284 1.747.85.318.45.476 1.008.476 1.67zm-1.135-.305c.01-.35-.07-.652-.23-.906-.206-.328-.52-.492-.945-.492-.388 0-.704.16-.945.48-.197.255-.314.56-.353.917h2.473z"/></g></svg><view id="icon__arrow-bottom-gray" viewBox="294.7 209 26 18"/><svg id="agLayer_1" width="26" height="18" viewBox="-4 -4 26 18" x="294.7" y="209"><style>.agst0{fill:#747474}</style><title>icon__arrow_grey</title><g id="agicons"><g id="agicon__arrow_grey"><path class="agst0" d="M17 .1c-.3 0-.5.1-.7.3L8.4 8.3c-.4.4-.4 1 0 1.4s1 .4 1.4 0l7.9-7.9c.4-.4.4-1 0-1.4-.2-.2-.4-.3-.7-.3z"/><path class="agst0" d="M1.2.1C1 .1.7.2.5.4c-.4.4-.4 1 0 1.4l7.9 7.9c.4.4 1 .4 1.4 0 .4-.4.4-1 0-1.4L1.9.4C1.7.2 1.5.1 1.2.1z"/></g></g></svg><view id="icon__arrow-bottom-white" viewBox="382.7 301 26 18"/><svg id="ahLayer_1" width="26" height="18" viewBox="-4 -4 26 18" x="382.7" y="301"><style>.ahst0{fill:#fff}</style><title>icon__arrow_grey</title><g id="ahicons"><g id="ahicon__arrow_grey"><path class="ahst0" d="M17 .1c-.3 0-.5.1-.7.3L8.4 8.3c-.4.4-.4 1 0 1.4s1 .4 1.4 0l7.9-7.9c.4-.4.4-1 0-1.4-.2-.2-.4-.3-.7-.3z"/><path class="ahst0" d="M1.2.1C1 .1.7.2.5.4c-.4.4-.4 1 0 1.4l7.9 7.9c.4.4 1 .4 1.4 0s.4-1 0-1.4L1.9.4C1.7.2 1.5.1 1.2.1z"/></g></g></svg><view id="icon__arrow-left-primary" viewBox="129 228 18 26"/><svg id="aiLayer_1" width="18" height="26" viewBox="-4 -4 18 26" x="129" y="228"><style>.aist0{fill:#6639b6}</style><title>icon__arrow_white</title><g id="aiicons"><g id="aiicon__arrow_white"><path class="aist0" d="M9.1 17.9c-.3 0-.5-.1-.7-.3L.5 9.8c-.4-.4-.4-1 0-1.4.4-.4 1-.4 1.4 0l7.9 7.8c.4.4.4 1 0 1.4-.2.2-.4.3-.7.3z"/><path class="aist0" d="M1.2 10.1c-.3 0-.5-.1-.7-.3-.4-.4-.4-1 0-1.4L8.4.5c.4-.4 1-.4 1.4 0s.4 1 0 1.4L1.9 9.8c-.2.2-.4.3-.7.3z"/></g></g></svg><view id="icon__arrow-left-white" viewBox="266 187 18 26"/><svg id="ajLayer_1" width="18" height="26" viewBox="-4 -4 18 26" x="266" y="187"><style>.ajst0{fill:#fff}</style><title>icon__arrow_white</title><g id="ajicons"><g id="ajicon__arrow_white"><path class="ajst0" d="M9.1 17.9c-.3 0-.5-.1-.7-.3L.5 9.8c-.4-.4-.4-1 0-1.4.4-.4 1-.4 1.4 0l7.9 7.8c.4.4.4 1 0 1.4-.2.2-.4.3-.7.3z"/><path class="ajst0" d="M1.2 10.1c-.3 0-.5-.1-.7-.3-.4-.4-.4-1 0-1.4L8.4.5c.4-.4 1-.4 1.4 0s.4 1 0 1.4L1.9 9.8c-.2.2-.4.3-.7.3z"/></g></g></svg><view id="icon__arrow-right-primary" viewBox="227 312 18 24"/><svg id="akLayer_1" width="18" height="24" viewBox="-4 -4 18 24" x="227" y="312"><style>.akst0{fill:#6639b6}</style><title>icon__check</title><g id="akPage-1"><g id="akicon__arrow"><path id="akicon__check" class="akst0" d="M1.6 15.8l7.6-7L10 8l-.8-.8-7.6-7C1.2-.2.6-.1.3.3S0 1.3.4 1.7l7.6 7V7.2l-7.6 7c-.4.4-.4 1-.1 1.4s.9.5 1.3.2z"/></g></g></svg><view id="icon__arrow-right-white" viewBox="245 312 18 24"/><svg width="18" height="24" viewBox="-4 -4 18 24" x="245" y="312"><title>icon__check</title><path d="M1.577 15.753l7.605-7L10 8l-.818-.753-7.605-7A.918.918 0 0 0 .235.34a1.036 1.036 0 0 0 .09 1.413l7.605 7V7.247l-7.605 7a1.036 1.036 0 0 0-.09 1.412.918.918 0 0 0 1.342.093z" fill="#FFF" fill-rule="evenodd"/></svg><view id="icon__arrow-up-gray" viewBox="382.7 319 26 18"/><svg id="amLayer_1" width="26" height="18" viewBox="-4 -4 26 18" x="382.7" y="319"><style>.amst0{fill:#747474}</style><title>icon__arrow_grey</title><g id="amicons"><g id="amicon__arrow_grey"><path class="amst0" d="M17 10c-.3 0-.5-.1-.7-.3L8.4 1.8C8 1.4 8 .8 8.4.4s1-.4 1.4 0l7.9 7.9c.4.4.4 1 0 1.4-.2.2-.4.3-.7.3z"/><path class="amst0" d="M1.2 10c-.2 0-.5-.1-.7-.3-.4-.4-.4-1 0-1.4L8.4.4c.4-.4 1-.4 1.4 0 .4.4.4 1 0 1.4L1.9 9.7c-.2.2-.4.3-.7.3z"/></g></g></svg><view id="icon__arrow-up-white" viewBox="382.7 283 26 18"/><svg id="anLayer_1" width="26" height="18" viewBox="-4 -4 26 18" x="382.7" y="283"><style>.anst0{fill:#fff}</style><title>icon__arrow_grey</title><g id="anicons"><g id="anicon__arrow_grey"><path class="anst0" d="M17 10c-.3 0-.5-.1-.7-.3L8.4 1.8C8 1.4 8 .8 8.4.4s1-.4 1.4 0l7.9 7.9c.4.4.4 1 0 1.4-.2.2-.4.3-.7.3z"/><path class="anst0" d="M1.2 10c-.2 0-.5-.1-.7-.3-.4-.4-.4-1 0-1.4L8.4.4c.4-.4 1-.4 1.4 0s.4 1 0 1.4L1.9 9.7c-.2.2-.4.3-.7.3z"/></g></g></svg><view id="icon__attatchment" viewBox="112 267 30 42"/><svg width="30" height="42" viewBox="-4 -4 30 42" x="112" y="267"><title>204ED595-E923-4BAA-9C28-9B4B98FF06F8</title><path d="M21 1.314V23c0 5.523-4.48 10-9.996 10C5.48 33 1 28.523 1 23V6a5 5 0 0 1 10 0v17" stroke="#FFF" stroke-width="2" fill="none" fill-rule="evenodd" stroke-linecap="round" stroke-linejoin="round"/></svg><view id="icon__backto-blog" viewBox="294.7 102 74 74"/><svg width="74" height="74" viewBox="-4 -4 74 74" x="294.7" y="102"><title>icon__backto-blog</title><g stroke="#6639B6" stroke-width="2" fill="none" fill-rule="evenodd"><circle cx="33" cy="33" r="32"/><circle cx="23" cy="22" r="3"/><circle cx="23" cy="44" r="3"/><circle cx="23" cy="33" r="3"/><path d="M31 22h15M31 44h15M31 33h15" stroke-linecap="round"/></g></svg><view id="icon__camera" viewBox="0 228 46 39"/><svg width="46" height="39" viewBox="-4 -4 46 39" y="228"><title>BEDC4F56-4B3F-4A99-B61A-EE7C35AA28F8</title><g stroke="#6639B6" stroke-width="2" fill="none" fill-rule="evenodd" stroke-linecap="round"><path d="M5.5 5H4.167C2.46 5 1 6.132 1 7.724V27.01C1 28.6 2.46 30 4.167 30h29.667C35.538 30 37 28.6 37 27.01V7.723C37 6.132 35.54 5 33.834 5H14.5"/><path d="M21.5 17.75a6.75 6.75 0 1 1-13.5 0 6.75 6.75 0 0 1 13.5 0zM5 5V3.667C5 2.377 6.473 1 8 1h3c1.527 0 3 1.376 3 2.667V5m14 6h3m-3-8h4"/></g></svg><view id="icon__category" viewBox="142 267 40 40"/><svg width="40" height="40" viewBox="-4 -4 40 40" x="142" y="267"><title>icon__category</title><path d="M7.65 25H4c-1.65 0-3-1.35-3-3V4c0-1.65 1.35-3 3-3h24c1.65 0 3 1.35 3 3v18c0 1.65-1.35 3-3 3H15a1.6 1.6 0 0 0-1.23.576l-4.314 5.178a.116.116 0 0 1-.205-.075V26.6c0-.883-.716-1.6-1.6-1.6zM8 9h6m-6 8h6m-6-4h12" stroke="#6639B6" stroke-width="2" fill="none" fill-rule="evenodd" stroke-linecap="round"/></svg><view id="icon__category-white" viewBox="182 267 40 40"/><svg width="40" height="40" viewBox="-4 -4 40 40" x="182" y="267"><title>icon__category_white</title><path d="M7.65 25H4c-1.65 0-3-1.35-3-3V4c0-1.65 1.35-3 3-3h24c1.65 0 3 1.35 3 3v18c0 1.65-1.35 3-3 3H15a1.6 1.6 0 0 0-1.23.576l-4.314 5.178a.116.116 0 0 1-.205-.075V26.6c0-.883-.716-1.6-1.6-1.6zM8 9h6m-6 8h6m-6-4h12" stroke="#FFF" stroke-width="2" fill="none" fill-rule="evenodd" stroke-linecap="round"/></svg><view id="icon__check" viewBox="382.7 261 27 22"/><svg width="27" height="22" viewBox="-4 -4 27 22" x="382.7" y="261"><title>1EFEDE1A-9B96-4F6B-B8C5-4707666312A9</title><path d="M1 6.5l6 6 11-11" stroke-width="1.5" stroke="#50C780" fill="none" fill-rule="evenodd" stroke-linecap="round" stroke-linejoin="round"/></svg><view id="icon__check-purple" viewBox="171 228 24 20"/><svg width="24" height="20" viewBox="-4 -4 24 20" x="171" y="228"><title>14088BE9-573C-4466-A09F-65BC9C45E304</title><path d="M1 6.17l4.42 4.42L15.01 1" stroke-width="2" stroke="#6639B6" fill="none" fill-rule="evenodd"/></svg><view id="icon__check-white" viewBox="147 228 24 20"/><svg width="24" height="20" viewBox="-4 -4 24 20" x="147" y="228"><title>4A8D0AA5-DBE1-4F32-B2EF-1590ACA93B1B</title><path d="M1 6.17l4.42 4.42L15.01 1" stroke-width="2" stroke="#FFF" fill="none" fill-rule="evenodd"/></svg><view id="icon__check-white-lg" viewBox="88 228 41 30"/><svg id="awLayer_1" width="41" height="30" viewBox="-4 -4 41 30" x="88" y="228"><style>.st0{fill:#feebb6}.st1{fill:#dcd5ef}.st2{fill:#ffc100}.st3{fill:#ffcdd2}.st4{fill:#d1c5e8}.st5{fill:#fffaee}.st6,.st7,.st8,.awst9{fill:none;stroke:#6639b6;stroke-width:2;stroke-linecap:round;stroke-miterlimit:10}.st7,.st8,.awst9{stroke:#ffc100}.st8,.awst9{stroke:#6639b6;stroke-linejoin:round}.awst9{stroke:#fff;stroke-width:2.5}</style><path class="awst9" d="M1 10l11 11L32 1"/></svg><view id="icon__close" viewBox="340 267 38 38"/><svg id="axLayer_1" width="38" height="38" viewBox="-4 -4 38 38" x="340" y="267"><style>.axst0{fill:#fff}</style><title>icon__</title><path class="axst0" d="M24 24.8c-.3 0-.5-.1-.7-.3l-18-18c-.4-.4-.4-1 0-1.4s1-.4 1.4 0l18 18c.4.4.4 1 0 1.4-.2.2-.4.3-.7.3z"/><path class="axst0" d="M6 24.8c-.3 0-.5-.1-.7-.3-.4-.4-.4-1 0-1.4l18-18c.4-.4 1-.4 1.4 0s.4 1 0 1.4l-18 18c-.2.2-.4.3-.7.3z"/></svg><view id="icon__cta_1" viewBox="0 0 87.2 146"/><svg id="ayLayer_1" width="87.2" height="146" viewBox="-4 -4 87.2 146"><style>.ayst0{fill:#feebb6}.ayst1{fill:#dcd5ef}.ayst2{fill:#ffc100}.ayst3{fill:#ffcdd2}.ayst4{fill:#d1c5e8}.ayst5{fill:#fffaee}.ayst6,.st7,.st8{fill:none;stroke:#6639b6;stroke-width:2;stroke-linecap:round;stroke-miterlimit:10}.st7,.st8{stroke:#ffc100}.st8{stroke:#6639b6;stroke-linejoin:round}</style><g id="ayXMLID_3_"><path class="ayst0" d="M73 79.2c3.3 5.7 5.2 12.3 5.2 19.3s-1.9 13.6-5.2 19.3l-3.2-1.9-.9-.5c2.9-5 4.5-10.8 4.5-17s-1.7-12-4.5-17l.9-.5 3.2-1.7z"/><path class="ayst0" d="M58.6 64.9c2.1 1.2 4.1 2.6 6 4.2 3.4 2.9 6.2 6.3 8.5 10.1L69.8 81l-.8.5c-5.9-10.1-16.8-17-29.4-17v-4.7c6.9.1 13.4 1.9 19 5.1zM52 130.1c7.2-2.8 13.2-8 17-14.6l.9.5 3.2 1.9c-6.7 11.5-19.2 19.3-33.4 19.3v-4.7c4.3-.1 8.4-.9 12.3-2.4z"/><path class="ayst1" d="M69 81.5c2.9 5 4.5 10.8 4.5 17s-1.7 12-4.5 17c-3.8 6.6-9.8 11.8-17 14.6 26.1-53-17.4-50.7-22.8-63.9 3.3-1.1 6.8-1.6 10.4-1.6 12.6 0 23.5 6.8 29.4 16.9z"/><path class="ayst2" d="M64.6 47v22c-1.8-1.6-3.8-3-6-4.2V47h6z"/><path class="ayst3" d="M64.6 46.5v.5h-6v-6h6v.1zm0-10.7V41h-6v-6h6z"/><path class="ayst2" d="M64.6 26v9h-6v-9c0-10.4-8.6-18.7-19-18.7s-19 8.3-19 18.7v38l.4.7c-2.3 1.2-4.4 2.7-6.3 4.4V26C14.7 12.1 25.8.9 39.7.9S64.6 12.1 64.6 26z"/><path class="ayst4" d="M29.2 66.2c5.4 13.1 48.9 10.9 22.8 63.9-3.8 1.5-8 2.3-12.4 2.3-12.5 0-23.5-6.8-29.4-17-2.9-5-4.5-10.8-4.5-17s1.7-12 4.5-17c4.2-7.1 10.9-12.6 19-15.2zm22.1 34.5c.6-.9.6-2 0-2.9l-4.5-7.3c-.5-.9-1.6-1.4-2.7-1.4h-9c-1.1 0-2.1.6-2.7 1.4l-4.5 7.3c-.6.9-.5 2 0 2.9l4.5 6.9c.6.9 1.6 1.4 2.6 1.4h9.1c1.1 0 2.1-.5 2.6-1.4l4.6-6.9z"/><path class="ayst5" d="M51.3 97.8c.6.9.5 2 0 2.9l-4.5 6.9c-.6.9-1.6 1.4-2.6 1.4h-9.1c-1.1 0-2.1-.5-2.6-1.4l-4.5-6.9c-.6-.9-.6-2 0-2.9l4.5-7.3c.5-.9 1.5-1.5 2.6-1.5h9c1.1 0 2.1.6 2.7 1.4l4.5 7.4z"/><path class="ayst0" d="M39.6 133.3v3.8c-14.3 0-26.8-7.8-33.4-19.3l3.2-1.9.9-.5c5.9 10.1 16.8 17 29.4 17v.9zM29.2 66.2c-8.1 2.6-14.8 8.1-19 15.3l-.8-.5-3.2-1.9c2.2-3.8 5.1-7.3 8.5-10.1 2-1.7 4.1-3.1 6.3-4.4 5.5-3.1 11.9-4.8 18.6-4.8v4.7c-3.6.1-7.1.6-10.4 1.7z"/><path class="ayst0" d="M9.4 81l.9.5c-2.9 5-4.5 10.8-4.5 17s1.7 12 4.5 17l-.9.5-3.2 1.9C2.9 112.1 1 105.5 1 98.5s1.9-13.6 5.2-19.3L9.4 81z"/><path class="ayst6" d="M20.6 26c0-10.4 8.6-18.7 19-18.7s19 8.3 19 18.7"/><path class="ayst6" d="M14.6 26C14.6 12.1 25.7.9 39.6.9s25 11.2 25 25.1m-50 43V26m6 38V26m38 0v39m6 4V26M73 79.2c-2.2-3.8-5.1-7.3-8.5-10.1-1.8-1.6-3.8-3-6-4.2-5.6-3.2-12.1-5-19-5-6.8 0-13.1 1.7-18.6 4.8-2.3 1.2-4.4 2.7-6.3 4.4-3.4 2.9-6.2 6.3-8.5 10.1C2.9 84.9 1 91.5 1 98.5s1.9 13.6 5.2 19.3c6.7 11.5 19.2 19.3 33.4 19.3s26.8-7.8 33.4-19.3c3.3-5.7 5.2-12.3 5.2-19.3S76.3 84.9 73 79.2z"/><path class="ayst6" d="M69 115.4c-3.8 6.6-9.8 11.8-17 14.6-3.8 1.5-8 2.3-12.4 2.3-12.5 0-23.5-6.8-29.4-17-2.9-5-4.5-10.8-4.5-17s1.7-12 4.5-17c4.2-7.2 10.9-12.7 19-15.3 3.3-1.1 6.8-1.6 10.4-1.6 12.6 0 23.5 6.8 29.4 17 2.9 5 4.5 10.8 4.5 17s-1.6 12.1-4.5 17zM58.6 35h6m-6 6h6m-6 6h6"/><path class="ayst6" d="M32.4 107.6l-4.5-6.9c-.6-.9-.6-2 0-2.9l4.5-7.3c.6-.9 1.6-1.5 2.7-1.5h9c1.1 0 2.1.6 2.7 1.4l4.5 7.3c.6.9.5 2 0 2.9l-4.5 6.9c-.6.9-1.6 1.4-2.6 1.4h-9.1c-1.1.1-2.1-.5-2.7-1.3zm17.7-32.3c8.8 4 14.9 12.9 14.9 23.2m-44.2 17.1c-4.1-4.5-6.7-10.5-6.7-17.2m25.5 25.5c-2.9 0-5.7-.5-8.2-1.4"/></g></svg><view id="icon__cta_2" viewBox="212.7 0 82 146"/><svg id="azLayer_1" width="82" height="146" viewBox="-4 -4 82 146" x="212.7"><style>.azst0{fill:#feebb6}.azst1{fill:#dcd5ef}.azst2{fill:#ffc100}.azst3{fill:#ffcdd2}.azst4{fill:#d1c5e8}.azst5{fill:#fffaee}.azst6,.st7,.azst8{fill:none;stroke:#6639b6;stroke-width:2;stroke-linecap:round;stroke-miterlimit:10}.st7,.azst8{stroke:#ffc100}.azst8{stroke:#6639b6;stroke-linejoin:round}</style><g id="azXMLID_2_"><path class="azst3" d="M47.2 42l-.2.6V42z"/><path class="azst5" d="M68 19v90c0 1.7-1.3 3-3 3H22l7.6-21h26.3c1.3 0 2.1-1.7 2.1-3V44c0-1.3-.8-2-2.1-2h-8.7l9.4-26H65c1.7 0 3 1.4 3 3z"/><path class="azst2" d="M58 88c0 1.3-.8 3-2.1 3H29.6l1.1-3h25.2c1.3 0 2.1-1.9 2.1-3.2V88z"/><path class="azst3" d="M46 45.4L43.6 52H16v-8c0-1.3.9-2 2.1-2H27v2c0 .9.7 1.6 1.6 1.6h.9c.9 0 1.6-.7 1.6-1.6v-2h12v2c0 .9.7 1.6 1.6 1.6h.9c0-.1.2-.1.4-.2z"/><path class="azst0" d="M36.4 72l-4.7 13H18.1c-1.3 0-2.1-2-2.1-3.3V52h27.6l-7.2 20z"/><path class="azst2" d="M16 81.7c0 1.3.9 3.3 2.1 3.3h13.6l-1.1 3H18.1c-1.3 0-2.1-1.9-2.1-3.2v-3.1z"/><path class="azst2" d="M55.9 85c1.3 0 2.1-2 2.1-3.3v3.1c0 1.3-.8 3.2-2.1 3.2H30.6l1.1-3h24.2z"/><path class="azst0" d="M36.4 72l7.2-20H58v29.7c0 1.3-.8 3.3-2.1 3.3H31.7l4.7-13z"/><path class="azst4" d="M13 137H4c-1.7 0-3-1.4-3-3V4c0-1.7 1.3-3 3-3h58l-5.4 15H9c-1.7 0-3 1.4-3 3v90c0 1.7 1.3 3 3 3h13l-9 25z"/><path class="azst2" d="M47 42.6V44c0 .7-.4 1.2-1 1.5l1-2.9z"/><path class="azst5" d="M9 16h47.6l-9.4 26H47v-2.9c0-.9-.7-1.6-1.6-1.6h-.9c-.9 0-1.6.7-1.6 1.6V42H31v-2.9c0-.9-.7-1.6-1.6-1.6h-.9c-.9 0-1.6.7-1.6 1.6V42H18c-1.3 0-2.1.7-2.1 2v44c0 1.3.9 3 2.1 3h11.4L22 112H9c-1.7 0-3-1.3-3-3V19c0-1.6 1.3-3 3-3z"/><path class="azst3" d="M58 51.8v.2H43.6l2.4-6.6c.6-.2 1-.8 1-1.5v-1.3l.2-.6h8.7c1.3 0 2.1.7 2.1 2v7.8z"/><path class="azst2" d="M29.6 91H18.1c-1.3 0-2.1-1.7-2.1-3v-3.1c0 1.3.9 3.2 2.1 3.2h12.5l-1 2.9z"/><path class="azst1" d="M73 4v130c0 1.6-1.3 3-3 3H13l9-25h43c1.7 0 3-1.3 3-3V19c0-1.6-1.3-3-3-3h-8.4L62 1h8c1.7 0 3 1.3 3 3zM42 124c0-2.8-2.2-5-5-5s-5 2.2-5 5 2.2 5 5 5 5-2.2 5-5z"/><path class="azst2" d="M45.4 45.5h-.9c-.9 0-1.6-.7-1.6-1.6V39c0-.9.7-1.6 1.6-1.6h.9c.9 0 1.6.7 1.6 1.6v3.6l-1 2.8c-.2.1-.4.1-.6.1zM31 42v2c0 .9-.7 1.6-1.6 1.6h-.9c-.9 0-1.6-.7-1.6-1.6v-4.9c0-.9.7-1.6 1.6-1.6h.9c.9 0 1.6.7 1.6 1.6V42z"/><circle class="azst5" cx="37" cy="124" r="5"/><path class="azst6" d="M13 137H4c-1.7 0-3-1.4-3-3V4c0-1.7 1.3-3 3-3h66c1.7 0 3 1.3 3 3v130c0 1.6-1.3 3-3 3H13zM30.5 9h24m-29 0h-6"/><circle class="azst6" cx="37" cy="124" r="5"/><path class="azst6" d="M43 42H31m-15 6v-4c0-1.3.9-2 2.1-2H27m31 39.7c0 1.3-.8 3.3-2.1 3.3H18.1c-1.3 0-2.1-2-2.1-3.3M47 42h8.9c1.3 0 2.1.7 2.1 2v4m0 4v-4"/><path class="azst6" d="M16 84.8c0 1.3.9 3.2 2.1 3.2h37.7c1.3 0 2.1-1.9 2.1-3.2M16 48v4"/><path class="azst6" d="M16 52v36c0 1.3.9 3 2.1 3h37.7c1.3 0 2.1-1.7 2.1-3V52M16 52h42M31 42v2c0 .9-.7 1.6-1.6 1.6h-.9c-.9 0-1.6-.7-1.6-1.6v-4.9c0-.9.7-1.6 1.6-1.6h.9c.9 0 1.6.7 1.6 1.6V42zm15 3.4c-.2.1-.4.1-.6.1h-.9c-.9 0-1.6-.7-1.6-1.6V39c0-.9.7-1.6 1.6-1.6h.9c.9 0 1.6.7 1.6 1.6v5c0 .6-.4 1.2-1 1.4z"/><path class="azst8" d="M29.2 68.5l5.4 5.3 1.8-1.8 8.1-8"/><path class="azst8" d="M56.6 16H65c1.7 0 3 1.4 3 3v90c0 1.7-1.3 3-3 3H9c-1.7 0-3-1.3-3-3V19c0-1.6 1.3-3 3-3h47.6z"/></g></svg><view id="icon__cta_3" viewBox="87.2 0 125.5 146"/><svg id="baLayer_1" width="125.5" height="146" viewBox="-4 -4 125.5 146" x="87.2"><style>.st0{fill:#feebb6}.bast1{fill:#dcd5ef}.st2{fill:#ffc100}.st3{fill:#ffcdd2}.bast4{fill:#d1c5e8}.st5{fill:#fffaee}.bast6,.bast7,.st8{fill:none;stroke:#6639b6;stroke-width:2;stroke-linecap:round;stroke-miterlimit:10}.bast7,.st8{stroke:#ffc100}.st8{stroke:#6639b6;stroke-linejoin:round}</style><path class="bast6" d="M58.9 69.3l-.3-.6"/><path class="bast7" d="M58.8 69V10.3M47.1 37l-8.4-23.1m11 30.1l-.4-1m9.5 26l-9.1-25M25.8 29.7l-4.7-5.6M58.8 69L31.1 36m27.7 33L8 39.7M58.8 69L1 58.8m5.8 19.4l-5.8 1M58.8 69l-44 7.8M20.7 91L8 98.3M58.8 69l-33 19.1m-2 22.6l-2.7 3.2M58.8 69l-33 39.3m33-39.3l-20.1 55.1M58.8 69v58.7M75.1 114l3.7 10.1M58.8 69l12.3 34M58.8 69l32.7 39M58.8 69l50.8 29.3m-.8-20.5l7.7 1.4M58.8 69l45 7.9m3-16.4l9.7-1.7M58.8 69l38-6.7m1-15.8l11.8-6.8M58.8 69l34.6-20m-1.9-19l5-5.9M58.8 69l30-35.8M58.8 69l20-55.1"/><g id="baXMLID_1_"><path class="bast4" d="M98.4 86.7c.5 1.3-.5 2.6-1.8 2.6l-35.9-8.1c-1.1 0-1.7.7-1.7 1.8v48.8h-.3L29.5 62.3c-.5-1.3.4-2.6 1.8-2.6l35.8 8.1c1.1 0 1.9-3.8 1.9-4.9V19l.6-.2 28.8 67.9z"/><path class="bast1" d="M48 119.3l-28.9-68c-.5-1.3.5-2.6 1.8-2.6l35.9 8.1c1.1 0 2.2-3.8 2.2-4.9V3c0-2.2 2.8-2.8 3.5-.7l7 16.5-.5.2v43.9c0 1.1-.9 4.9-1.9 4.9l-35.8-8.1c-1.4 0-2.2 1.4-1.8 2.6l29.2 69.5h.3v3.2c0 2.2-3.3 2.9-4 .9l-7-16.6z"/><path class="bast6" d="M59 131.8v3.2c0 2.2-3.3 2.9-4 .9l-7-16.5-28.9-68c-.5-1.3.5-2.6 1.8-2.6l35.9 8.1c1.1 0 2.2-3.8 2.2-4.9V3c0-2.2 2.8-2.8 3.5-.7l7 16.5 28.9 68c.5 1.3-.5 2.6-1.8 2.6l-35.9-8.1c-1.1 0-1.7.7-1.7 1.8v48.7zM48 120v-1m28-40l9 2M31 56l9 2"/></g></svg><view id="icon__cta_3_sm" viewBox="294.7 0 88 102"/><svg id="bbLayer_1" width="88" height="102" viewBox="-4 -4 88 102" x="294.7"><style>.bbst0,.bbst1{fill:none;stroke:#6639b6;stroke-width:2;stroke-linecap:round;stroke-miterlimit:10}.bbst1{stroke:#ffc100}.bbst2{fill:#d1c5e8}.bbst3{fill:#dcd5ef}</style><path class="bbst0" d="M40.1 47.2l-.2-.4"/><path class="bbst1" d="M40 47V6.3m-8.1 18.5l-5.8-16m7.6 20.9l-.2-.7M40 47l-6.3-17.3m-16.5-9.9l-3.3-3.9M40 47L20.8 24.1M40 47L4.8 26.7M40 47L0 39.9m4 13.5l-4 .7M40 47L9.6 52.4m4 9.8l-8.8 5.1M40 47L17.2 60.2m-1.4 15.7l-1.9 2.2M40 47L17.2 74.2M40 47L26.1 85.2M40 47v40.6m11.3-9.4l2.6 7M40 47l8.6 23.5M40 47l22.7 27M40 47l35.2 20.3m-.5-14.2l5.3 1M40 47l31.2 5.5m2.1-11.4l6.7-1.2M40 47l26.4-4.6m.6-11l8.2-4.7M40 47l24-13.9M62.7 20l3.4-4.1M40 47l20.8-24.8M40 47L53.9 8.8"/><g id="bbXMLID_1_"><path class="bbst2" d="M67.5 59.3c.3.9-.3 1.8-1.2 1.8l-24.9-5.6c-.8 0-1.2.5-1.2 1.2v33.8H40L19.7 42.4c-.3-.9.3-1.8 1.2-1.8l24.8 5.6c.8 0 1.3-2.6 1.3-3.4V12.4l.4-.1 20.1 47z"/><path class="bbst3" d="M32.6 81.8l-20-47.1c-.3-.9.3-1.8 1.2-1.8l24.9 5.6c.8 0 1.5-2.6 1.5-3.4V1.3c0-1.5 1.9-1.9 2.4-.5l4.8 11.4-.3.1v30.4c0 .8-.6 3.4-1.3 3.4L21 40.5c-1 0-1.5 1-1.2 1.8L40 90.5h.2v2.2c0 1.5-2.3 2-2.8.6l-4.8-11.5z"/><path class="bbst0" d="M40.2 90.5v2.2c0 1.5-2.3 2-2.8.6l-4.8-11.4-20-47.1c-.3-.9.3-1.8 1.2-1.8l24.9 5.6c.8 0 1.5-2.6 1.5-3.4V1.3c0-1.5 1.9-1.9 2.4-.5l4.8 11.4 20 47.1c.3.9-.3 1.8-1.2 1.8l-24.9-5.6c-.8 0-1.2.5-1.2 1.2.1.1.1 33.8.1 33.8zm-7.6-8.2v-.7m19.3-27.7l6.3 1.4M20.8 38l6.2 1.4"/></g></svg><view id="icon__date" viewBox="262 267 40 40"/><svg width="40" height="40" viewBox="-4 -4 40 40" x="262" y="267"><title>icon__date</title><g stroke="#6639B6" stroke-width="2" fill="none" fill-rule="evenodd" stroke-linecap="round"><path d="M21 5H11m14 0h3c1.65 0 3 1.35 3 3v20c0 1.65-1.35 3-3 3H4c-1.65 0-3-1.35-3-3V8c0-1.65 1.35-3 3-3h3"/><path d="M10 7H8c-.55 0-1-.45-1-1V2c0-.55.45-1 1-1h2c.55 0 1 .45 1 1v4c0 .55-.45 1-1 1zm14 0h-2c-.55 0-1-.45-1-1V2c0-.55.45-1 1-1h2c.55 0 1 .45 1 1v4c0 .55-.45 1-1 1zM1 10.998L31.02 11M8.917 19H7.084A1.087 1.087 0 0 1 6 17.916v-1.832C6 15.488 6.487 15 7.084 15h1.832c.596 0 1.084.488 1.084 1.084v1.832C10 18.512 9.512 19 8.916 19zm8 .08h-1.832A1.087 1.087 0 0 1 14 17.998v-1.832c0-.596.487-1.084 1.084-1.084h1.832c.596 0 1.084.49 1.084 1.085v1.832c0 .596-.488 1.084-1.084 1.084zm8 0h-1.832A1.087 1.087 0 0 1 22 17.998v-1.832c0-.596.487-1.084 1.084-1.084h1.832c.596 0 1.084.49 1.084 1.085v1.832c0 .596-.488 1.084-1.084 1.084zm-16 8H7.084A1.087 1.087 0 0 1 6 25.998v-1.832c0-.596.487-1.084 1.084-1.084h1.832c.596 0 1.084.49 1.084 1.085v1.832c0 .596-.488 1.084-1.084 1.084zm8-.08h-1.832A1.087 1.087 0 0 1 14 25.916v-1.832c0-.596.487-1.084 1.084-1.084h1.832c.596 0 1.084.488 1.084 1.084v1.832c0 .596-.488 1.084-1.084 1.084zm8 0h-1.832A1.087 1.087 0 0 1 22 25.916v-1.832c0-.596.487-1.084 1.084-1.084h1.832c.596 0 1.084.488 1.084 1.084v1.832c0 .596-.488 1.084-1.084 1.084z"/></g></svg><view id="icon__date-white" viewBox="222 267 40 40"/><svg width="40" height="40" viewBox="-4 -4 40 40" x="222" y="267"><title>icon__date_white</title><g stroke="#FFF" stroke-width="2" fill="none" fill-rule="evenodd" stroke-linecap="round"><path d="M21 5H11m14 0h3c1.65 0 3 1.35 3 3v20c0 1.65-1.35 3-3 3H4c-1.65 0-3-1.35-3-3V8c0-1.65 1.35-3 3-3h3"/><path d="M10 7H8c-.55 0-1-.45-1-1V2c0-.55.45-1 1-1h2c.55 0 1 .45 1 1v4c0 .55-.45 1-1 1zm14 0h-2c-.55 0-1-.45-1-1V2c0-.55.45-1 1-1h2c.55 0 1 .45 1 1v4c0 .55-.45 1-1 1zM1 10.998L31.02 11M8.917 19H7.084A1.087 1.087 0 0 1 6 17.916v-1.832C6 15.488 6.487 15 7.084 15h1.832c.596 0 1.084.488 1.084 1.084v1.832C10 18.512 9.512 19 8.916 19zm8 .08h-1.832A1.087 1.087 0 0 1 14 17.998v-1.832c0-.596.487-1.084 1.084-1.084h1.832c.596 0 1.084.49 1.084 1.085v1.832c0 .596-.488 1.084-1.084 1.084zm8 0h-1.832A1.087 1.087 0 0 1 22 17.998v-1.832c0-.596.487-1.084 1.084-1.084h1.832c.596 0 1.084.49 1.084 1.085v1.832c0 .596-.488 1.084-1.084 1.084zm-16 8H7.084A1.087 1.087 0 0 1 6 25.998v-1.832c0-.596.487-1.084 1.084-1.084h1.832c.596 0 1.084.49 1.084 1.085v1.832c0 .596-.488 1.084-1.084 1.084zm8-.08h-1.832A1.087 1.087 0 0 1 14 25.916v-1.832c0-.596.487-1.084 1.084-1.084h1.832c.596 0 1.084.488 1.084 1.084v1.832c0 .596-.488 1.084-1.084 1.084zm8 0h-1.832A1.087 1.087 0 0 1 22 25.916v-1.832c0-.596.487-1.084 1.084-1.084h1.832c.596 0 1.084.488 1.084 1.084v1.832c0 .596-.488 1.084-1.084 1.084z"/></g></svg><view id="icon__error" viewBox="382.7 203 30 30"/><svg width="30" height="30" viewBox="-4 -4 30 30" x="382.7" y="203"><path fill="#FFF" d="M13.3 11l5.3-5.3c.6-.6.6-1.6 0-2.3-.6-.6-1.6-.6-2.3 0L11 8.7 5.7 3.5c-.6-.6-1.6-.6-2.3 0-.6.6-.6 1.6 0 2.3L8.7 11l-5.3 5.3c-.6.6-.6 1.6 0 2.3.4.2.8.4 1.2.4.4 0 .8-.2 1.1-.5l5.3-5.3 5.3 5.3c.3.3.7.5 1.1.5.4 0 .8-.2 1.1-.5.6-.6.6-1.6 0-2.3L13.3 11z"/></svg><view id="icon__facebook" viewBox="382.7 144 32 32"/><svg width="32" height="32" viewBox="-4 -4 32 32" x="382.7" y="144"><title>icon__facebook</title><path d="M22.675 24H16.56v-9.294h3.12l.467-3.622H16.56V8.77c0-1.048.29-1.763 1.795-1.763h1.918v-3.24c-.332-.045-1.47-.144-2.795-.144-2.765 0-4.66 1.688-4.66 4.79v2.67H9.693v3.622h3.127V24H1.324A1.324 1.324 0 0 1 0 22.675V1.325C0 .593.593 0 1.325 0h21.35C23.407 0 24 .593 24 1.325v21.35c0 .732-.593 1.325-1.325 1.325z" fill="#FFF" fill-rule="evenodd"/></svg><view id="icon__filter" viewBox="382.7 233 30 28"/><svg width="30" height="28" viewBox="-4 -4 30 28" x="382.7" y="233"><title>icon__filter</title><g fill="none" fill-rule="evenodd"><path d="M3 1v18M19 1v18M11 1v18" stroke="#FFF" stroke-width="2" stroke-linecap="round"/><circle fill="#FFF" cx="3" cy="7" r="3"/><circle fill="#FFF" cx="19" cy="9" r="3"/><circle fill="#FFF" cx="11" cy="14" r="3"/></g></svg><view id="icon__googleplay" viewBox="0 146 145 41"/><svg width="145" height="41" viewBox="-4 -4 145 41" y="146"><title>72992ED0-8038-4577-91FB-AD1DA017DA75</title><defs><path id="bha" d="M0 32.187h136.817V0H0z"/></defs><g fill="none" fill-rule="evenodd"><path d="M44.225 4.098c0 .988-.293 1.774-.88 2.36-.667.7-1.535 1.048-2.603 1.048-1.024 0-1.893-.354-2.608-1.062-.717-.707-1.073-1.585-1.073-2.632 0-1.048.357-1.925 1.074-2.633C38.85.47 39.718.116 40.742.116c.507 0 .993.1 1.454.297.462.198.83.46 1.11.79l-.625.622c-.468-.558-1.114-.84-1.938-.84-.746 0-1.39.263-1.936.786-.544.524-.816 1.203-.816 2.04 0 .836.272 1.516.816 2.04.545.523 1.19.784 1.936.784.79 0 1.45-.263 1.98-.79.342-.343.54-.82.592-1.432h-2.572v-.85h3.433c.033.186.05.364.05.534z" fill="#FFF"/><path d="M44.225 4.098c0 .988-.293 1.774-.88 2.36-.667.7-1.535 1.048-2.603 1.048-1.024 0-1.893-.354-2.608-1.062-.717-.707-1.073-1.585-1.073-2.632 0-1.048.357-1.925 1.074-2.633C38.85.47 39.718.116 40.742.116c.507 0 .993.1 1.454.297.462.198.83.46 1.11.79l-.625.622c-.468-.558-1.114-.84-1.938-.84-.746 0-1.39.263-1.936.786-.544.524-.816 1.203-.816 2.04 0 .836.272 1.516.816 2.04.545.523 1.19.784 1.936.784.79 0 1.45-.263 1.98-.79.342-.343.54-.82.592-1.432h-2.572v-.85h3.433c.033.186.05.364.05.534z" stroke="#FFF" stroke-width=".2"/><path fill="#FFF" d="M49.67 1.145H46.44v2.242h2.91v.85h-2.91v2.24h3.227v.87h-4.14V.278h4.138z"/><path stroke="#FFF" stroke-width=".2" d="M49.67 1.145H46.44v2.242h2.91v.85h-2.91v2.24h3.227v.87h-4.14V.278h4.138z"/><path fill="#FFF" d="M53.508 7.348h-.91V1.145h-1.98v-.87h4.87v.87h-1.98z"/><path stroke="#FFF" stroke-width=".2" d="M53.508 7.348h-.91V1.145h-1.98v-.87h4.87v.87h-1.98z"/><mask id="bhb" fill="#fff"><use xlink:href="#bha"/></mask><path fill="#FFF" mask="url(#bhb)" d="M59.01 7.348h.91V.276h-.91z"/><path stroke="#FFF" stroke-width=".2" mask="url(#bhb)" d="M59.01 7.348h.91V.276h-.91z"/><path fill="#FFF" mask="url(#bhb)" d="M63.96 7.348h-.91V1.145h-1.98v-.87h4.87v.87h-1.98z"/><path stroke="#FFF" stroke-width=".2" mask="url(#bhb)" d="M63.96 7.348h-.91V1.145h-1.98v-.87h4.87v.87h-1.98z"/><path d="M70.634 5.842c.524.53 1.165.794 1.925.794s1.4-.264 1.924-.794.788-1.207.788-2.03c0-.823-.264-1.5-.788-2.03-.524-.53-1.166-.795-1.925-.795-.76 0-1.4.265-1.926.796-.523.53-.787 1.206-.787 2.03 0 .822.264 1.498.787 2.03m4.523.59c-.697.716-1.562 1.073-2.598 1.073-1.037 0-1.903-.357-2.598-1.073-.697-.714-1.044-1.587-1.044-2.62 0-1.035.347-1.91 1.044-2.623.695-.714 1.56-1.073 2.597-1.073 1.03 0 1.892.36 2.592 1.077.7.718 1.05 1.59 1.05 2.618 0 1.034-.35 1.907-1.045 2.62" fill="#FFF" mask="url(#bhb)"/><path d="M70.634 5.842c.524.53 1.165.794 1.925.794s1.4-.264 1.924-.794.788-1.207.788-2.03c0-.823-.264-1.5-.788-2.03-.524-.53-1.166-.795-1.925-.795-.76 0-1.4.265-1.926.796-.523.53-.787 1.206-.787 2.03 0 .822.264 1.498.787 2.03zm4.523.59c-.697.717-1.562 1.074-2.598 1.074-1.037 0-1.903-.357-2.598-1.073-.697-.714-1.044-1.587-1.044-2.62 0-1.035.347-1.91 1.044-2.623.695-.714 1.56-1.073 2.597-1.073 1.03 0 1.892.36 2.592 1.077.7.718 1.05 1.59 1.05 2.618 0 1.034-.35 1.907-1.045 2.62z" stroke="#FFF" stroke-width=".2" mask="url(#bhb)"/><path fill="#FFF" mask="url(#bhb)" d="M77.48 7.348V.276h1.108l3.444 5.5h.04l-.04-1.362V.276h.91v7.072h-.95L78.39 1.58h-.04l.04 1.363v4.405z"/><path stroke="#FFF" stroke-width=".2" mask="url(#bhb)" d="M77.48 7.348V.276h1.108l3.444 5.5h.04l-.04-1.362V.276h.91v7.072h-.95L78.39 1.58h-.04l.04 1.363v4.405z"/><path d="M114.518 27.383h2.204V12.65h-2.204v14.733zm19.85-9.426l-2.527 6.388h-.076l-2.62-6.388h-2.375l3.932 8.928-2.242 4.966h2.298l6.06-13.893h-2.45zm-12.5 7.753c-.72 0-1.728-.36-1.728-1.252 0-1.137 1.254-1.573 2.337-1.573.968 0 1.424.21 2.013.494a2.67 2.67 0 0 1-2.62 2.33zm.266-8.076c-1.595 0-3.248.703-3.93 2.256l1.954.816c.42-.816 1.198-1.08 2.014-1.08 1.14 0 2.298.68 2.318 1.894v.152c-.4-.227-1.254-.568-2.3-.568-2.107 0-4.253 1.156-4.253 3.316 0 1.972 1.728 3.243 3.666 3.243 1.48 0 2.298-.664 2.81-1.442h.077v1.14h2.128v-5.65c0-2.615-1.957-4.076-4.484-4.076zm-13.618 2.117h-3.135V14.7h3.136c1.647 0 2.583 1.362 2.583 2.525 0 1.142-.937 2.526-2.584 2.526zm-.058-7.1h-5.28v14.733h2.203v-5.58h3.078c2.444 0 4.843-1.767 4.843-4.578 0-2.81-2.4-4.575-4.842-4.575zM79.663 25.71c-1.522 0-2.797-1.27-2.797-3.017 0-1.766 1.275-3.057 2.797-3.057 1.504 0 2.683 1.29 2.683 3.057 0 1.747-1.18 3.018-2.683 3.018zm2.53-6.93h-.074c-.496-.587-1.448-1.12-2.647-1.12-2.51 0-4.814 2.203-4.814 5.033 0 2.81 2.302 4.993 4.813 4.993 1.2 0 2.15-.53 2.646-1.14h.074v.722c0 1.92-1.027 2.943-2.683 2.943-1.35 0-2.186-.967-2.53-1.783l-1.922.798c.553 1.33 2.017 2.96 4.453 2.96 2.588 0 4.777-1.518 4.777-5.22v-9h-2.093v.816zm3.616 8.602h2.207V12.65H85.81v14.734zm5.46-4.86c-.058-1.938 1.503-2.924 2.626-2.924.875 0 1.617.436 1.865 1.063l-4.49 1.862zm6.85-1.67c-.42-1.12-1.693-3.19-4.3-3.19-2.59 0-4.738 2.03-4.738 5.012 0 2.81 2.13 5.012 4.985 5.012 2.302 0 3.634-1.404 4.186-2.22l-1.713-1.14c-.57.835-1.35 1.385-2.473 1.385-1.123 0-1.922-.51-2.435-1.518l6.716-2.772-.23-.57zm-53.51-1.654v2.128h5.1c-.154 1.196-.553 2.07-1.162 2.676-.742.742-1.903 1.557-3.94 1.557-3.138 0-5.593-2.525-5.593-5.66 0-3.132 2.455-5.656 5.594-5.656 1.692 0 2.93.663 3.842 1.518l1.503-1.5c-1.274-1.215-2.968-2.146-5.346-2.146-4.3 0-7.916 3.495-7.916 7.785 0 4.292 3.615 7.786 7.915 7.786 2.32 0 4.07-.76 5.44-2.183 1.41-1.405 1.846-3.38 1.846-4.975 0-.494-.038-.95-.114-1.33H44.61zm13.084 6.513c-1.523 0-2.836-1.252-2.836-3.036 0-1.804 1.313-3.038 2.836-3.038 1.522 0 2.834 1.234 2.834 3.038 0 1.784-1.312 3.037-2.834 3.037zm0-8.05c-2.778 0-5.042 2.11-5.042 5.014 0 2.885 2.264 5.012 5.042 5.012 2.777 0 5.04-2.127 5.04-5.012 0-2.905-2.263-5.012-5.04-5.012zm11 8.05c-1.524 0-2.836-1.252-2.836-3.036 0-1.804 1.312-3.038 2.835-3.038 1.522 0 2.835 1.234 2.835 3.038 0 1.784-1.313 3.037-2.835 3.037zm0-8.05c-2.78 0-5.043 2.11-5.043 5.014 0 2.885 2.265 5.012 5.043 5.012 2.777 0 5.043-2.127 5.043-5.012 0-2.905-2.266-5.012-5.043-5.012z" fill="#FFF" mask="url(#bhb)"/><path d="M.547.91C.203 1.273 0 1.837 0 2.566V28.63c0 .732.203 1.294.547 1.657l.087.085 14.632-14.6v-.345L.634.824.547.91z" fill="#3ECDF9" mask="url(#bhb)"/><path d="M20.143 20.64l-4.877-4.87v-.344l4.878-4.867.11.06 5.78 3.277c1.65.936 1.65 2.467 0 3.404l-5.78 3.278-.11.062z" fill="#FFC229" mask="url(#bhb)"/><path d="M20.254 20.577l-4.99-4.978L.547 30.286c.544.575 1.443.646 2.455.072l17.254-9.783" fill="#F43149" mask="url(#bhb)"/><path d="M20.254 10.62L3 .838C1.99.264 1.09.335.546.91l14.72 14.69 4.988-4.98z" fill="#36EB83" mask="url(#bhb)"/><path d="M20.144 20.467L3 30.187c-.958.544-1.815.508-2.366.013l-.087.088.087.085c.55.494 1.408.53 2.367-.014l17.254-9.783-.11-.11z" fill="#000" mask="url(#bhb)"/><path d="M.547 30.116C.203 29.753 0 29.19 0 28.46v.172c0 .73.203 1.293.547 1.656l.087-.088-.087-.084zm25.485-12.988l-5.888 3.34.11.11 5.778-3.278c.826-.468 1.238-1.084 1.238-1.7-.07.557-.49 1.104-1.238 1.528" fill="#000" mask="url(#bhb)"/><path d="M3 1.01l23.032 13.06c.75.423 1.17.97 1.24 1.53 0-.617-.414-1.235-1.24-1.703L3.002.84C1.35-.097 0 .68 0 2.566v.172C0 .853 1.35.075 3 1.01" fill="#FFF" mask="url(#bhb)"/></g></svg><view id="icon__googleplay-hover" viewBox="145 146 145 41"/><svg width="145" height="41" viewBox="-4 -4 145 41" x="145" y="146"><title>4EE4CA44-85D2-413D-95FE-11B1C41B3BAB</title><defs><path id="bia" d="M0 32.187h136.817V0H0z"/></defs><g fill="none" fill-rule="evenodd"><path d="M44.225 4.098c0 .988-.293 1.774-.88 2.36-.667.7-1.535 1.048-2.603 1.048-1.024 0-1.893-.354-2.608-1.062-.717-.707-1.073-1.585-1.073-2.632 0-1.048.357-1.925 1.074-2.633C38.85.47 39.718.116 40.742.116c.507 0 .993.1 1.454.297.462.198.83.46 1.11.79l-.625.622c-.468-.558-1.114-.84-1.938-.84-.746 0-1.39.263-1.936.786-.544.524-.816 1.203-.816 2.04 0 .836.272 1.516.816 2.04.545.523 1.19.784 1.936.784.79 0 1.45-.263 1.98-.79.342-.343.54-.82.592-1.432h-2.572v-.85h3.433c.033.186.05.364.05.534z" fill="#000"/><path d="M44.225 4.098c0 .988-.293 1.774-.88 2.36-.667.7-1.535 1.048-2.603 1.048-1.024 0-1.893-.354-2.608-1.062-.717-.707-1.073-1.585-1.073-2.632 0-1.048.357-1.925 1.074-2.633C38.85.47 39.718.116 40.742.116c.507 0 .993.1 1.454.297.462.198.83.46 1.11.79l-.625.622c-.468-.558-1.114-.84-1.938-.84-.746 0-1.39.263-1.936.786-.544.524-.816 1.203-.816 2.04 0 .836.272 1.516.816 2.04.545.523 1.19.784 1.936.784.79 0 1.45-.263 1.98-.79.342-.343.54-.82.592-1.432h-2.572v-.85h3.433c.033.186.05.364.05.534z" stroke="#000" stroke-width=".2"/><path fill="#000" d="M49.67 1.145H46.44v2.242h2.91v.85h-2.91v2.24h3.227v.87h-4.14V.278h4.138z"/><path stroke="#000" stroke-width=".2" d="M49.67 1.145H46.44v2.242h2.91v.85h-2.91v2.24h3.227v.87h-4.14V.278h4.138z"/><path fill="#000" d="M53.508 7.348h-.91V1.145h-1.98v-.87h4.87v.87h-1.98z"/><path stroke="#000" stroke-width=".2" d="M53.508 7.348h-.91V1.145h-1.98v-.87h4.87v.87h-1.98z"/><mask id="bib" fill="#fff"><use xlink:href="#bia"/></mask><path fill="#000" mask="url(#bib)" d="M59.01 7.348h.91V.276h-.91z"/><path stroke="#000" stroke-width=".2" mask="url(#bib)" d="M59.01 7.348h.91V.276h-.91z"/><path fill="#000" mask="url(#bib)" d="M63.96 7.348h-.91V1.145h-1.98v-.87h4.87v.87h-1.98z"/><path stroke="#000" stroke-width=".2" mask="url(#bib)" d="M63.96 7.348h-.91V1.145h-1.98v-.87h4.87v.87h-1.98z"/><path d="M70.634 5.842c.524.53 1.165.794 1.925.794s1.4-.264 1.924-.794.788-1.207.788-2.03c0-.823-.264-1.5-.788-2.03-.524-.53-1.166-.795-1.925-.795-.76 0-1.4.265-1.926.796-.523.53-.787 1.206-.787 2.03 0 .822.264 1.498.787 2.03m4.523.59c-.697.716-1.562 1.073-2.598 1.073-1.037 0-1.903-.357-2.598-1.073-.697-.714-1.044-1.587-1.044-2.62 0-1.035.347-1.91 1.044-2.623.695-.714 1.56-1.073 2.597-1.073 1.03 0 1.892.36 2.592 1.077.7.718 1.05 1.59 1.05 2.618 0 1.034-.35 1.907-1.045 2.62" fill="#000" mask="url(#bib)"/><path d="M70.634 5.842c.524.53 1.165.794 1.925.794s1.4-.264 1.924-.794.788-1.207.788-2.03c0-.823-.264-1.5-.788-2.03-.524-.53-1.166-.795-1.925-.795-.76 0-1.4.265-1.926.796-.523.53-.787 1.206-.787 2.03 0 .822.264 1.498.787 2.03zm4.523.59c-.697.717-1.562 1.074-2.598 1.074-1.037 0-1.903-.357-2.598-1.073-.697-.714-1.044-1.587-1.044-2.62 0-1.035.347-1.91 1.044-2.623.695-.714 1.56-1.073 2.597-1.073 1.03 0 1.892.36 2.592 1.077.7.718 1.05 1.59 1.05 2.618 0 1.034-.35 1.907-1.045 2.62z" stroke="#000" stroke-width=".2" mask="url(#bib)"/><path fill="#000" mask="url(#bib)" d="M77.48 7.348V.276h1.108l3.444 5.5h.04l-.04-1.362V.276h.91v7.072h-.95L78.39 1.58h-.04l.04 1.363v4.405z"/><path stroke="#000" stroke-width=".2" mask="url(#bib)" d="M77.48 7.348V.276h1.108l3.444 5.5h.04l-.04-1.362V.276h.91v7.072h-.95L78.39 1.58h-.04l.04 1.363v4.405z"/><path d="M114.518 27.383h2.204V12.65h-2.204v14.733zm19.85-9.426l-2.527 6.388h-.076l-2.62-6.388h-2.375l3.932 8.928-2.242 4.966h2.298l6.06-13.893h-2.45zm-12.5 7.753c-.72 0-1.728-.36-1.728-1.252 0-1.137 1.254-1.573 2.337-1.573.968 0 1.424.21 2.013.494a2.67 2.67 0 0 1-2.62 2.33zm.266-8.076c-1.595 0-3.248.703-3.93 2.256l1.954.816c.42-.816 1.198-1.08 2.014-1.08 1.14 0 2.298.68 2.318 1.894v.152c-.4-.227-1.254-.568-2.3-.568-2.107 0-4.253 1.156-4.253 3.316 0 1.972 1.728 3.243 3.666 3.243 1.48 0 2.298-.664 2.81-1.442h.077v1.14h2.128v-5.65c0-2.615-1.957-4.076-4.484-4.076zm-13.618 2.117h-3.135V14.7h3.136c1.647 0 2.583 1.362 2.583 2.525 0 1.142-.937 2.526-2.584 2.526zm-.058-7.1h-5.28v14.733h2.203v-5.58h3.078c2.444 0 4.843-1.767 4.843-4.578 0-2.81-2.4-4.575-4.842-4.575zM79.663 25.71c-1.522 0-2.797-1.27-2.797-3.017 0-1.766 1.275-3.057 2.797-3.057 1.504 0 2.683 1.29 2.683 3.057 0 1.747-1.18 3.018-2.683 3.018zm2.53-6.93h-.074c-.496-.587-1.448-1.12-2.647-1.12-2.51 0-4.814 2.203-4.814 5.033 0 2.81 2.302 4.993 4.813 4.993 1.2 0 2.15-.53 2.646-1.14h.074v.722c0 1.92-1.027 2.943-2.683 2.943-1.35 0-2.186-.967-2.53-1.783l-1.922.798c.553 1.33 2.017 2.96 4.453 2.96 2.588 0 4.777-1.518 4.777-5.22v-9h-2.093v.816zm3.616 8.602h2.207V12.65H85.81v14.734zm5.46-4.86c-.058-1.938 1.503-2.924 2.626-2.924.875 0 1.617.436 1.865 1.063l-4.49 1.862zm6.85-1.67c-.42-1.12-1.693-3.19-4.3-3.19-2.59 0-4.738 2.03-4.738 5.012 0 2.81 2.13 5.012 4.985 5.012 2.302 0 3.634-1.404 4.186-2.22l-1.713-1.14c-.57.835-1.35 1.385-2.473 1.385-1.123 0-1.922-.51-2.435-1.518l6.716-2.772-.23-.57zm-53.51-1.654v2.128h5.1c-.154 1.196-.553 2.07-1.162 2.676-.742.742-1.903 1.557-3.94 1.557-3.138 0-5.593-2.525-5.593-5.66 0-3.132 2.455-5.656 5.594-5.656 1.692 0 2.93.663 3.842 1.518l1.503-1.5c-1.274-1.215-2.968-2.146-5.346-2.146-4.3 0-7.916 3.495-7.916 7.785 0 4.292 3.615 7.786 7.915 7.786 2.32 0 4.07-.76 5.44-2.183 1.41-1.405 1.846-3.38 1.846-4.975 0-.494-.038-.95-.114-1.33H44.61zm13.084 6.513c-1.523 0-2.836-1.252-2.836-3.036 0-1.804 1.313-3.038 2.836-3.038 1.522 0 2.834 1.234 2.834 3.038 0 1.784-1.312 3.037-2.834 3.037zm0-8.05c-2.778 0-5.042 2.11-5.042 5.014 0 2.885 2.264 5.012 5.042 5.012 2.777 0 5.04-2.127 5.04-5.012 0-2.905-2.263-5.012-5.04-5.012zm11 8.05c-1.524 0-2.836-1.252-2.836-3.036 0-1.804 1.312-3.038 2.835-3.038 1.522 0 2.835 1.234 2.835 3.038 0 1.784-1.313 3.037-2.835 3.037zm0-8.05c-2.78 0-5.043 2.11-5.043 5.014 0 2.885 2.265 5.012 5.043 5.012 2.777 0 5.043-2.127 5.043-5.012 0-2.905-2.266-5.012-5.043-5.012z" fill="#000" mask="url(#bib)"/><path d="M.547.91C.203 1.273 0 1.837 0 2.566V28.63c0 .732.203 1.294.547 1.657l.087.085 14.632-14.6v-.345L.634.824.547.91z" fill="#3ECDF9" mask="url(#bib)"/><path d="M20.143 20.64l-4.877-4.87v-.344l4.878-4.867.11.06 5.78 3.277c1.65.936 1.65 2.467 0 3.404l-5.78 3.278-.11.062z" fill="#FFC229" mask="url(#bib)"/><path d="M20.254 20.577l-4.99-4.978L.547 30.286c.544.575 1.443.646 2.455.072l17.254-9.783" fill="#F43149" mask="url(#bib)"/><path d="M20.254 10.62L3 .838C1.99.264 1.09.335.546.91l14.72 14.69 4.988-4.98z" fill="#36EB83" mask="url(#bib)"/><path d="M20.144 20.467L3 30.187c-.958.544-1.815.508-2.366.013l-.087.088.087.085c.55.494 1.408.53 2.367-.014l17.254-9.783-.11-.11z" fill="#000" mask="url(#bib)"/><path d="M.547 30.116C.203 29.753 0 29.19 0 28.46v.172c0 .73.203 1.293.547 1.656l.087-.088-.087-.084zm25.485-12.988l-5.888 3.34.11.11 5.778-3.278c.826-.468 1.238-1.084 1.238-1.7-.07.557-.49 1.104-1.238 1.528" fill="#000" mask="url(#bib)"/><path d="M3 1.01l23.032 13.06c.75.423 1.17.97 1.24 1.53 0-.617-.414-1.235-1.24-1.703L3.002.84C1.35-.097 0 .68 0 2.566v.172C0 .853 1.35.075 3 1.01" fill="#FFF" mask="url(#bib)"/></g></svg><view id="icon__linkedin" viewBox="346.7 176 35 32"/><svg width="35" height="32" viewBox="-4 -4 35 32" x="346.7" y="176"><title>icon__linkedin</title><path d="M.666 7.697H5.81V24H.666V7.697zM19.87 7.54c-2.948 0-4.795 1.596-5.137 2.715V7.697h-5.78c.075 1.358 0 16.303 0 16.303h5.78v-8.822c0-.49-.023-.98.126-1.333.396-.98 1.25-1.998 2.785-1.998 2.008 0 2.92 1.508 2.92 3.716V24H26.4v-9.066c0-5.05-2.874-7.394-6.53-7.394zM3.142 0C1.243 0 0 1.22 0 2.83c0 1.58 1.208 2.827 3.07 2.827h.037c1.935 0 3.14-1.25 3.14-2.83C6.208 1.217 5.04 0 3.142 0z" fill="#FFF" fill-rule="evenodd"/></svg><view id="icon__menu-card" viewBox="152 312 38 38"/><svg width="38" height="38" viewBox="-4 -4 38 38" x="152" y="312"><title>icon__menu-card</title><g fill="none" fill-rule="evenodd"><path d="M15 0C6.716 0 0 6.716 0 15c0 8.284 6.716 15 15 15 8.284 0 15-6.716 15-15 0-8.284-6.716-15-15-15m0 1.667c7.352 0 13.333 5.98 13.333 13.333S22.353 28.333 15 28.333 1.667 22.353 1.667 15 7.647 1.667 15 1.667" fill="#6733BA"/><path d="M10 17.5h4.167" stroke="#6733BA" stroke-width="2" stroke-linecap="round"/><path d="M2.083 10h25.834" stroke="#6733BA" stroke-width="2"/><path d="M19.167 17.5H20" stroke="#6733BA" stroke-width="2" stroke-linecap="round"/></g></svg><view id="icon__menu-future" viewBox="114 312 38 38"/><svg width="38" height="38" viewBox="-4 -4 38 38" x="114" y="312"><title>icon__menu-future</title><g fill="none" fill-rule="evenodd"><path d="M15 0c8.284 0 15 6.716 15 15 0 8.284-6.716 15-15 15-8.284 0-15-6.716-15-15C0 6.716 6.716 0 15 0zm0 1.667C7.648 1.667 1.667 7.647 1.667 15S7.647 28.333 15 28.333 28.333 22.353 28.333 15 22.353 1.667 15 1.667z" fill="#6733BA"/><path stroke="#6733BA" stroke-width="2" stroke-linecap="round" stroke-linejoin="round" d="M12.5 9.583L17.917 15 12.5 20.417M15.833.833V2.5m0 25v1.667M27.5 15h1.667M.833 15H2.5"/></g></svg><view id="icon__menu-history" viewBox="0 312 38 38"/><svg width="38" height="38" viewBox="-4 -4 38 38" y="312"><title>icon__menu-history</title><g fill="none" fill-rule="evenodd"><path d="M15 0C6.716 0 0 6.716 0 15c0 8.284 6.716 15 15 15 8.284 0 15-6.716 15-15 0-8.284-6.716-15-15-15zm0 1.667c7.352 0 13.333 5.98 13.333 13.333S22.353 28.333 15 28.333 1.667 22.353 1.667 15 7.647 1.667 15 1.667z" fill="#6733BA"/><path stroke="#6733BA" stroke-width="2" stroke-linecap="round" stroke-linejoin="round" d="M17.917 9.583L12.5 15l5.417 5.417M15 .833V2.5m0 25v1.667M29.167 15H27.5m-25 0H.833"/></g></svg><view id="icon__menu-me" viewBox="38 312 38 38"/><svg width="38" height="38" viewBox="-4 -4 38 38" x="38" y="312"><title>icon__menu-me</title><g fill="none" fill-rule="evenodd"><path d="M15 0C6.716 0 0 6.716 0 15c0 8.284 6.716 15 15 15 8.284 0 15-6.716 15-15 0-8.284-6.716-15-15-15m0 1.667c7.352 0 13.333 5.98 13.333 13.333S22.353 28.333 15 28.333 1.667 22.353 1.667 15 7.647 1.667 15 1.667" fill="#6733BA"/><path d="M4.02 23.95a14.974 14.974 0 0 1 10.99-4.784c4.334 0 8.24 1.84 10.98 4.777" stroke="#6733BA" stroke-width="2.001" stroke-linecap="round"/><path d="M19.167 11.667a4.166 4.166 0 1 1-8.334 0 4.166 4.166 0 1 1 8.334 0zM20 27.5v-1.25M10 27.5v-1.25" stroke="#6733BA" stroke-width="2" stroke-linecap="round"/></g></svg><view id="icon__menu-payments" viewBox="302 267 38 38"/><svg width="38" height="38" viewBox="-4 -4 38 38" x="302" y="267"><title>icon__menu-payments</title><g fill="none" fill-rule="evenodd"><path d="M15 0C6.716 0 0 6.716 0 15c0 8.284 6.716 15 15 15 8.284 0 15-6.716 15-15 0-8.284-6.716-15-15-15m0 1.667c7.352 0 13.333 5.98 13.333 13.333S22.353 28.333 15 28.333 1.667 22.353 1.667 15 7.647 1.667 15 1.667" fill="#6733BA"/><path d="M10 15h10" stroke="#6733BA" stroke-width="2" stroke-linecap="round"/></g></svg><view id="icon__menu-requests" viewBox="76 312 38 38"/><svg width="38" height="38" viewBox="-4 -4 38 38" x="76" y="312"><title>icon__menu-requests</title><g fill="none" fill-rule="evenodd"><path d="M15 0C6.716 0 0 6.716 0 15c0 8.284 6.716 15 15 15 8.284 0 15-6.716 15-15 0-8.284-6.716-15-15-15m0 1.667c7.352 0 13.333 5.98 13.333 13.333S22.353 28.333 15 28.333 1.667 22.353 1.667 15 7.647 1.667 15 1.667" fill="#6733BA"/><path d="M10 15h10m-5-5v10" stroke="#6733BA" stroke-width="2" stroke-linecap="round"/></g></svg><view id="icon__poco-symbol" viewBox="294.7 176 52 33"/><svg width="52" height="33" viewBox="-4 -4 52 33" x="294.7" y="176"><title>F94CDAF5-1F22-47B5-BF95-F3822F0E2275</title><defs><path d="M22.367 5.358C20.19 2.334 16.697.36 12.753.36 6.163.36.803 5.846.803 12.59c0 6.745 5.36 12.23 11.95 12.23 3.943 0 7.436-1.973 9.614-4.995 2.176 3.022 5.67 4.996 9.616 4.996 6.587 0 11.947-5.485 11.947-12.23C43.93 5.847 38.57.36 31.983.36c-3.946 0-7.44 1.974-9.616 4.998zm3.367 3.417c1.6-1.933 3.594-3.633 6.245-3.633 4.012 0 7.28 3.34 7.28 7.45 0 4.107-3.268 7.447-7.28 7.447-2.652 0-4.647-1.7-6.245-3.634-1.412-1.705-2.116-2.212-3.368-2.212-1.253 0-1.955.507-3.368 2.212-1.6 1.935-3.596 3.633-6.245 3.633-4.014 0-7.28-3.34-7.28-7.45s3.266-7.448 7.28-7.448c2.65 0 4.643 1.7 6.244 3.633 1.412 1.707 2.115 2.212 3.367 2.212 1.252 0 1.956-.505 3.367-2.212z" id="bqa"/></defs><g fill="none" fill-rule="evenodd"><mask id="bqb" fill="#fff"><use xlink:href="#bqa"/></mask><path fill="#FFF" mask="url(#bqb)" d="M-5.55 31.26h55.836V-6.08H-5.55z"/></g></svg><view id="icon__repeat" viewBox="46 228 42 38"/><svg width="42" height="38" viewBox="-4 -4 42 38" x="46" y="228"><title>7CF0EC65-66AF-45B5-BD67-16FB72551A36</title><path d="M12 23H9A8 8 0 0 1 9 7h6l-4-6m11 6h3a8 8 0 0 1 0 16h-6l4 6" stroke="#FFF" stroke-width="2" fill="none" fill-rule="evenodd" stroke-linecap="round" stroke-linejoin="round"/></svg><view id="icon__spinner" viewBox="382.7 176 32 27"/><svg width="32" height="27" viewBox="-4 -4 32 27" x="382.7" y="176"><title>icon</title><g fill="#FFF" fill-rule="evenodd"><path d="M19.45 9c0 4.43-3.386 8-7.536 8-3.084 0-5.83-1.99-6.98-4.982a1 1 0 0 0-1.867.717C4.507 16.485 7.982 19 11.914 19c5.278 0 9.535-4.488 9.535-10a1 1 0 0 0-2 0zm-14.985.602C4.465 5.402 7.84 2 12 2c3.095 0 5.842 1.9 6.986 4.748a1 1 0 1 0 1.856-.746C19.396 2.405 15.922 0 12 0 6.732 0 2.465 4.3 2.465 9.602a1 1 0 0 0 2 0z"/><path d="M4.306 9.06L1.84 5.234A1 1 0 1 0 .16 6.317l2.465 3.826a1 1 0 0 0 1.68-1.083z"/><path d="M4.013 10.438L7.81 7.954A1 1 0 0 0 6.713 6.28L2.918 8.766a1 1 0 0 0 1.095 1.673zm15.68-.295l2.466 3.826a1 1 0 1 0 1.68-1.084L21.375 9.06a1 1 0 1 0-1.68 1.083z"/><path d="M19.987 8.765L16.19 11.25a1 1 0 0 0 1.096 1.672l3.796-2.484a1 1 0 1 0-1.095-1.673z"/></g></svg><view id="icon__split" viewBox="34 267 36 44"/><svg width="36" height="44" viewBox="-4 -4 36 44" x="34" y="267"><title>FEBD0494-7C47-4F4E-AC6F-293807E38AE1</title><g stroke="#FFF" stroke-width="2" fill="none" fill-rule="evenodd" stroke-linecap="round" stroke-linejoin="round"><path d="M22 1v17a8 8 0 0 1-16 0V1m8 25v9"/><path d="M11 7.25L6 1 1 7.25m26 0L22 1l-5 6.25"/></g></svg><view id="icon__tag" viewBox="0 267 34 45"/><svg width="34" height="45" viewBox="-4 -4 34 45" y="267"><title>29DB0425-4D7D-4DE5-B1BD-50666F88E71C</title><g stroke="#FFF" stroke-width="2" fill="none" fill-rule="evenodd" stroke-linecap="round" stroke-linejoin="round"><path d="M18 13.838a5 5 0 0 1-5 5 5 5 0 0 1-5-5 5 5 0 0 1 5-5 5 5 0 0 1 5 5z"/><path d="M21 35.838H5c-2.2 0-4-1.8-4-4v-18.5c0-1.104.633-2.633 1.414-3.414l7.758-7.758a4.012 4.012 0 0 1 5.656 0l7.758 7.758c.78.78 1.414 2.31 1.414 3.414v18.5c0 2.2-1.8 4-4 4z"/></g></svg><view id="icon__template" viewBox="70 267 42 42"/><svg width="42" height="42" viewBox="-4 -4 42 42" x="70" y="267"><title>205CFB57-3AA5-43F7-9BB2-3CF2ED5825C1</title><path d="M29 14v15c0 2.2-1.8 4-4 4H5c-2.2 0-4-1.8-4-4V9c0-2.2 1.8-4 4-4h14M9 13h6m-6 6h12M9 25h12m8-16V1m-4 4h8" stroke="#FFF" stroke-width="2" fill="none" fill-rule="evenodd" stroke-linecap="round" stroke-linejoin="round"/></svg><view id="icon__twitter" viewBox="190 312 37 32"/><svg width="37" height="32" viewBox="-4 -4 37 32" x="190" y="312"><title>icon__twitter</title><path d="M24.25 1.912A5.826 5.826 0 0 0 19.938 0c-3.26 0-5.906 2.713-5.906 6.058 0 .476.05.937.152 1.38-4.91-.252-9.264-2.662-12.18-6.332-.508.9-.8 1.94-.8 3.05 0 2.1 1.044 3.955 2.63 5.042a5.8 5.8 0 0 1-2.678-.756v.075c0 2.936 2.037 5.385 4.742 5.94a5.66 5.66 0 0 1-1.557.214c-.38 0-.75-.036-1.11-.107.75 2.406 2.93 4.158 5.517 4.205a11.664 11.664 0 0 1-7.338 2.595c-.477 0-.95-.027-1.41-.083A16.447 16.447 0 0 0 9.057 24c10.87 0 16.81-9.23 16.81-17.237 0-.264-.004-.528-.014-.786A12.12 12.12 0 0 0 28.8 2.84a11.525 11.525 0 0 1-3.393.954 6.048 6.048 0 0 0 2.6-3.35A11.65 11.65 0 0 1 24.25 1.91z" fill="#FFF" fill-rule="evenodd"/></svg></svg>