<svg id="Layer_1" xmlns="http://www.w3.org/2000/svg" width="115" height="34" viewBox="0 0 115 34"><style>.st0{fill:#6639B6;}</style><title>ADF11DE6-5DB9-4B10-81D2-95C5A1A21F0E</title><g id="Page-1"><g id="index-copy-3"><g id="_x2D_header"><g id="poco-logo"><g id="logo-poco"><path id="Fill-1" class="st0" d="M77 21.9c-3.1 0-5.1-2.2-5.1-5.5s2-5.5 5.1-5.5c3.2 0 5.1 2.4 5.1 5.5s-1.9 5.5-5.1 5.5m.3-12.5c-2.8 0-4.5 1.6-5.3 3.2V9.7h-1.6v18.8H72v-8.3c.9 1.7 2.5 3.2 5.3 3.2 4 0 6.5-3 6.5-7s-2.5-7-6.5-7zm30.6.3l-4.7 9.9-4.8-9.9h-2l5.9 11.8-3.2 6.9h1.8l8.7-18.8h-1.7z"/><path id="Fill-3" class="st0" d="M93.8 17.4c0 2.2-1.7 4.5-4.7 4.5-2 0-3-1-3-2.5 0-1.2.8-2.3 2.8-2.5l4.9-.5v1zm-3.6-8c-3.4 0-4.8 1.4-5.3 3.2l1.5.8c.3-1.6 1.7-2.5 4-2.5 2.5 0 3.6 1.2 3.6 2.9v.5c0 .3-.2.5-.7.6l-4.5.4c-2.5.2-4.3 1.6-4.3 4 0 2.3 1.6 4 4.5 4 2.3 0 4.1-1.1 4.9-3.1v2.9h1.6v-8.8c-.1-3.3-1.8-4.9-5.3-4.9z"/><path id="Fill-8" class="st0" d="M57.8 19.8c-2 0-3.7-1.1-4.7-2.7-1.3-2.2-3.8-2.2-5.1 0-1 1.6-2.7 2.7-4.7 2.7-3 0-5.5-2.4-5.5-5.5 0-3 2.5-5.5 5.5-5.5 2 0 3.7 1.1 4.7 2.7 1.3 2.2 3.8 2.2 5.1 0 1-1.6 2.7-2.7 4.7-2.7 3 0 5.5 2.4 5.5 5.5 0 3-2.5 5.5-5.5 5.5m-29 0c-3 0-5.5-2.4-5.5-5.5 0-3 2.5-5.5 5.5-5.5s5.5 2.4 5.5 5.5c0 3-2.4 5.5-5.5 5.5m-14.4 0c-3 0-5.5-2.4-5.5-5.5 0-3 2.5-5.5 5.5-5.5s5.5 2.4 5.5 5.5c-.1 3-2.5 5.5-5.5 5.5M57.8 5.4c-3 0-5.6 1.4-7.2 3.7-1.6-2.2-4.3-3.7-7.2-3.7-3 0-5.6 1.4-7.2 3.7-1.6-2.2-4.3-3.7-7.2-3.7-3 0-5.6 1.4-7.2 3.7-1.6-2.2-4.3-3.7-7.2-3.7-2.1 0-4 .7-5.5 1.9V5.4H5.4v23.2h3.5v-7.2c1.5 1.2 3.4 1.9 5.5 1.9 3 0 5.6-1.4 7.2-3.7 1.6 2.2 4.3 3.7 7.2 3.7 3 0 5.6-1.4 7.2-3.7 1.6 2.2 4.3 3.7 7.2 3.7 3 0 5.6-1.4 7.2-3.7 1.6 2.2 4.3 3.7 7.2 3.7 5 0 9-4 9-9 .2-4.9-3.8-8.9-8.8-8.9"/></g></g></g></g></g></svg>