<svg id="Layer_1" xmlns="http://www.w3.org/2000/svg" viewBox="0 0 1058.9 380"><style>.st0{fill:#FFFFFF;}</style><g id="Layer_1_1_"><path class="st0" d="M690.6 151.1c-22.7 0-36.4 12.9-43 26.4v-23.8h-13.3v152.8h13.3V239c7.2 13.5 20.3 26.4 43 26.4 32.1 0 52.8-24.7 52.8-57.2 0-32.4-20.8-57.1-52.8-57.1zm-2.4 102c-25.3 0-41.5-18.1-41.5-44.7s16.1-44.8 41.5-44.8c26 0 41.5 19.4 41.5 44.8-.1 25.2-15.6 44.7-41.5 44.7zM798.4 151.1c-27.3 0-39.3 11.4-43.2 26.2l11.8 6.3c2.8-13.3 13.5-20.5 32.1-20.5 20.3 0 28.8 9.4 28.8 24v3.9c0 2.8-1.5 4.1-5.5 4.6l-36.2 3.5c-20.1 2-34.9 12.7-34.9 33 0 18.8 12.7 33 36.7 33 18.3 0 33.2-9 40-25.6v23.4h13.3v-71.6c-.1-26.7-13.9-40.2-42.9-40.2zm29.4 65.1c0 18.1-13.8 36.5-38.2 36.5-15.9 0-24.5-8.1-24.5-20.5 0-10 6.4-18.8 22.9-20.5l39.7-4.4.1 8.9zM938.7 153.7l-37.7 81-38.9-81h-16.2l47.9 96.5-26.2 56.3h14.6l70.7-152.8zM531.3 117.2c-24.1 0-45.4 11.8-58.7 29.8-13.3-18-34.6-29.8-58.7-29.8S368.5 129 355.2 147c-13.3-18-34.6-29.8-58.7-29.8S251.1 129 237.8 147c-13.3-18-34.6-29.8-58.7-29.8-16.7 0-32.1 5.7-44.4 15.2v-15.2H106v189.3h28.5V248c12.3 9.5 27.7 15.2 44.4 15.2 24.1 0 45.4-11.8 58.7-29.8 13.3 18 34.6 29.8 58.7 29.8s45.4-11.8 58.7-29.8c13.3 18 34.6 29.8 58.7 29.8s45.4-11.8 58.7-29.8c13.3 18 34.6 29.8 58.7 29.8 40.2 0 73-32.7 73-73 .2-40.2-32.5-73-72.8-73zM179 234.7c-24.5 0-44.4-19.9-44.4-44.4s19.9-44.5 44.4-44.5 44.4 19.9 44.4 44.5c.1 24.4-19.9 44.4-44.4 44.4zm117.4 0c-24.5 0-44.4-19.9-44.4-44.4s19.9-44.5 44.4-44.5 44.5 19.9 44.5 44.5c0 24.4-20 44.4-44.5 44.4zm234.9 0c-16.2 0-30.4-8.7-38.1-21.7-10.6-17.6-30.6-17.6-41.1 0-7.8 13-22 21.7-38.2 21.7-24.5 0-44.4-19.9-44.4-44.4s19.9-44.5 44.4-44.5c16.2 0 30.4 8.7 38.2 21.7 10.6 17.6 30.6 17.6 41.1 0 7.8-13 22-21.7 38.1-21.7 24.5 0 44.5 19.9 44.5 44.5 0 24.4-20 44.4-44.5 44.4z"/></g></svg>