<svg xmlns="http://www.w3.org/2000/svg" width="250" height="400" viewBox="0 0 250 400" xmlns:xlink="http://www.w3.org/1999/xlink">
  <defs>
    <linearGradient id="d" x1="100%" x2="0%" y1="0%" y2="100%">
      <stop stop-color="#FFFFFF" offset="0%"/>
      <stop stop-color="#E8E8E8" offset="60.788%"/>
      <stop stop-color="#D8D8D8" offset="100%"/>
    </linearGradient>
    <rect id="a" width="250" height="400" rx="11"/>
    <mask id="c" width="250" height="400" x="0" y="0" fill="white">
      <use xlink:href="#a"/>
    </mask>
    <linearGradient id="e" x1="100%" x2="0%" y1="0%" y2="100%">
      <stop stop-color="#FFFFFF" offset="27.117%"/>
      <stop stop-color="#B3B3B3" offset="100%"/>
    </linearGradient>
    <linearGradient id="g" x1="0%" y1="0%" y2="100%">
      <stop stop-color="#FFFFFF" stop-opacity=".5" offset="0%"/>
      <stop stop-color="#D7D7D7" stop-opacity=".856" offset="50.186%"/>
      <stop stop-color="#F3F3F3" stop-opacity=".915" offset="75.399%"/>
      <stop stop-color="#D6D6D6" offset="100%"/>
    </linearGradient>
    <rect id="b" width="34" height="52" x="165" y="23" rx="3"/>
    <mask id="f" width="34" height="52" x="0" y="0" fill="white">
      <use xlink:href="#b"/>
    </mask>
  </defs>
  <g fill="none" fill-rule="evenodd">
    <use fill="url(#d)" stroke="#D9D9D9" stroke-width="2" mask="url(#c)" xlink:href="#a"/>
    <path fill="#F79F1A" d="M228.401247,357.7732 C228.401247,366.904815 221.126272,374.307452 212.152134,374.307452 C203.177996,374.307452 195.903018,366.904815 195.903018,357.7732 C195.903018,348.641585 203.177996,341.238948 212.152134,341.238948 C221.126272,341.238948 228.401247,348.641585 228.401247,357.7732 L228.401247,357.7732 Z"/>
    <path fill="#EA001B" d="M208.355499,357.7732 C208.355499,366.904815 201.080524,374.307452 192.106386,374.307452 C183.132248,374.307452 175.857271,366.904815 175.857271,357.7732 C175.857271,348.641585 183.132248,341.238948 192.106386,341.238948 C201.080524,341.238948 208.355499,348.641585 208.355499,357.7732 L208.355499,357.7732 Z"/>
    <path fill="#FF5F01" d="M202.129293,344.757316 C198.337964,347.7842 195.904281,352.487794 195.904281,357.771651 C195.904281,363.055508 198.337964,367.762692 202.129293,370.789576 C205.920622,367.762692 208.354304,363.055508 208.354304,357.771651 C208.354304,352.487794 205.920622,347.7842 202.129293,344.757316 L202.129293,344.757316 Z"/>
    <path fill="#000000" d="M179.47198 382.48677L178.549915 382.48677 178.549915 378.116569 179.4539 378.116569 179.4539 378.649073C179.4539 378.649073 180.247893 377.998262 180.719479 378.006397 181.636412 378.022215 182.183934 378.814333 182.183934 378.814333 182.183934 378.814333 182.628083 378.006397 183.630311 378.006397 185.112384 378.006397 185.329802 379.383561 185.329802 379.383561L185.329802 382.468408 184.443897 382.468408 184.443897 379.750804C184.443897 379.750804 184.447075 378.924506 183.485673 378.924506 182.491485 378.924506 182.40089 379.750804 182.40089 379.750804L182.40089 382.468408 181.478826 382.468408 181.478826 379.732442C181.478826 379.732442 181.390247 378.869419 180.556761 378.869419 179.474264 378.869419 179.4539 379.750804 179.4539 379.750804L179.47198 382.48677zM207.512991 378.005801C207.041405 377.997667 206.247486 378.64844 206.247486 378.64844L206.247486 378.117096 205.342544 378.117096 205.342544 382.486322 206.265161 382.486322 206.247486 379.750619C206.247486 379.750619 206.267887 378.87103 207.350384 378.87103 207.551424 378.87103 207.70756 378.920486 207.831135 378.996685L207.831135 378.993101 208.131604 378.142233C207.950287 378.064726 207.74409 378.009787 207.512991 378.005801L207.512991 378.005801zM220.501817 378.005801C220.030231 377.997667 219.236312 378.64844 219.236312 378.64844L219.236312 378.117096 218.33137 378.117096 218.33137 382.486322 219.253987 382.486322 219.236312 379.750619C219.236312 379.750619 219.256713 378.87103 220.33921 378.87103 220.54025 378.87103 220.696386 378.920486 220.819961 378.996685L220.819961 378.993101 221.12043 378.142233C220.939113 378.064732 220.732917 378.009793 220.501817 378.005806L220.501817 378.005801zM188.311252 377.98785C186.93132 377.98785 186.201052 379.247493 186.197364 380.299914 186.193575 381.378631 187.02871 382.622748 188.350137 382.622748 189.12105 382.622748 189.754359 382.044732 189.754359 382.044732L189.752685 382.489912 190.660291 382.489912 190.660291 378.115375 189.749488 378.115375 189.749488 378.66639C189.749488 378.66639 189.154749 377.98785 188.311257 377.98785L188.311252 377.98785zM188.487999 378.87821C189.229395 378.87821 189.831272 379.533184 189.831272 380.339406 189.831272 381.145627 189.229395 381.797011 188.487999 381.797011 187.746602 381.797011 187.14826 381.145627 187.14826 380.339406 187.14826 379.533184 187.746602 378.87821 188.487999 378.87821L188.487999 378.87821zM214.779931 377.98785C213.399998 377.98785 212.669731 379.247493 212.666043 380.299914 212.662253 381.378631 213.497388 382.622748 214.818815 382.622748 215.589728 382.622748 216.223037 382.044732 216.223037 382.044732L216.221363 382.489912 217.128969 382.489912 217.128969 378.115375 216.218167 378.115375 216.218167 378.66639C216.218167 378.66639 215.623427 377.98785 214.779935 377.98785L214.779931 377.98785zM214.956677 378.87821C215.698074 378.87821 216.299951 379.533184 216.299951 380.339406 216.299951 381.145627 215.698074 381.797011 214.956677 381.797011 214.215281 381.797011 213.616939 381.145627 213.616939 380.339406 213.616939 379.533184 214.215281 378.87821 214.956677 378.87821L214.956677 378.87821zM223.494346 377.98785C222.114414 377.98785 221.384146 379.247493 221.380458 380.299914 221.376669 381.378631 222.211804 382.622748 223.53323 382.622748 224.304144 382.622748 224.937453 382.044732 224.937453 382.044732L224.935779 382.489912 225.843384 382.489912 225.843384 376.388499 224.932582 376.388499 224.932582 378.66639C224.932582 378.66639 224.337843 377.98785 223.494351 377.98785L223.494346 377.98785zM223.671093 378.87821C224.412489 378.87821 225.014366 379.533184 225.014366 380.339406 225.014366 381.145627 224.412489 381.797011 223.671093 381.797011 222.929696 381.797011 222.331354 381.145627 222.331354 380.339406 222.331354 379.533184 222.929696 378.87821 223.671093 378.87821L223.671093 378.87821zM193.429507 382.633667C192.489391 382.633667 191.621537 382.046078 191.621537 382.046078L192.019291 381.421763C192.019291 381.421763 192.840454 381.807369 193.429507 381.807369 193.81223 381.807369 194.452326 381.681851 194.460049 381.293228 194.468217 380.882493 193.384308 380.760724 193.384308 380.760724 193.384308 380.760724 191.766175 380.738305 191.766175 379.383561 191.766175 378.531552 192.574314 377.988035 193.610304 377.988035 194.20891 377.988035 195.327875 378.520538 195.327875 378.520538L194.875883 379.236663C194.875883 379.236663 194.01192 378.886104 193.556064 378.869419 193.171131 378.85533 192.706319 379.042516 192.706319 379.383561 192.706319 380.310145 195.400194 379.311365 195.400194 381.183054 195.400194 382.410983 194.303066 382.633667 193.429507 382.633667L193.429507 382.633667zM196.897597 376.849769L196.897597 378.120686 196.095168 378.120686 196.095168 379.039767 196.897597 379.039767 196.897597 381.236946C196.897597 381.236946 196.826579 382.723273 198.399942 382.723273 198.834942 382.723273 199.686656 382.396568 199.686656 382.396568L199.322559 381.441585C199.322559 381.441585 198.983853 381.735019 198.601433 381.725208 197.874311 381.706561 197.894447 381.233356 197.894447 381.233356L197.894447 379.039767 199.393257 379.039767 199.393257 378.120686 197.894447 378.120686 197.894447 376.849769 196.897597 376.849769 196.897597 376.849769zM202.359063 378.041702C200.879413 378.041702 200.140123 379.279487 200.146197 380.353766 200.152441 381.458543 200.819405 382.701732 202.447436 382.701732 203.144252 382.701732 204.122993 382.080634 204.122993 382.080634L203.702337 381.33747C203.702337 381.33747 203.034457 381.818552 202.447436 381.818552 201.272149 381.818552 201.196071 380.65175 201.196071 380.65175L204.342159 380.65175C204.342159 380.65175 204.576869 378.041702 202.359063 378.041702L202.359063 378.041702zM202.224736 378.899751C202.259626 378.89774 202.297029 378.899751 202.334319 378.899751 203.441549 378.899751 203.433682 379.962439 203.433682 379.962439L201.196071 379.962439C201.196071 379.962439 201.143139 378.9622 202.224736 378.899751L202.224736 378.899751zM211.717169 381.326223L212.139051 382.183169C212.139051 382.183169 211.470393 382.624625 210.719997 382.624625 209.166431 382.624625 208.303768 381.437128 208.303768 380.313469 208.303768 378.547491 209.676601 378.02828 210.604938 378.02828 211.447576 378.02828 212.177404 378.521673 212.177404 378.521673L211.704386 379.378619C211.704386 379.378619 211.417612 378.924178 210.579369 378.924178 209.742525 378.924178 209.300941 379.656961 209.300941 380.352421 209.300941 381.131779 209.814926 381.793647 210.592153 381.793647 211.201874 381.793647 211.717169 381.326223 211.717169 381.326223L211.717169 381.326223z"/>
    <path fill="url(#e)" d="M25.4855994,67.7119342 L29.9580481,67.7119342 L46.0472468,103.530878 L62.1945292,67.7119342 L66.6088942,67.7119342 L66.6088942,108.283553 L62.8915342,108.283553 L62.8915342,75.072785 L47.7316756,108.283553 L44.4209018,108.283553 L29.2029594,75.072785 L29.2029594,108.283553 L25.4855994,108.283553 L25.4855994,67.7119342 Z M85.0214429,104.921904 L72.2430179,79.3038252 L76.5412154,79.3038252 L86.8801229,100.806783 L96.9286116,79.3038252 L100.704055,79.3038252 L81.8849204,119.875444 L77.9933092,119.875444 L85.0214429,104.921904 Z M59.929263,135.118781 C63.5691962,135.118781 66.3571883,136.219999 68.293323,138.42247 C70.2294576,140.62494 71.1975104,143.793358 71.1975104,147.92782 L71.1975104,164.794022 L67.5382342,164.794022 L67.5382342,147.406185 C67.5382342,144.546838 66.8605972,142.334741 65.505303,140.769828 C64.1500087,139.204914 62.175181,138.42247 59.5807605,138.42247 C56.2506089,138.42247 53.7820742,139.562328 52.1750824,141.842077 C50.5680906,144.121827 49.7646068,147.232287 49.7646068,151.17355 L49.7646068,164.794022 L46.1634143,164.794022 L46.1634143,147.580064 C46.1634143,144.682076 45.4760968,142.43134 44.1014412,140.827787 C42.7267856,139.224234 40.7229162,138.42247 38.0897731,138.42247 C34.7983442,138.42247 32.3685316,139.581647 30.8002625,141.900037 C29.2319934,144.218427 28.4478706,147.386845 28.4478706,151.405388 L28.4478706,164.794022 L24.9047619,164.794022 L24.9047619,135.814294 L28.3317031,135.814294 L28.3317031,141.726159 C29.0674343,139.678248 30.3355835,138.065059 32.1361887,136.886544 C33.936794,135.708029 36.0761907,135.118781 38.5544431,135.118781 C41.1488636,135.118781 43.3076213,135.775648 45.0307812,137.089402 C46.753941,138.403156 47.925285,140.335119 48.544848,142.885348 C50.5971508,137.70761 54.3919178,135.118781 59.929263,135.118781 L59.929263,135.118781 Z M79.3001935,142.479631 C80.5974038,140.161242 82.4076625,138.354857 84.7310241,137.060422 C87.0543857,135.765988 89.6681283,135.118781 92.5723303,135.118781 C95.4765324,135.118781 98.090275,135.765988 100.413637,137.060422 C102.736998,138.354857 104.547257,140.161242 105.844467,142.479631 C107.141677,144.798021 107.790273,147.406171 107.790273,150.304158 C107.790273,153.202145 107.141677,155.810295 105.844467,158.128684 C104.547257,160.447074 102.736998,162.253459 100.413637,163.547893 C98.090275,164.842328 95.4765324,165.489535 92.5723303,165.489535 C89.6681283,165.489535 87.0543857,164.842328 84.7310241,163.547893 C82.4076625,162.253459 80.5974038,160.447074 79.3001935,158.128684 C78.0029833,155.810295 77.3543879,153.202145 77.3543879,150.304158 C77.3543879,147.406171 78.0029833,144.798021 79.3001935,142.479631 L79.3001935,142.479631 Z M102.649861,144.218415 C101.701155,142.440983 100.355562,141.04997 98.6130403,140.045334 C96.8705191,139.040699 94.8569693,138.538389 92.5723303,138.538389 C90.2876914,138.538389 88.2741416,139.040699 86.5316204,140.045334 C84.7890992,141.04997 83.4338252,142.440983 82.4657579,144.218415 C81.4976906,145.995847 81.0136641,148.024408 81.0136641,150.304158 C81.0136641,152.583908 81.4976906,154.612469 82.4657579,156.389901 C83.4338252,158.167333 84.7890992,159.558346 86.5316204,160.562982 C88.2741416,161.567617 90.2876914,162.069927 92.5723303,162.069927 C94.8569693,162.069927 96.8705191,161.567617 98.6130403,160.562982 C100.355562,159.558346 101.701155,158.167333 102.649861,156.389901 C103.598567,154.612469 104.072913,152.583908 104.072913,150.304158 C104.072913,148.024408 103.598567,145.995847 102.649861,144.218415 L102.649861,144.218415 Z M121.468996,136.886544 C123.269601,135.708029 125.486442,135.118781 128.119585,135.118781 C131.565905,135.118781 134.247411,136.219999 136.164185,138.42247 C138.080958,140.62494 139.03933,143.677441 139.03933,147.580064 L139.03933,164.794022 L135.380054,164.794022 L135.380054,147.695982 C135.380054,144.797995 134.683056,142.527939 133.289039,140.885746 C131.895022,139.243554 129.862111,138.42247 127.190245,138.42247 C123.976262,138.42247 121.56581,139.581647 119.958818,141.900037 C118.351827,144.218427 117.548343,147.386845 117.548343,151.405388 L117.548343,164.794022 L114.005234,164.794022 L114.005234,135.814294 L117.432175,135.814294 L117.432175,141.784118 C118.322797,139.697567 119.668391,138.065059 121.468996,136.886544 L121.468996,136.886544 Z M146.967762,142.68249 C148.148804,140.34478 149.823535,138.499756 151.992006,137.147362 C154.160477,135.794968 156.658053,135.118781 159.48481,135.118781 C162.427735,135.118781 164.934992,135.785308 167.006656,137.118382 C169.07832,138.451456 170.627204,140.238521 171.653356,142.479631 C172.679507,144.720742 173.192575,147.212973 173.192575,149.956401 L173.192575,150.999671 L148.7974,150.999671 L148.7974,151.405388 C148.874845,154.767053 149.949384,157.404182 152.021048,159.316853 C154.092712,161.229525 156.696774,162.185846 159.833313,162.185846 C163.550691,162.185846 166.783988,160.698235 169.533299,157.722968 L171.391979,160.505022 C168.216718,163.828047 164.40259,165.489535 159.94948,165.489535 C157.045278,165.489535 154.479938,164.871307 152.253383,163.634833 C150.026828,162.398358 148.294014,160.640272 147.054888,158.360522 C145.815761,156.080772 145.196208,153.453303 145.196208,150.478036 C145.196208,147.618689 145.78672,145.020199 146.967762,142.68249 L146.967762,142.68249 Z M166.541986,141.117584 C164.857548,139.320832 162.524541,138.42247 159.542894,138.42247 C156.483801,138.42247 154.034627,139.301513 152.195299,141.059625 C150.355972,142.817737 149.281433,145.184391 148.971651,148.159658 L169.359047,148.159658 C169.165434,145.261671 168.226423,142.914336 166.541986,141.117584 L166.541986,141.117584 Z M188.75902,161.432373 L175.980595,135.814294 L180.278792,135.814294 L190.6177,157.317252 L200.666189,135.814294 L204.441632,135.814294 L185.622497,176.385913 L181.730886,176.385913 L188.75902,161.432373 Z M59.929263,191.62925 C63.5691962,191.62925 66.3571883,192.730468 68.293323,194.932939 C70.2294576,197.135409 71.1975104,200.303827 71.1975104,204.438289 L71.1975104,221.304491 L67.5382342,221.304491 L67.5382342,203.916654 C67.5382342,201.057307 66.8605972,198.84521 65.505303,197.280296 C64.1500087,195.715383 62.175181,194.932939 59.5807605,194.932939 C56.2506089,194.932939 53.7820742,196.072796 52.1750824,198.352546 C50.5680906,200.632296 49.7646068,203.742756 49.7646068,207.684019 L49.7646068,221.304491 L46.1634143,221.304491 L46.1634143,204.090532 C46.1634143,201.192545 45.4760968,198.941809 44.1014412,197.338256 C42.7267856,195.734703 40.7229162,194.932939 38.0897731,194.932939 C34.7983442,194.932939 32.3685316,196.092116 30.8002625,198.410506 C29.2319934,200.728896 28.4478706,203.897314 28.4478706,207.915857 L28.4478706,221.304491 L24.9047619,221.304491 L24.9047619,192.324763 L28.3317031,192.324763 L28.3317031,198.236627 C29.0674343,196.188716 30.3355835,194.575528 32.1361887,193.397013 C33.936794,192.218498 36.0761907,191.62925 38.5544431,191.62925 C41.1488636,191.62925 43.3076213,192.286117 45.0307812,193.599871 C46.753941,194.913625 47.925285,196.845588 48.544848,199.395817 C50.5971508,194.218079 54.3919178,191.62925 59.929263,191.62925 L59.929263,191.62925 Z M82.7561766,193.397013 C84.6923113,192.218498 87.2673318,191.62925 90.4813154,191.62925 C98.0709633,191.62925 101.86573,195.164741 101.86573,202.23583 L101.86573,221.304491 L98.3226216,221.304491 L98.3226216,215.740383 C97.3932769,217.672374 95.9992809,219.179305 94.1405916,220.26122 C92.2819023,221.343136 90.113464,221.884085 87.6352116,221.884085 C84.6922869,221.884085 82.3399186,221.091981 80.578036,219.507748 C78.8161535,217.923515 77.9352254,215.798356 77.9352254,213.132207 C77.9352254,210.659258 78.7580703,208.650017 80.4037848,207.104424 C82.0494992,205.558831 84.3244234,204.650809 87.2286254,204.38033 L96.8124441,203.452978 C97.3545618,203.414339 97.7417829,203.298421 97.9741191,203.105222 C98.2064552,202.912023 98.3226216,202.602909 98.3226216,202.17787 L98.3226216,201.19256 C98.3226216,199.067369 97.6740262,197.4735 96.376816,196.410905 C95.0796057,195.348309 93.1725417,194.81702 90.6555666,194.81702 C88.2547596,194.81702 86.3283345,195.280691 84.8762335,196.208047 C83.4241325,197.135402 82.5044823,198.487776 82.1172554,200.265208 L78.9226492,198.584384 C79.5422123,196.304634 80.820042,194.575528 82.7561766,193.397013 L82.7561766,193.397013 Z M87.6932954,207.626059 C85.7571607,207.819258 84.2663594,208.408507 83.2208466,209.393823 C82.1753339,210.379138 81.6525854,211.644574 81.6525854,213.190167 C81.6525854,214.85168 82.2334171,216.155754 83.3950979,217.10243 C84.5567787,218.049106 86.1637464,218.522437 88.2160491,218.522437 C90.1134611,218.522437 91.8269146,218.107065 93.356461,217.276309 C94.8860074,216.445552 96.0960734,215.296034 96.9866953,213.827721 C97.8773173,212.359407 98.3226216,210.717239 98.3226216,208.901167 L98.3226216,206.46687 L87.6932954,207.626059 Z M119.697441,221.594288 C117.064298,221.594288 115.128193,220.97606 113.889066,219.739585 C112.64994,218.503111 112.030387,216.435911 112.030387,213.537924 L112.030387,195.454574 L105.931593,195.454574 L105.931593,192.324763 L112.030387,192.324763 L112.030387,184.558196 L115.631579,184.558196 L115.631579,192.324763 L123.995639,192.324763 L123.995639,195.454574 L115.631579,195.454574 L115.631579,213.711802 C115.631579,215.296035 115.960717,216.455213 116.619003,217.189369 C117.277289,217.923526 118.380869,218.290599 119.929776,218.290599 C121.207625,218.290599 122.620982,218.155362 124.16989,217.884883 L124.16989,221.014693 C122.543537,221.401092 121.052736,221.594288 119.697441,221.594288 L119.697441,221.594288 Z M140.607591,221.594288 C137.974448,221.594288 136.038343,220.97606 134.799216,219.739585 C133.56009,218.503111 132.940536,216.435911 132.940536,213.537924 L132.940536,195.454574 L126.841743,195.454574 L126.841743,192.324763 L132.940536,192.324763 L132.940536,184.558196 L136.541729,184.558196 L136.541729,192.324763 L144.905789,192.324763 L144.905789,195.454574 L136.541729,195.454574 L136.541729,213.711802 C136.541729,215.296035 136.870867,216.455213 137.529153,217.189369 C138.187438,217.923526 139.291019,218.290599 140.839926,218.290599 C142.117775,218.290599 143.531132,218.155362 145.08004,217.884883 L145.08004,221.014693 C143.453687,221.401092 141.962886,221.594288 140.607591,221.594288 L140.607591,221.594288 Z M150.510871,199.192958 C151.691913,196.855249 153.366644,195.010225 155.535115,193.657831 C157.703586,192.305436 160.201162,191.62925 163.027919,191.62925 C165.970843,191.62925 168.4781,192.295777 170.549764,193.628851 C172.621428,194.961925 174.170313,196.74899 175.196464,198.9901 C176.222616,201.231211 176.735684,203.723442 176.735684,206.46687 L176.735684,207.51014 L152.340509,207.51014 L152.340509,207.915857 C152.417954,211.277522 153.492493,213.914651 155.564157,215.827322 C157.635821,217.739994 160.239883,218.696315 163.376421,218.696315 C167.0938,218.696315 170.327096,217.208704 173.076407,214.233437 L174.935087,217.015491 C171.759827,220.338516 167.945699,222.000004 163.492589,222.000004 C160.588387,222.000004 158.023047,221.381776 155.796492,220.145302 C153.569937,218.908827 151.837123,217.150741 150.597996,214.870991 C149.35887,212.591241 148.739316,209.963772 148.739316,206.988505 C148.739316,204.129158 149.329829,201.530668 150.510871,199.192958 L150.510871,199.192958 Z M170.085094,197.628053 C168.400657,195.831301 166.06765,194.932939 163.086003,194.932939 C160.02691,194.932939 157.577736,195.811981 155.738408,197.570094 C153.89908,199.328206 152.824542,201.69486 152.51476,204.670127 L172.902156,204.670127 C172.708543,201.77214 171.769532,199.424805 170.085094,197.628053 L170.085094,197.628053 Z M189.717402,193.310074 C191.285671,192.189519 193.173374,191.62925 195.380567,191.62925 C196.387357,191.62925 197.336049,191.706528 198.226671,191.861087 L198.226671,195.628452 C197.181158,195.396613 196.213106,195.280695 195.322484,195.280695 C192.147223,195.280695 189.862618,196.430213 188.468601,198.729283 C187.074584,201.028353 186.377586,204.109833 186.377586,207.973816 L186.377586,221.304491 L182.834477,221.304491 L182.834477,192.324763 L186.261419,192.324763 L186.261419,198.294587 C186.99715,196.092117 188.149133,194.430629 189.717402,193.310074 L189.717402,193.310074 Z M205.312889,193.860689 C207.210301,192.373055 209.843404,191.62925 213.212279,191.62925 C215.651808,191.62925 217.820247,192.11224 219.717659,193.078236 C221.61507,194.044232 223.105872,195.531843 224.190107,197.541114 L221.227836,199.453776 C220.530828,197.985462 219.48533,196.864924 218.091314,196.092128 C216.697297,195.319331 215.012885,194.932939 213.038027,194.932939 C210.830834,194.932939 209.11738,195.37729 207.897615,196.266006 C206.677851,197.154722 206.048616,198.3139 206.009894,199.743573 C206.009894,200.864128 206.339032,201.743171 206.997317,202.380729 C207.655603,203.018286 208.478448,203.501276 209.465877,203.829715 C210.453305,204.158153 211.973148,204.554206 214.025451,205.017884 C216.464981,205.558841 218.362364,206.090131 219.717659,206.611769 C221.072953,207.133406 222.195894,207.935171 223.086516,209.017086 C223.977138,210.099001 224.422442,211.586613 224.422442,213.479964 C224.422442,216.146112 223.454389,218.232632 221.518255,219.739585 C219.58212,221.246539 216.871572,222.000004 213.38653,222.000004 C210.559773,222.000004 208.052516,221.449395 205.864684,220.34816 C203.676852,219.246925 202.098926,217.614416 201.130859,215.450586 L204.035046,213.537924 C204.8095,215.276716 206.038927,216.571131 207.723364,217.421207 C209.407801,218.271283 211.334226,218.696315 213.502697,218.696315 C215.787336,218.696315 217.578234,218.271283 218.875444,217.421207 C220.172654,216.571131 220.82125,215.334675 220.82125,213.711802 C220.82125,212.513967 220.511473,211.586625 219.89191,210.929748 C219.272347,210.272871 218.488224,209.78988 217.539518,209.480762 C216.590812,209.171643 215.187135,208.80457 213.328446,208.379532 C211.005084,207.877214 209.09802,207.355584 207.607197,206.814627 C206.116373,206.273669 204.886946,205.442925 203.918879,204.32237 C202.950811,203.201815 202.466785,201.714204 202.466785,199.859492 C202.466785,197.347903 203.415477,195.348322 205.312889,193.860689 L205.312889,193.860689 Z"/>
    <path fill="#747474" d="M26.5415 264.7195C25.9691638 264.532499 25.4620022 264.263335 25.02 263.912L25.581 262.926C26.3970041 263.583337 27.2923285 263.912 28.267 263.912 29.1170043 263.912 29.8196639 263.659836 30.375 263.1555 30.9303361 262.651164 31.208 261.940005 31.208 261.022 31.208 260.115329 30.9416693 259.412669 30.409 258.914 29.8763307 258.415331 29.1793376 258.166 28.318 258.166 27.5019959 258.166 26.6236714 258.381331 25.683 258.812L25.683 253.1 32.296 253.1 32.296 254.188 26.771 254.188 26.771 257.333C27.2583358 257.162999 27.7909971 257.078 28.369 257.078 29.1396705 257.078 29.822497 257.242332 30.4175 257.571 31.012503 257.899668 31.4743317 258.36433 31.803 258.965 32.1316683 259.56567 32.296 260.262663 32.296 261.056 32.296 261.906004 32.1118352 262.628497 31.7435 263.2235 31.3751648 263.818503 30.8821698 264.263332 30.2645 264.558 29.6468302 264.852668 28.975337 265 28.25 265 27.6833305 265 27.1138362 264.906501 26.5415 264.7195L26.5415 264.7195zM35.2965 253.814C35.9141698 253.337998 36.6536624 253.1 37.515 253.1 38.1383364 253.1 38.7078308 253.235999 39.2235 253.508 39.7391692 253.780001 40.1443319 254.162498 40.439 254.6555 40.7336681 255.148502 40.881 255.706664 40.881 256.33 40.881 256.96467 40.7251682 257.519998 40.4135 257.996 40.1018318 258.472002 39.6740027 258.817666 39.13 259.033 39.6853361 259.259668 40.1159985 259.613831 40.422 260.0955 40.7280015 260.577169 40.881 261.140997 40.881 261.787 40.881 262.433003 40.7336681 262.996831 40.439 263.4785 40.1443319 263.960169 39.7448359 264.334165 39.2405 264.6005 38.7361641 264.866835 38.1723365 265 37.549 265 36.6649956 265 35.9113365 264.759169 35.288 264.2775 34.6646636 263.795831 34.222668 263.158337 33.962 262.365L34.897 261.651C35.101001 262.35367 35.4296644 262.906165 35.883 263.3085 36.3363356 263.710835 36.8916634 263.912 37.549 263.912 38.2063366 263.912 38.7446646 263.713669 39.164 263.317 39.5833354 262.920331 39.793 262.40467 39.793 261.77 39.793 261.123997 39.5861687 260.602669 39.1725 260.206 38.7588313 259.809331 38.2290032 259.599667 37.583 259.577L37.056 259.577 37.056 258.489 37.583 258.489C38.2290032 258.466333 38.7588313 258.256669 39.1725 257.86 39.5861687 257.463331 39.793 256.953336 39.793 256.33 39.793 255.706664 39.5776688 255.193835 39.147 254.7915 38.7163312 254.389165 38.1836698 254.188 37.549 254.188 36.9143302 254.188 36.3675023 254.389165 35.9085 254.7915 35.4494977 255.193835 35.1123344 255.72933 34.897 256.398L33.979 255.65C34.239668 254.901996 34.6788302 254.290002 35.2965 253.814L35.2965 253.814zM44.4425 264.7195C43.8701638 264.532499 43.3630022 264.263335 42.921 263.912L43.482 262.926C44.2980041 263.583337 45.1933285 263.912 46.168 263.912 47.0180043 263.912 47.7206639 263.659836 48.276 263.1555 48.8313361 262.651164 49.109 261.940005 49.109 261.022 49.109 260.115329 48.8426693 259.412669 48.31 258.914 47.7773307 258.415331 47.0803376 258.166 46.219 258.166 45.4029959 258.166 44.5246714 258.381331 43.584 258.812L43.584 253.1 50.197 253.1 50.197 254.188 44.672 254.188 44.672 257.333C45.1593358 257.162999 45.6919971 257.078 46.27 257.078 47.0406705 257.078 47.723497 257.242332 48.3185 257.571 48.913503 257.899668 49.3753317 258.36433 49.704 258.965 50.0326683 259.56567 50.197 260.262663 50.197 261.056 50.197 261.906004 50.0128352 262.628497 49.6445 263.2235 49.2761648 263.818503 48.7831698 264.263332 48.1655 264.558 47.5478302 264.852668 46.876337 265 46.151 265 45.5843305 265 45.0148362 264.906501 44.4425 264.7195L44.4425 264.7195zM53.1975 253.814C53.8151698 253.337998 54.5546624 253.1 55.416 253.1 56.0393365 253.1 56.6088308 253.235999 57.1245 253.508 57.6401692 253.780001 58.0453319 254.162498 58.34 254.6555 58.6346681 255.148502 58.782 255.706664 58.782 256.33 58.782 256.96467 58.6261682 257.519998 58.3145 257.996 58.0028318 258.472002 57.5750027 258.817666 57.031 259.033 57.5863361 259.259668 58.0169985 259.613831 58.323 260.0955 58.6290015 260.577169 58.782 261.140997 58.782 261.787 58.782 262.433003 58.6346681 262.996831 58.34 263.4785 58.0453319 263.960169 57.6458359 264.334165 57.1415 264.6005 56.6371641 264.866835 56.0733364 265 55.45 265 54.5659956 265 53.8123365 264.759169 53.189 264.2775 52.5656636 263.795831 52.123668 263.158337 51.863 262.365L52.798 261.651C53.002001 262.35367 53.3306644 262.906165 53.784 263.3085 54.2373356 263.710835 54.7926634 263.912 55.45 263.912 56.1073366 263.912 56.6456646 263.713669 57.065 263.317 57.4843354 262.920331 57.694 262.40467 57.694 261.77 57.694 261.123997 57.4871687 260.602669 57.0735 260.206 56.6598313 259.809331 56.1300032 259.599667 55.484 259.577L54.957 259.577 54.957 258.489 55.484 258.489C56.1300032 258.466333 56.6598313 258.256669 57.0735 257.86 57.4871687 257.463331 57.694 256.953336 57.694 256.33 57.694 255.706664 57.4786688 255.193835 57.048 254.7915 56.6173312 254.389165 56.0846698 254.188 55.45 254.188 54.8153302 254.188 54.2685023 254.389165 53.8095 254.7915 53.3504977 255.193835 53.0133344 255.72933 52.798 256.398L51.88 255.65C52.140668 254.901996 52.5798302 254.290002 53.1975 253.814L53.1975 253.814zM66.3895 255.786C66.780502 254.890662 67.3074967 254.219169 67.9705 253.7715 68.6335033 253.323831 69.3843291 253.1 70.223 253.1 71.0616709 253.1 71.8124967 253.326664 72.4755 253.78 73.1385033 254.233336 73.665498 254.907662 74.0565 255.803 74.447502 256.698338 74.643 257.78066 74.643 259.05 74.643 260.330673 74.447502 261.418662 74.0565 262.314 73.665498 263.209338 73.1385033 263.880831 72.4755 264.3285 71.8124967 264.776169 71.0616709 265 70.223 265 69.3843291 265 68.6335033 264.776169 67.9705 264.3285 67.3074967 263.880831 66.780502 263.209338 66.3895 262.314 65.998498 261.418662 65.803 260.330673 65.803 259.05 65.803 257.769327 65.998498 256.681338 66.3895 255.786L66.3895 255.786zM73.1215 256.3725C72.8324986 255.641496 72.4358359 255.094668 71.9315 254.732 71.4271641 254.369332 70.8576698 254.188 70.223 254.188 69.5883302 254.188 69.0188359 254.369332 68.5145 254.732 68.0101641 255.094668 67.6135014 255.641496 67.3245 256.3725 67.0354986 257.103504 66.891 257.995995 66.891 259.05 66.891 260.115339 67.0354986 261.013496 67.3245 261.7445 67.6135014 262.475504 68.0101641 263.019498 68.5145 263.3765 69.0188359 263.733502 69.5883302 263.912 70.223 263.912 70.8576698 263.912 71.4271641 263.733502 71.9315 263.3765 72.4358359 263.019498 72.8324986 262.475504 73.1215 261.7445 73.4105014 261.013496 73.555 260.115339 73.555 259.05 73.555 257.995995 73.4105014 257.103504 73.1215 256.3725L73.1215 256.3725zM76.8615 255.786C77.252502 254.890662 77.7794967 254.219169 78.4425 253.7715 79.1055033 253.323831 79.8563291 253.1 80.695 253.1 81.5336709 253.1 82.2844967 253.326664 82.9475 253.78 83.6105033 254.233336 84.137498 254.907662 84.5285 255.803 84.919502 256.698338 85.115 257.78066 85.115 259.05 85.115 260.330673 84.919502 261.418662 84.5285 262.314 84.137498 263.209338 83.6105033 263.880831 82.9475 264.3285 82.2844967 264.776169 81.5336709 265 80.695 265 79.8563291 265 79.1055033 264.776169 78.4425 264.3285 77.7794967 263.880831 77.252502 263.209338 76.8615 262.314 76.470498 261.418662 76.275 260.330673 76.275 259.05 76.275 257.769327 76.470498 256.681338 76.8615 255.786L76.8615 255.786zM83.5935 256.3725C83.3044986 255.641496 82.9078359 255.094668 82.4035 254.732 81.8991641 254.369332 81.3296698 254.188 80.695 254.188 80.0603302 254.188 79.4908359 254.369332 78.9865 254.732 78.4821641 255.094668 78.0855014 255.641496 77.7965 256.3725 77.5074986 257.103504 77.363 257.995995 77.363 259.05 77.363 260.115339 77.5074986 261.013496 77.7965 261.7445 78.0855014 262.475504 78.4821641 263.019498 78.9865 263.3765 79.4908359 263.733502 80.0603302 263.912 80.695 263.912 81.3296698 263.912 81.8991641 263.733502 82.4035 263.3765 82.9078359 263.019498 83.3044986 262.475504 83.5935 261.7445 83.8825014 261.013496 84.027 260.115339 84.027 259.05 84.027 257.995995 83.8825014 257.103504 83.5935 256.3725L83.5935 256.3725zM87.3335 255.786C87.724502 254.890662 88.2514967 254.219169 88.9145 253.7715 89.5775033 253.323831 90.3283291 253.1 91.167 253.1 92.0056709 253.1 92.7564967 253.326664 93.4195 253.78 94.0825033 254.233336 94.609498 254.907662 95.0005 255.803 95.391502 256.698338 95.587 257.78066 95.587 259.05 95.587 260.330673 95.391502 261.418662 95.0005 262.314 94.609498 263.209338 94.0825033 263.880831 93.4195 264.3285 92.7564967 264.776169 92.0056709 265 91.167 265 90.3283291 265 89.5775033 264.776169 88.9145 264.3285 88.2514967 263.880831 87.724502 263.209338 87.3335 262.314 86.942498 261.418662 86.747 260.330673 86.747 259.05 86.747 257.769327 86.942498 256.681338 87.3335 255.786L87.3335 255.786zM94.0655 256.3725C93.7764986 255.641496 93.3798359 255.094668 92.8755 254.732 92.3711641 254.369332 91.8016698 254.188 91.167 254.188 90.5323302 254.188 89.9628359 254.369332 89.4585 254.732 88.9541641 255.094668 88.5575014 255.641496 88.2685 256.3725 87.9794986 257.103504 87.835 257.995995 87.835 259.05 87.835 260.115339 87.9794986 261.013496 88.2685 261.7445 88.5575014 262.475504 88.9541641 263.019498 89.4585 263.3765 89.9628359 263.733502 90.5323302 263.912 91.167 263.912 91.8016698 263.912 92.3711641 263.733502 92.8755 263.3765 93.3798359 263.019498 93.7764986 262.475504 94.0655 261.7445 94.3545014 261.013496 94.499 260.115339 94.499 259.05 94.499 257.995995 94.3545014 257.103504 94.0655 256.3725L94.0655 256.3725zM97.8055 255.786C98.196502 254.890662 98.7234967 254.219169 99.3865 253.7715 100.049503 253.323831 100.800329 253.1 101.639 253.1 102.477671 253.1 103.228497 253.326664 103.8915 253.78 104.554503 254.233336 105.081498 254.907662 105.4725 255.803 105.863502 256.698338 106.059 257.78066 106.059 259.05 106.059 260.330673 105.863502 261.418662 105.4725 262.314 105.081498 263.209338 104.554503 263.880831 103.8915 264.3285 103.228497 264.776169 102.477671 265 101.639 265 100.800329 265 100.049503 264.776169 99.3865 264.3285 98.7234967 263.880831 98.196502 263.209338 97.8055 262.314 97.414498 261.418662 97.219 260.330673 97.219 259.05 97.219 257.769327 97.414498 256.681338 97.8055 255.786L97.8055 255.786zM104.5375 256.3725C104.248499 255.641496 103.851836 255.094668 103.3475 254.732 102.843164 254.369332 102.27367 254.188 101.639 254.188 101.00433 254.188 100.434836 254.369332 99.9305 254.732 99.4261641 255.094668 99.0295014 255.641496 98.7405 256.3725 98.4514986 257.103504 98.307 257.995995 98.307 259.05 98.307 260.115339 98.4514986 261.013496 98.7405 261.7445 99.0295014 262.475504 99.4261641 263.019498 99.9305 263.3765 100.434836 263.733502 101.00433 263.912 101.639 263.912 102.27367 263.912 102.843164 263.733502 103.3475 263.3765 103.851836 263.019498 104.248499 262.475504 104.5375 261.7445 104.826501 261.013496 104.971 260.115339 104.971 259.05 104.971 257.995995 104.826501 257.103504 104.5375 256.3725L104.5375 256.3725zM113.4625 255.786C113.853502 254.890662 114.380497 254.219169 115.0435 253.7715 115.706503 253.323831 116.457329 253.1 117.296 253.1 118.134671 253.1 118.885497 253.326664 119.5485 253.78 120.211503 254.233336 120.738498 254.907662 121.1295 255.803 121.520502 256.698338 121.716 257.78066 121.716 259.05 121.716 260.330673 121.520502 261.418662 121.1295 262.314 120.738498 263.209338 120.211503 263.880831 119.5485 264.3285 118.885497 264.776169 118.134671 265 117.296 265 116.457329 265 115.706503 264.776169 115.0435 264.3285 114.380497 263.880831 113.853502 263.209338 113.4625 262.314 113.071498 261.418662 112.876 260.330673 112.876 259.05 112.876 257.769327 113.071498 256.681338 113.4625 255.786L113.4625 255.786zM120.1945 256.3725C119.905499 255.641496 119.508836 255.094668 119.0045 254.732 118.500164 254.369332 117.93067 254.188 117.296 254.188 116.66133 254.188 116.091836 254.369332 115.5875 254.732 115.083164 255.094668 114.686501 255.641496 114.3975 256.3725 114.108499 257.103504 113.964 257.995995 113.964 259.05 113.964 260.115339 114.108499 261.013496 114.3975 261.7445 114.686501 262.475504 115.083164 263.019498 115.5875 263.3765 116.091836 263.733502 116.66133 263.912 117.296 263.912 117.93067 263.912 118.500164 263.733502 119.0045 263.3765 119.508836 263.019498 119.905499 262.475504 120.1945 261.7445 120.483501 261.013496 120.628 260.115339 120.628 259.05 120.628 257.995995 120.483501 257.103504 120.1945 256.3725L120.1945 256.3725zM123.9345 255.786C124.325502 254.890662 124.852497 254.219169 125.5155 253.7715 126.178503 253.323831 126.929329 253.1 127.768 253.1 128.606671 253.1 129.357497 253.326664 130.0205 253.78 130.683503 254.233336 131.210498 254.907662 131.6015 255.803 131.992502 256.698338 132.188 257.78066 132.188 259.05 132.188 260.330673 131.992502 261.418662 131.6015 262.314 131.210498 263.209338 130.683503 263.880831 130.0205 264.3285 129.357497 264.776169 128.606671 265 127.768 265 126.929329 265 126.178503 264.776169 125.5155 264.3285 124.852497 263.880831 124.325502 263.209338 123.9345 262.314 123.543498 261.418662 123.348 260.330673 123.348 259.05 123.348 257.769327 123.543498 256.681338 123.9345 255.786L123.9345 255.786zM130.6665 256.3725C130.377499 255.641496 129.980836 255.094668 129.4765 254.732 128.972164 254.369332 128.40267 254.188 127.768 254.188 127.13333 254.188 126.563836 254.369332 126.0595 254.732 125.555164 255.094668 125.158501 255.641496 124.8695 256.3725 124.580499 257.103504 124.436 257.995995 124.436 259.05 124.436 260.115339 124.580499 261.013496 124.8695 261.7445 125.158501 262.475504 125.555164 263.019498 126.0595 263.3765 126.563836 263.733502 127.13333 263.912 127.768 263.912 128.40267 263.912 128.972164 263.733502 129.4765 263.3765 129.980836 263.019498 130.377499 262.475504 130.6665 261.7445 130.955501 261.013496 131.1 260.115339 131.1 259.05 131.1 257.995995 130.955501 257.103504 130.6665 256.3725L130.6665 256.3725zM134.4065 255.786C134.797502 254.890662 135.324497 254.219169 135.9875 253.7715 136.650503 253.323831 137.401329 253.1 138.24 253.1 139.078671 253.1 139.829497 253.326664 140.4925 253.78 141.155503 254.233336 141.682498 254.907662 142.0735 255.803 142.464502 256.698338 142.66 257.78066 142.66 259.05 142.66 260.330673 142.464502 261.418662 142.0735 262.314 141.682498 263.209338 141.155503 263.880831 140.4925 264.3285 139.829497 264.776169 139.078671 265 138.24 265 137.401329 265 136.650503 264.776169 135.9875 264.3285 135.324497 263.880831 134.797502 263.209338 134.4065 262.314 134.015498 261.418662 133.82 260.330673 133.82 259.05 133.82 257.769327 134.015498 256.681338 134.4065 255.786L134.4065 255.786zM141.1385 256.3725C140.849499 255.641496 140.452836 255.094668 139.9485 254.732 139.444164 254.369332 138.87467 254.188 138.24 254.188 137.60533 254.188 137.035836 254.369332 136.5315 254.732 136.027164 255.094668 135.630501 255.641496 135.3415 256.3725 135.052499 257.103504 134.908 257.995995 134.908 259.05 134.908 260.115339 135.052499 261.013496 135.3415 261.7445 135.630501 262.475504 136.027164 263.019498 136.5315 263.3765 137.035836 263.733502 137.60533 263.912 138.24 263.912 138.87467 263.912 139.444164 263.733502 139.9485 263.3765 140.452836 263.019498 140.849499 262.475504 141.1385 261.7445 141.427501 261.013496 141.572 260.115339 141.572 259.05 141.572 257.995995 141.427501 257.103504 141.1385 256.3725L141.1385 256.3725zM144.8785 255.786C145.269502 254.890662 145.796497 254.219169 146.4595 253.7715 147.122503 253.323831 147.873329 253.1 148.712 253.1 149.550671 253.1 150.301497 253.326664 150.9645 253.78 151.627503 254.233336 152.154498 254.907662 152.5455 255.803 152.936502 256.698338 153.132 257.78066 153.132 259.05 153.132 260.330673 152.936502 261.418662 152.5455 262.314 152.154498 263.209338 151.627503 263.880831 150.9645 264.3285 150.301497 264.776169 149.550671 265 148.712 265 147.873329 265 147.122503 264.776169 146.4595 264.3285 145.796497 263.880831 145.269502 263.209338 144.8785 262.314 144.487498 261.418662 144.292 260.330673 144.292 259.05 144.292 257.769327 144.487498 256.681338 144.8785 255.786L144.8785 255.786zM151.6105 256.3725C151.321499 255.641496 150.924836 255.094668 150.4205 254.732 149.916164 254.369332 149.34667 254.188 148.712 254.188 148.07733 254.188 147.507836 254.369332 147.0035 254.732 146.499164 255.094668 146.102501 255.641496 145.8135 256.3725 145.524499 257.103504 145.38 257.995995 145.38 259.05 145.38 260.115339 145.524499 261.013496 145.8135 261.7445 146.102501 262.475504 146.499164 263.019498 147.0035 263.3765 147.507836 263.733502 148.07733 263.912 148.712 263.912 149.34667 263.912 149.916164 263.733502 150.4205 263.3765 150.924836 263.019498 151.321499 262.475504 151.6105 261.7445 151.899501 261.013496 152.044 260.115339 152.044 259.05 152.044 257.995995 151.899501 257.103504 151.6105 256.3725L151.6105 256.3725zM160.5355 255.786C160.926502 254.890662 161.453497 254.219169 162.1165 253.7715 162.779503 253.323831 163.530329 253.1 164.369 253.1 165.207671 253.1 165.958497 253.326664 166.6215 253.78 167.284503 254.233336 167.811498 254.907662 168.2025 255.803 168.593502 256.698338 168.789 257.78066 168.789 259.05 168.789 260.330673 168.593502 261.418662 168.2025 262.314 167.811498 263.209338 167.284503 263.880831 166.6215 264.3285 165.958497 264.776169 165.207671 265 164.369 265 163.530329 265 162.779503 264.776169 162.1165 264.3285 161.453497 263.880831 160.926502 263.209338 160.5355 262.314 160.144498 261.418662 159.949 260.330673 159.949 259.05 159.949 257.769327 160.144498 256.681338 160.5355 255.786L160.5355 255.786zM167.2675 256.3725C166.978499 255.641496 166.581836 255.094668 166.0775 254.732 165.573164 254.369332 165.00367 254.188 164.369 254.188 163.73433 254.188 163.164836 254.369332 162.6605 254.732 162.156164 255.094668 161.759501 255.641496 161.4705 256.3725 161.181499 257.103504 161.037 257.995995 161.037 259.05 161.037 260.115339 161.181499 261.013496 161.4705 261.7445 161.759501 262.475504 162.156164 263.019498 162.6605 263.3765 163.164836 263.733502 163.73433 263.912 164.369 263.912 165.00367 263.912 165.573164 263.733502 166.0775 263.3765 166.581836 263.019498 166.978499 262.475504 167.2675 261.7445 167.556501 261.013496 167.701 260.115339 167.701 259.05 167.701 257.995995 167.556501 257.103504 167.2675 256.3725L167.2675 256.3725zM171.0075 255.786C171.398502 254.890662 171.925497 254.219169 172.5885 253.7715 173.251503 253.323831 174.002329 253.1 174.841 253.1 175.679671 253.1 176.430497 253.326664 177.0935 253.78 177.756503 254.233336 178.283498 254.907662 178.6745 255.803 179.065502 256.698338 179.261 257.78066 179.261 259.05 179.261 260.330673 179.065502 261.418662 178.6745 262.314 178.283498 263.209338 177.756503 263.880831 177.0935 264.3285 176.430497 264.776169 175.679671 265 174.841 265 174.002329 265 173.251503 264.776169 172.5885 264.3285 171.925497 263.880831 171.398502 263.209338 171.0075 262.314 170.616498 261.418662 170.421 260.330673 170.421 259.05 170.421 257.769327 170.616498 256.681338 171.0075 255.786L171.0075 255.786zM177.7395 256.3725C177.450499 255.641496 177.053836 255.094668 176.5495 254.732 176.045164 254.369332 175.47567 254.188 174.841 254.188 174.20633 254.188 173.636836 254.369332 173.1325 254.732 172.628164 255.094668 172.231501 255.641496 171.9425 256.3725 171.653499 257.103504 171.509 257.995995 171.509 259.05 171.509 260.115339 171.653499 261.013496 171.9425 261.7445 172.231501 262.475504 172.628164 263.019498 173.1325 263.3765 173.636836 263.733502 174.20633 263.912 174.841 263.912 175.47567 263.912 176.045164 263.733502 176.5495 263.3765 177.053836 263.019498 177.450499 262.475504 177.7395 261.7445 178.028501 261.013496 178.173 260.115339 178.173 259.05 178.173 257.995995 178.028501 257.103504 177.7395 256.3725L177.7395 256.3725zM181.4795 255.786C181.870502 254.890662 182.397497 254.219169 183.0605 253.7715 183.723503 253.323831 184.474329 253.1 185.313 253.1 186.151671 253.1 186.902497 253.326664 187.5655 253.78 188.228503 254.233336 188.755498 254.907662 189.1465 255.803 189.537502 256.698338 189.733 257.78066 189.733 259.05 189.733 260.330673 189.537502 261.418662 189.1465 262.314 188.755498 263.209338 188.228503 263.880831 187.5655 264.3285 186.902497 264.776169 186.151671 265 185.313 265 184.474329 265 183.723503 264.776169 183.0605 264.3285 182.397497 263.880831 181.870502 263.209338 181.4795 262.314 181.088498 261.418662 180.893 260.330673 180.893 259.05 180.893 257.769327 181.088498 256.681338 181.4795 255.786L181.4795 255.786zM188.2115 256.3725C187.922499 255.641496 187.525836 255.094668 187.0215 254.732 186.517164 254.369332 185.94767 254.188 185.313 254.188 184.67833 254.188 184.108836 254.369332 183.6045 254.732 183.100164 255.094668 182.703501 255.641496 182.4145 256.3725 182.125499 257.103504 181.981 257.995995 181.981 259.05 181.981 260.115339 182.125499 261.013496 182.4145 261.7445 182.703501 262.475504 183.100164 263.019498 183.6045 263.3765 184.108836 263.733502 184.67833 263.912 185.313 263.912 185.94767 263.912 186.517164 263.733502 187.0215 263.3765 187.525836 263.019498 187.922499 262.475504 188.2115 261.7445 188.500501 261.013496 188.645 260.115339 188.645 259.05 188.645 257.995995 188.500501 257.103504 188.2115 256.3725L188.2115 256.3725zM191.9515 255.786C192.342502 254.890662 192.869497 254.219169 193.5325 253.7715 194.195503 253.323831 194.946329 253.1 195.785 253.1 196.623671 253.1 197.374497 253.326664 198.0375 253.78 198.700503 254.233336 199.227498 254.907662 199.6185 255.803 200.009502 256.698338 200.205 257.78066 200.205 259.05 200.205 260.330673 200.009502 261.418662 199.6185 262.314 199.227498 263.209338 198.700503 263.880831 198.0375 264.3285 197.374497 264.776169 196.623671 265 195.785 265 194.946329 265 194.195503 264.776169 193.5325 264.3285 192.869497 263.880831 192.342502 263.209338 191.9515 262.314 191.560498 261.418662 191.365 260.330673 191.365 259.05 191.365 257.769327 191.560498 256.681338 191.9515 255.786L191.9515 255.786zM198.6835 256.3725C198.394499 255.641496 197.997836 255.094668 197.4935 254.732 196.989164 254.369332 196.41967 254.188 195.785 254.188 195.15033 254.188 194.580836 254.369332 194.0765 254.732 193.572164 255.094668 193.175501 255.641496 192.8865 256.3725 192.597499 257.103504 192.453 257.995995 192.453 259.05 192.453 260.115339 192.597499 261.013496 192.8865 261.7445 193.175501 262.475504 193.572164 263.019498 194.0765 263.3765 194.580836 263.733502 195.15033 263.912 195.785 263.912 196.41967 263.912 196.989164 263.733502 197.4935 263.3765 197.997836 263.019498 198.394499 262.475504 198.6835 261.7445 198.972501 261.013496 199.117 260.115339 199.117 259.05 199.117 257.995995 198.972501 257.103504 198.6835 256.3725L198.6835 256.3725zM24.6076107 357.898282L25.6927636 357.898282 30.0945103 367.114631 34.4656893 357.898282 35.5508422 357.898282 30.4613225 368.579481 29.7124142 368.579481 24.6076107 357.898282zM37.6294448 361.232342C38.1389088 360.922077 38.8164857 360.766947 39.6621959 360.766947 41.6592947 360.766947 42.6578291 361.697728 42.6578291 363.559318L42.6578291 368.579481 41.7255147 368.579481 41.7255147 367.114631C41.480972 367.623262 41.1141634 368.019988 40.625078 368.304822 40.1359926 368.589655 39.5654015 368.73207 38.9132876 368.73207 38.1389023 368.73207 37.5199129 368.523534 37.0563007 368.106456 36.5926885 367.689379 36.3608858 367.129893 36.3608858 366.427982 36.3608858 365.776935 36.5774048 365.247966 37.0104492 364.841061 37.4434935 364.434157 38.0421047 364.195104 38.8063007 364.123895L41.3281347 363.879753C41.4707847 363.869581 41.5726759 363.839063 41.6338116 363.7882 41.6949473 363.737337 41.7255147 363.655957 41.7255147 363.544059L41.7255147 363.284658C41.7255147 362.725164 41.5548468 362.30555 41.2135059 362.025803 40.8721651 361.746055 40.3703506 361.606184 39.7080474 361.606184 39.0763121 361.606184 38.569403 361.728254 38.1873051 361.972397 37.8052071 362.216539 37.5632153 362.572576 37.4613225 363.040516L36.6207112 362.59801C36.7837396 361.997825 37.1199808 361.542607 37.6294448 361.232342L37.6294448 361.232342zM38.9285714 364.978391C38.4191075 365.029254 38.0268261 365.184384 37.7517155 365.443786 37.476605 365.703188 37.3390518 366.036336 37.3390518 366.443241 37.3390518 366.880664 37.4918887 367.223985 37.7975671 367.473214 38.1032454 367.722443 38.5260942 367.847056 39.066126 367.847056 39.5654007 367.847056 40.0162696 367.737702 40.4187461 367.518991 40.8212226 367.300279 41.1396328 366.997648 41.3739863 366.611089 41.6083397 366.224529 41.7255147 365.792199 41.7255147 365.314086L41.7255147 364.673214 38.9285714 364.978391zM45.577043 368.579481L44.6141609 368.579481 44.6141609 357.898282 45.577043 357.898282 45.577043 368.579481zM48.8172177 368.579481L47.8849033 368.579481 47.8849033 360.950053 48.8172177 360.950053 48.8172177 368.579481zM47.7397068 359.248691C47.581773 359.091015 47.5028072 358.885023 47.5028072 358.630707 47.5028072 358.376392 47.581773 358.170399 47.7397068 358.012724 47.8976406 357.855048 48.1039704 357.776211 48.3587024 357.776211 48.6134344 357.776211 48.8197642 357.855048 48.9776981 358.012724 49.1356319 358.170399 49.2145976 358.376392 49.2145976 358.630707 49.2145976 358.885023 49.1356319 359.091015 48.9776981 359.248691 48.8197642 359.406366 48.6134344 359.485203 48.3587024 359.485203 48.1039704 359.485203 47.8976406 359.406366 47.7397068 359.248691L47.7397068 359.248691zM58.1403618 368.579481L57.2080474 368.579481 57.2080474 367.084113C56.9431261 367.613089 56.5457502 368.025074 56.0159077 368.32008 55.4860651 368.615086 54.8798121 368.762587 54.1971304 368.762587 53.4838808 368.762587 52.8470604 368.592198 52.28665 368.251416 51.7262397 367.910633 51.2881072 367.437613 50.9722396 366.832342 50.6563719 366.227071 50.4984404 365.537886 50.4984404 364.764767 50.4984404 363.991648 50.6563719 363.302463 50.9722396 362.697192 51.2881072 362.091921 51.7262397 361.618901 52.28665 361.278119 52.8470604 360.937336 53.4838808 360.766947 54.1971304 360.766947 54.8594335 360.766947 55.4529502 360.914448 55.9776981 361.209454 56.502446 361.50446 56.9125583 361.921531 57.2080474 362.46068L57.2080474 357.898282 58.1403618 357.898282 58.1403618 368.579481zM52.8521522 362.033432C52.4140132 362.29792 52.0726775 362.666672 51.8281347 363.139699 51.583592 363.612726 51.4613225 364.15441 51.4613225 364.764767 51.4613225 365.375124 51.583592 365.916808 51.8281347 366.389835 52.0726775 366.862862 52.4140132 367.231614 52.8521522 367.496102 53.2902912 367.76059 53.794653 367.892833 54.3652527 367.892833 55.2415307 367.892833 55.9445804 367.608003 56.474423 367.038337 57.0042655 366.46867 57.2691828 365.710821 57.2691828 364.764767 57.2691828 363.818713 57.0042655 363.060864 56.474423 362.491198 55.9445804 361.921531 55.2415307 361.636702 54.3652527 361.636702 53.794653 361.636702 53.2902912 361.768944 52.8521522 362.033432L52.8521522 362.033432zM65.224423 360.309181C65.5759531 359.505544 66.0497475 358.902825 66.6458203 358.501007 67.2418932 358.099188 67.9169228 357.898282 68.6709295 357.898282 69.4249362 357.898282 70.0999658 358.101731 70.6960387 358.508636 71.2921115 358.915541 71.7659059 359.520803 72.1174361 360.32444 72.4689662 361.128077 72.6447286 362.099548 72.6447286 363.238882 72.6447286 364.388388 72.4689662 365.364945 72.1174361 366.168582 71.7659059 366.972219 71.2921115 367.574938 70.6960387 367.976756 70.0999658 368.378575 69.4249362 368.579481 68.6709295 368.579481 67.9169228 368.579481 67.2418932 368.378575 66.6458203 367.976756 66.0497475 367.574938 65.5759531 366.972219 65.224423 366.168582 64.8728928 365.364945 64.6971304 364.388388 64.6971304 363.238882 64.6971304 362.089375 64.8728928 361.112818 65.224423 360.309181L65.224423 360.309181zM71.2768247 360.835612C71.0169981 360.179478 70.6603786 359.688656 70.2069557 359.363132 69.7535328 359.037608 69.2415292 358.874849 68.6709295 358.874849 68.1003299 358.874849 67.5883262 359.037608 67.1349033 359.363132 66.6814804 359.688656 66.3248609 360.179478 66.0650343 360.835612 65.8052077 361.491746 65.6752963 362.292828 65.6752963 363.238882 65.6752963 364.195108 65.8052077 365.001276 66.0650343 365.65741 66.3248609 366.313544 66.6814804 366.801823 67.1349033 367.12226 67.5883262 367.442698 68.1003299 367.602914 68.6709295 367.602914 69.2415292 367.602914 69.7535328 367.442698 70.2069557 367.12226 70.6603786 366.801823 71.0169981 366.313544 71.2768247 365.65741 71.5366513 365.001276 71.6665627 364.195108 71.6665627 363.238882 71.6665627 362.292828 71.5366513 361.491746 71.2768247 360.835612L71.2768247 360.835612zM78.4373051 368.579481L77.4591391 368.579481 77.4591391 359.332615 74.6621959 362.06395 73.9897068 361.377301 77.5355583 357.898282 78.4373051 357.898282 78.4373051 368.579481zM87.2560823 357.272669L81.1119775 369.510271 80.3172177 369.1288 86.4613225 356.891198 87.2560823 357.272669zM92.4678727 368.579481L91.4897068 368.579481 91.4897068 359.332615 88.6927636 362.06395 88.0202745 361.377301 91.566126 357.898282 92.4678727 357.898282 92.4678727 368.579481zM100.675296 358.874849L94.8063007 358.874849 94.8063007 357.898282 101.806301 357.898282 101.806301 358.829072 96.8849033 368.579481 95.7844666 368.579481 100.675296 358.874849z"/>
    <path stroke="#6639B6" stroke-width="2" d="M212.059559 54.0740741C214.991514 51.8518519 214.991514 46.6666667 212.059559 44.4444444M217.252438 56.2962963C220.184392 53.048433 220.184392 45.4700855 217.252438 42.2222222M222.445316 58.5185185C225.377271 54.2450142 225.377271 44.2735043 222.445316 40" stroke-linecap="round"/>
    <use fill="#F4F4F4" xlink:href="#b"/>
    <use fill="url(#g)" stroke="#CFCFCF" stroke-width="4" mask="url(#f)" xlink:href="#b"/>
    <path stroke="#CFCFCF" stroke-width="2" d="M176 36L176 24M176 74L176 62M188 36L188 24M188 74L188 62" stroke-linecap="round"/>
    <ellipse cx="181.952" cy="48.94" stroke="#CFCFCF" stroke-width="2" rx="5.952" ry="5.94"/>
    <path fill="#7437BC" d="M84.7829876 37.8670989C82.132165 37.8670989 80.4408504 35.9989984 80.4408504 33.2529928 80.4408504 30.5061622 82.132165 28.638268 84.7829876 28.638268 87.504718 28.638268 89.1268006 30.6415498 89.1268006 33.2529928 89.1268006 35.8636109 87.504718 37.8670989 84.7829876 37.8670989M85.0346738 27.3554376C82.6566946 27.3554376 81.2184278 28.6819879 80.5331249 30.0792739L80.5331249 27.6254909 79.1360202 27.6254909 79.1360202 43.3824137 80.5331249 43.3824137 80.5331249 36.4255774C81.2868219 37.8222447 82.6566946 39.1499293 85.0346738 39.1499293 88.3943654 39.1499293 90.5678953 36.6067472 90.5678953 33.2529928 90.5678953 29.8984135 88.3943654 27.3554376 85.0346738 27.3554376M99.4121889 34.0631939C99.4121889 35.9312943 97.9720368 37.8222859 95.4121271 37.8222859 93.7421791 37.8222859 92.8492848 36.9890288 92.8492848 35.7061984 92.8492848 34.6706333 93.5144779 33.7703526 95.2514585 33.5894922L99.4121889 33.1398158 99.4121889 34.0631939zM96.3251312 27.3553757C93.4682883 27.3553757 92.2097525 28.5261222 91.7993877 30.0552898L93.03331 30.7088208C93.3302432 29.3354571 94.4507339 28.5933519 96.394049 28.5933519 98.5208656 28.5933519 99.4121889 29.5606561 99.4121889 31.0693043L99.4121889 31.4752606C99.4121889 31.7668646 99.2526724 31.9022521 98.8408412 31.947725L95.0453335 32.3066618C92.9409308 32.5096915 91.3866139 33.6122802 91.3866139 35.7061984 91.3866139 37.6423535 92.7121823 39.1067661 95.2273687 39.1067661 97.1491077 39.1067661 98.7033198 38.1831819 99.4121889 36.4714009L99.4121889 38.8803297 100.807722 38.8803297 100.807722 31.4968113C100.807722 28.7512181 99.3669419 27.3553757 96.3251312 27.3553757L96.3251312 27.3553757z"/>
    <polygon fill="#7437BC" points="111.027 27.625 107.07 35.976 103.001 27.625 101.309 27.625 106.317 37.575 103.574 43.382 105.105 43.382 112.512 27.625"/>
    <path fill="#7437BC" d="M68.3546121,35.9707867 C66.6590032,35.9707867 65.1726615,35.0725682 64.3590541,33.7345723 L64.3590541,33.7385937 C63.2537504,31.918544 61.1566795,31.918544 60.0514806,33.7385937 L60.0514806,33.735191 C59.2373495,35.0729807 57.7506936,35.9707867 56.0546657,35.9707867 C53.4872149,35.9707867 51.3990467,33.9144016 51.3990467,31.3875114 C51.3990467,28.8589713 53.4872149,26.8038236 56.0546657,26.8038236 C57.7506936,26.8038236 59.2373495,27.701114 60.0514806,29.0389037 L60.0514806,29.0356041 C61.1566795,30.8554476 63.2537504,30.8554476 64.3590541,29.0356041 L64.3590541,29.0396255 C65.1726615,27.7014234 66.6590032,26.8038236 68.3546121,26.8038236 C70.9219582,26.8038236 73.0113832,28.8589713 73.0113832,31.3875114 C73.0113832,33.9144016 70.9219582,35.9707867 68.3546121,35.9707867 M43.7546146,35.9707867 C41.1872685,35.9707867 39.0991003,33.9144016 39.0991003,31.3875114 C39.0991003,28.8589713 41.1872685,26.8038236 43.7546146,26.8038236 C46.3217512,26.8038236 48.4107573,28.8589713 48.4107573,31.3875114 C48.4107573,33.9144016 46.3217512,35.9707867 43.7546146,35.9707867 M31.4545634,35.9707867 C28.8873221,35.9707867 26.7990492,33.9144016 26.7990492,31.3875114 C26.7990492,28.8589713 28.8873221,26.8038236 31.4545634,26.8038236 C34.0215953,26.8038236 36.1101824,28.8589713 36.1101824,31.3875114 C36.1101824,33.9144016 34.0215953,35.9707867 31.4545634,35.9707867 M68.355869,23.8615937 C65.8324083,23.8615937 63.5973969,25.0758539 62.2046913,26.936324 C60.813033,25.0758539 58.5779169,23.8615937 56.0556084,23.8615937 C53.5324619,23.8615937 51.2974505,25.0758539 49.9045354,26.936324 C48.5118298,25.0758539 46.2777611,23.8615937 43.7546146,23.8615937 C41.231887,23.8615937 38.9973994,25.0758539 37.6044843,26.936324 C36.2117786,25.0758539 33.9766625,23.8615937 31.4545634,23.8615937 C29.7037574,23.8615937 28.0895302,24.4454202 26.7990492,25.4238607 L26.7990492,23.8615937 L23.8095029,23.8615937 L23.8095029,43.382455 L26.7990492,43.382455 L26.7990492,37.3425006 C28.0895302,38.3229002 29.7016627,38.9129135 31.4545634,38.9129135 C33.9766625,38.9129135 36.2117786,37.6987564 37.6044843,35.8386988 C38.9973994,37.6987564 41.231887,38.9129135 43.7546146,38.9129135 C46.2777611,38.9129135 48.5118298,37.6987564 49.9045354,35.8386988 C51.2974505,37.6987564 53.5324619,38.9129135 56.0556084,38.9129135 C58.5779169,38.9129135 60.813033,37.6987564 62.2046913,35.8386988 C63.5973969,37.6987564 65.8324083,38.9129135 68.355869,38.9129135 C72.5713775,38.9129135 76.0003011,35.537196 76.0003011,31.3875114 C76.0003011,27.2367956 72.5713775,23.8615937 68.355869,23.8615937"/>
    <path fill="#202020" d="M29.08,292.28 L24.16,292.28 L24.16,291 L35.3,291 L35.3,292.28 L30.36,292.28 L30.36,305 L29.08,305 L29.08,292.28 Z M38.2,296.96 C38.5466684,296.25333 39.0233303,295.710002 39.63,295.33 C40.2366697,294.949998 40.9666624,294.76 41.82,294.76 C43.0333394,294.76 43.9666634,295.143329 44.62,295.91 C45.2733366,296.676671 45.6,297.759993 45.6,299.16 L45.6,305 L44.34,305 L44.34,299.1 C44.34,298.086662 44.1000024,297.300003 43.62,296.74 C43.1399976,296.179997 42.466671,295.9 41.6,295.9 C40.4933278,295.9 39.6500029,296.283329 39.07,297.05 C38.4899971,297.81667 38.2,298.926659 38.2,300.38 L38.2,305 L36.98,305 L36.98,291 L38.2,291 L38.2,296.96 Z M48.41,297.3 C48.8566689,296.499996 49.479996,295.876669 50.28,295.43 C51.080004,294.983331 51.979995,294.76 52.98,294.76 C53.980005,294.76 54.879996,294.983331 55.68,295.43 C56.480004,295.876669 57.1033311,296.499996 57.55,297.3 C57.9966689,298.100004 58.22,298.999995 58.22,300 C58.22,301.000005 57.9966689,301.899996 57.55,302.7 C57.1033311,303.500004 56.480004,304.123331 55.68,304.57 C54.879996,305.016669 53.980005,305.24 52.98,305.24 C51.979995,305.24 51.080004,305.016669 50.28,304.57 C49.479996,304.123331 48.8566689,303.500004 48.41,302.7 C47.9633311,301.899996 47.74,301.000005 47.74,300 C47.74,298.999995 47.9633311,298.100004 48.41,297.3 L48.41,297.3 Z M56.45,297.9 C56.1233317,297.286664 55.660003,296.806668 55.06,296.46 C54.459997,296.113332 53.7666706,295.94 52.98,295.94 C52.1933294,295.94 51.500003,296.113332 50.9,296.46 C50.299997,296.806668 49.833335,297.286664 49.5,297.9 C49.166665,298.513336 49,299.213329 49,300 C49,300.786671 49.166665,301.486664 49.5,302.1 C49.833335,302.713336 50.299997,303.193332 50.9,303.54 C51.500003,303.886668 52.1933294,304.06 52.98,304.06 C53.7666706,304.06 54.459997,303.886668 55.06,303.54 C55.660003,303.193332 56.1233317,302.713336 56.45,302.1 C56.7766683,301.486664 56.94,300.786671 56.94,300 C56.94,299.213329 56.7766683,298.513336 56.45,297.9 L56.45,297.9 Z M72.42,294.76 C73.6733396,294.76 74.63333,295.139996 75.3,295.9 C75.96667,296.660004 76.3,297.753326 76.3,299.18 L76.3,305 L75.04,305 L75.04,299 C75.04,298.013328 74.806669,297.250003 74.34,296.71 C73.873331,296.169997 73.1933378,295.9 72.3,295.9 C71.1533276,295.9 70.3033361,296.293329 69.75,297.08 C69.1966639,297.866671 68.92,298.939993 68.92,300.3 L68.92,305 L67.68,305 L67.68,299.06 C67.68,298.059995 67.4433357,297.283336 66.97,296.73 C66.4966643,296.176664 65.8066712,295.9 64.9,295.9 C63.766661,295.9 62.9300027,296.299996 62.39,297.1 C61.8499973,297.900004 61.58,298.993326 61.58,300.38 L61.58,305 L60.36,305 L60.36,295 L61.54,295 L61.54,297.04 C61.7933346,296.33333 62.2299969,295.776669 62.85,295.37 C63.4700031,294.963331 64.2066624,294.76 65.06,294.76 C65.9533378,294.76 66.6966637,294.986664 67.29,295.44 C67.8833363,295.893336 68.2866656,296.559996 68.5,297.44 C69.2066702,295.653324 70.5133238,294.76 72.42,294.76 L72.42,294.76 Z M80.28,295.37 C80.94667,294.963331 81.8333278,294.76 82.94,294.76 C85.5533464,294.76 86.86,295.979988 86.86,298.42 L86.86,305 L85.64,305 L85.64,303.08 C85.3199984,303.74667 84.8400032,304.266665 84.2,304.64 C83.5599968,305.013335 82.8133376,305.2 81.96,305.2 C80.9466616,305.2 80.1366697,304.926669 79.53,304.38 C78.9233303,303.833331 78.62,303.100005 78.62,302.18 C78.62,301.326662 78.9033305,300.633336 79.47,300.1 C80.0366695,299.566664 80.819995,299.253334 81.82,299.16 L85.12,298.84 C85.3066676,298.826667 85.4399996,298.786667 85.52,298.72 C85.6000004,298.653333 85.64,298.546667 85.64,298.4 L85.64,298.06 C85.64,297.326663 85.4166689,296.776669 84.97,296.41 C84.5233311,296.043332 83.866671,295.86 83,295.86 C82.1733292,295.86 81.5100025,296.019998 81.01,296.34 C80.5099975,296.660002 80.193334,297.126664 80.06,297.74 L78.96,297.16 C79.1733344,296.373329 79.61333,295.776669 80.28,295.37 L80.28,295.37 Z M81.98,300.28 C81.31333,300.346667 80.8000018,300.549998 80.44,300.89 C80.0799982,301.230002 79.9,301.666664 79.9,302.2 C79.9,302.773336 80.099998,303.223332 80.5,303.55 C80.900002,303.876668 81.4533298,304.04 82.16,304.04 C82.8133366,304.04 83.4033307,303.896668 83.93,303.61 C84.4566693,303.323332 84.8733318,302.926669 85.18,302.42 C85.4866682,301.913331 85.64,301.34667 85.64,300.72 L85.64,299.88 L81.98,300.28 Z M89.94,295.53 C90.5933366,295.016664 91.4999942,294.76 92.66,294.76 C93.5000042,294.76 94.2466634,294.926665 94.9,295.26 C95.5533366,295.593335 96.0666648,296.106663 96.44,296.8 L95.42,297.46 C95.1799988,296.953331 94.8200024,296.566668 94.34,296.3 C93.8599976,296.033332 93.2800034,295.9 92.6,295.9 C91.8399962,295.9 91.2500021,296.053332 90.83,296.36 C90.4099979,296.666668 90.1933334,297.066664 90.18,297.56 C90.18,297.946669 90.2933322,298.249999 90.52,298.47 C90.7466678,298.690001 91.0299983,298.856666 91.37,298.97 C91.7100017,299.083334 92.2333298,299.219999 92.94,299.38 C93.7800042,299.566668 94.433331,299.749999 94.9,299.93 C95.366669,300.110001 95.7533318,300.386665 96.06,300.76 C96.3666682,301.133335 96.52,301.646663 96.52,302.3 C96.52,303.220005 96.18667,303.939997 95.52,304.46 C94.85333,304.980003 93.920006,305.24 92.72,305.24 C91.7466618,305.24 90.8833371,305.050002 90.13,304.67 C89.3766629,304.289998 88.833335,303.72667 88.5,302.98 L89.5,302.32 C89.766668,302.920003 90.1899971,303.366665 90.77,303.66 C91.3500029,303.953335 92.0133296,304.1 92.76,304.1 C93.5466706,304.1 94.1633311,303.953335 94.61,303.66 C95.0566689,303.366665 95.28,302.940003 95.28,302.38 C95.28,301.966665 95.1733344,301.646668 94.96,301.42 C94.7466656,301.193332 94.4766683,301.026667 94.15,300.92 C93.8233317,300.813333 93.3400032,300.686667 92.7,300.54 C91.899996,300.366666 91.2433359,300.186668 90.73,300 C90.2166641,299.813332 89.793335,299.526669 89.46,299.14 C89.126665,298.753331 88.96,298.240003 88.96,297.6 C88.96,296.733329 89.2866634,296.043336 89.94,295.53 L89.94,295.53 Z M25.92,319.42 C26.5333364,318.353328 27.373328,317.51667 28.44,316.91 C29.506672,316.30333 30.6933268,316 32,316 C33.7600088,316 35.3466596,316.606661 36.76,317.82 L36.2,319.04 C35.5866636,318.493331 34.9433367,318.063335 34.27,317.75 C33.5966633,317.436665 32.826671,317.28 31.96,317.28 C30.8799946,317.28 29.906671,317.523331 29.04,318.01 C28.173329,318.496669 27.4966691,319.173329 27.01,320.04 C26.5233309,320.906671 26.28,321.893328 26.28,323 C26.28,324.106672 26.5266642,325.093329 27.02,325.96 C27.5133358,326.826671 28.1866624,327.503331 29.04,327.99 C29.8933376,328.476669 30.853328,328.72 31.92,328.72 C33.586675,328.72 35.0666602,328.120006 36.36,326.92 L36.94,328.14 C35.5266596,329.380006 33.853343,330 31.92,330 C30.6399936,330 29.4733386,329.693336 28.42,329.08 C27.3666614,328.466664 26.5333364,327.626672 25.92,326.56 C25.3066636,325.493328 25,324.300007 25,322.98 C25,321.673327 25.3066636,320.486672 25.92,319.42 L25.92,319.42 Z M40.02,320.37 C40.68667,319.963331 41.5733278,319.76 42.68,319.76 C45.2933464,319.76 46.6,320.979988 46.6,323.42 L46.6,330 L45.38,330 L45.38,328.08 C45.0599984,328.74667 44.5800032,329.266665 43.94,329.64 C43.2999968,330.013335 42.5533376,330.2 41.7,330.2 C40.6866616,330.2 39.8766697,329.926669 39.27,329.38 C38.6633303,328.833331 38.36,328.100005 38.36,327.18 C38.36,326.326662 38.6433305,325.633336 39.21,325.1 C39.7766695,324.566664 40.559995,324.253334 41.56,324.16 L44.86,323.84 C45.0466676,323.826667 45.1799996,323.786667 45.26,323.72 C45.3400004,323.653333 45.38,323.546667 45.38,323.4 L45.38,323.06 C45.38,322.326663 45.1566689,321.776669 44.71,321.41 C44.2633311,321.043332 43.606671,320.86 42.74,320.86 C41.9133292,320.86 41.2500025,321.019998 40.75,321.34 C40.2499975,321.660002 39.933334,322.126664 39.8,322.74 L38.7,322.16 C38.9133344,321.373329 39.35333,320.776669 40.02,320.37 L40.02,320.37 Z M41.72,325.28 C41.05333,325.346667 40.5400018,325.549998 40.18,325.89 C39.8199982,326.230002 39.64,326.666664 39.64,327.2 C39.64,327.773336 39.839998,328.223332 40.24,328.55 C40.640002,328.876668 41.1933298,329.04 41.9,329.04 C42.5533366,329.04 43.1433307,328.896668 43.67,328.61 C44.1966693,328.323332 44.6133318,327.926669 44.92,327.42 C45.2266682,326.913331 45.38,326.34667 45.38,325.72 L45.38,324.88 L41.72,325.28 Z M51.41,320.34 C51.9500027,319.953331 52.5999962,319.76 53.36,319.76 C53.7066684,319.76 54.0333318,319.786666 54.34,319.84 L54.34,321.14 C53.9799982,321.06 53.6466682,321.02 53.34,321.02 C52.2466612,321.02 51.4600024,321.416663 50.98,322.21 C50.4999976,323.003337 50.26,324.06666 50.26,325.4 L50.26,330 L49.04,330 L49.04,320 L50.22,320 L50.22,322.06 C50.4733346,321.299996 50.8699973,320.726669 51.41,320.34 L51.41,320.34 Z M65.44,330 L64.22,330 L64.22,328.04 C63.8733316,328.733337 63.3533368,329.273331 62.66,329.66 C61.9666632,330.046669 61.1733378,330.24 60.28,330.24 C59.346662,330.24 58.513337,330.016669 57.78,329.57 C57.046663,329.123331 56.4733354,328.503337 56.06,327.71 C55.6466646,326.916663 55.44,326.013338 55.44,325 C55.44,323.986662 55.6466646,323.083337 56.06,322.29 C56.4733354,321.496663 57.046663,320.876669 57.78,320.43 C58.513337,319.983331 59.346662,319.76 60.28,319.76 C61.146671,319.76 61.9233299,319.953331 62.61,320.34 C63.2966701,320.726669 63.8333314,321.27333 64.22,321.98 L64.22,316 L65.44,316 L65.44,330 Z M58.52,321.42 C57.9466638,321.766668 57.5000016,322.249997 57.18,322.87 C56.8599984,323.490003 56.7,324.199996 56.7,325 C56.7,325.800004 56.8599984,326.509997 57.18,327.13 C57.5000016,327.750003 57.9466638,328.233332 58.52,328.58 C59.0933362,328.926668 59.7533296,329.1 60.5,329.1 C61.6466724,329.1 62.5666632,328.72667 63.26,327.98 C63.9533368,327.23333 64.3,326.240006 64.3,325 C64.3,323.759994 63.9533368,322.76667 63.26,322.02 C62.5666632,321.27333 61.6466724,320.9 60.5,320.9 C59.7533296,320.9 59.0933362,321.073332 58.52,321.42 L58.52,321.42 Z M69.7,321.96 C70.0466684,321.25333 70.5233303,320.710002 71.13,320.33 C71.7366697,319.949998 72.4666624,319.76 73.32,319.76 C74.5333394,319.76 75.4666634,320.143329 76.12,320.91 C76.7733366,321.676671 77.1,322.759993 77.1,324.16 L77.1,330 L75.84,330 L75.84,324.1 C75.84,323.086662 75.6000024,322.300003 75.12,321.74 C74.6399976,321.179997 73.966671,320.9 73.1,320.9 C71.9933278,320.9 71.1500029,321.283329 70.57,322.05 C69.9899971,322.81667 69.7,323.926659 69.7,325.38 L69.7,330 L68.48,330 L68.48,316 L69.7,316 L69.7,321.96 Z M79.91,322.3 C80.3566689,321.499996 80.979996,320.876669 81.78,320.43 C82.580004,319.983331 83.479995,319.76 84.48,319.76 C85.480005,319.76 86.379996,319.983331 87.18,320.43 C87.980004,320.876669 88.6033311,321.499996 89.05,322.3 C89.4966689,323.100004 89.72,323.999995 89.72,325 C89.72,326.000005 89.4966689,326.899996 89.05,327.7 C88.6033311,328.500004 87.980004,329.123331 87.18,329.57 C86.379996,330.016669 85.480005,330.24 84.48,330.24 C83.479995,330.24 82.580004,330.016669 81.78,329.57 C80.979996,329.123331 80.3566689,328.500004 79.91,327.7 C79.4633311,326.899996 79.24,326.000005 79.24,325 C79.24,323.999995 79.4633311,323.100004 79.91,322.3 L79.91,322.3 Z M87.95,322.9 C87.6233317,322.286664 87.160003,321.806668 86.56,321.46 C85.959997,321.113332 85.2666706,320.94 84.48,320.94 C83.6933294,320.94 83.000003,321.113332 82.4,321.46 C81.799997,321.806668 81.333335,322.286664 81,322.9 C80.666665,323.513336 80.5,324.213329 80.5,325 C80.5,325.786671 80.666665,326.486664 81,327.1 C81.333335,327.713336 81.799997,328.193332 82.4,328.54 C83.000003,328.886668 83.6933294,329.06 84.48,329.06 C85.2666706,329.06 85.959997,328.886668 86.56,328.54 C87.160003,328.193332 87.6233317,327.713336 87.95,327.1 C88.2766683,326.486664 88.44,325.786671 88.44,325 C88.44,324.213329 88.2766683,323.513336 87.95,322.9 L87.95,322.9 Z M93.18,330 L91.92,330 L91.92,316 L93.18,316 L93.18,330 Z M105.4,330 L104.18,330 L104.18,328.04 C103.833332,328.733337 103.313337,329.273331 102.62,329.66 C101.926663,330.046669 101.133338,330.24 100.24,330.24 C99.306662,330.24 98.473337,330.016669 97.74,329.57 C97.006663,329.123331 96.4333354,328.503337 96.02,327.71 C95.6066646,326.916663 95.4,326.013338 95.4,325 C95.4,323.986662 95.6066646,323.083337 96.02,322.29 C96.4333354,321.496663 97.006663,320.876669 97.74,320.43 C98.473337,319.983331 99.306662,319.76 100.24,319.76 C101.106671,319.76 101.88333,319.953331 102.57,320.34 C103.25667,320.726669 103.793331,321.27333 104.18,321.98 L104.18,316 L105.4,316 L105.4,330 Z M98.48,321.42 C97.9066638,321.766668 97.4600016,322.249997 97.14,322.87 C96.8199984,323.490003 96.66,324.199996 96.66,325 C96.66,325.800004 96.8199984,326.509997 97.14,327.13 C97.4600016,327.750003 97.9066638,328.233332 98.48,328.58 C99.0533362,328.926668 99.7133296,329.1 100.46,329.1 C101.606672,329.1 102.526663,328.72667 103.22,327.98 C103.913337,327.23333 104.26,326.240006 104.26,325 C104.26,323.759994 103.913337,322.76667 103.22,322.02 C102.526663,321.27333 101.606672,320.9 100.46,320.9 C99.7133296,320.9 99.0533362,321.073332 98.48,321.42 L98.48,321.42 Z M108.23,322.37 C108.636669,321.563329 109.21333,320.926669 109.96,320.46 C110.70667,319.993331 111.566662,319.76 112.54,319.76 C113.553338,319.76 114.416663,319.989998 115.13,320.45 C115.843337,320.910002 116.376665,321.526663 116.73,322.3 C117.083335,323.073337 117.26,323.933329 117.26,324.88 L117.26,325.24 L108.86,325.24 L108.86,325.38 C108.886667,326.540006 109.256663,327.449997 109.97,328.11 C110.683337,328.770003 111.579995,329.1 112.66,329.1 C113.940006,329.1 115.053329,328.586672 116,327.56 L116.64,328.52 C115.546661,329.666672 114.233341,330.24 112.7,330.24 C111.699995,330.24 110.816671,330.026669 110.05,329.6 C109.28333,329.173331 108.686669,328.566671 108.26,327.78 C107.833331,326.993329 107.62,326.086672 107.62,325.06 C107.62,324.073328 107.823331,323.176671 108.23,322.37 L108.23,322.37 Z M114.97,321.83 C114.389997,321.209997 113.586672,320.9 112.56,320.9 C111.506661,320.9 110.663337,321.20333 110.03,321.81 C109.396664,322.41667 109.026667,323.233328 108.92,324.26 L115.94,324.26 C115.873333,323.259995 115.550003,322.450003 114.97,321.83 L114.97,321.83 Z M121.73,320.34 C122.270003,319.953331 122.919996,319.76 123.68,319.76 C124.026668,319.76 124.353332,319.786666 124.66,319.84 L124.66,321.14 C124.299998,321.06 123.966668,321.02 123.66,321.02 C122.566661,321.02 121.780002,321.416663 121.3,322.21 C120.819998,323.003337 120.58,324.06666 120.58,325.4 L120.58,330 L119.36,330 L119.36,320 L120.54,320 L120.54,322.06 C120.793335,321.299996 121.189997,320.726669 121.73,320.34 L121.73,320.34 Z"/>
  </g>
</svg>
